G04 #@! TF.GenerationSoftware,KiCad,Pcbnew,(5.1.9-0-10_14)*
G04 #@! TF.CreationDate,2021-03-02T20:08:02+08:00*
G04 #@! TF.ProjectId,mikroBUS-L,6d696b72-6f42-4555-932d-4c2e6b696361,rev?*
G04 #@! TF.SameCoordinates,Original*
G04 #@! TF.FileFunction,Copper,L2,Bot*
G04 #@! TF.FilePolarity,Positive*
%FSLAX46Y46*%
G04 Gerber Fmt 4.6, Leading zero omitted, Abs format (unit mm)*
G04 Created by KiCad (PCBNEW (5.1.9-0-10_14)) date 2021-03-02 20:08:02*
%MOMM*%
%LPD*%
G01*
G04 APERTURE LIST*
G04 #@! TA.AperFunction,ComponentPad*
%ADD10O,1.000000X2.100000*%
G04 #@! TD*
G04 #@! TA.AperFunction,ComponentPad*
%ADD11O,1.000000X1.600000*%
G04 #@! TD*
G04 #@! TA.AperFunction,ComponentPad*
%ADD12R,1.676400X1.676400*%
G04 #@! TD*
G04 #@! TA.AperFunction,ComponentPad*
%ADD13C,1.524000*%
G04 #@! TD*
G04 #@! TA.AperFunction,ComponentPad*
%ADD14R,1.524000X1.524000*%
G04 #@! TD*
G04 #@! TA.AperFunction,ViaPad*
%ADD15C,0.800000*%
G04 #@! TD*
G04 #@! TA.AperFunction,Conductor*
%ADD16C,0.250000*%
G04 #@! TD*
G04 #@! TA.AperFunction,Conductor*
%ADD17C,0.254000*%
G04 #@! TD*
G04 #@! TA.AperFunction,Conductor*
%ADD18C,0.100000*%
G04 #@! TD*
G04 APERTURE END LIST*
D10*
X153160000Y-67392000D03*
X161800000Y-67392000D03*
D11*
X161800000Y-63212000D03*
X153160000Y-63212000D03*
D12*
X146050000Y-97028000D03*
D13*
X146050000Y-99568000D03*
X146050000Y-102108000D03*
X146050000Y-104648000D03*
X146050000Y-107188000D03*
X146050000Y-109728000D03*
X146050000Y-112268000D03*
X146050000Y-114808000D03*
X168910000Y-114808000D03*
X168910000Y-112268000D03*
X168910000Y-109728000D03*
X168910000Y-107188000D03*
X168910000Y-104648000D03*
X168910000Y-102108000D03*
X168910000Y-99568000D03*
D14*
X168910000Y-97028000D03*
D15*
X160147000Y-79121000D03*
X160147000Y-86995000D03*
X161417000Y-69596000D03*
X155829000Y-75057000D03*
X159004004Y-75057000D03*
X167132000Y-91313000D03*
D16*
X153160000Y-63212000D02*
X153160000Y-67392000D01*
X153160000Y-63212000D02*
X161800000Y-63212000D01*
X161800000Y-63212000D02*
X161800000Y-67392000D01*
X161679999Y-67512001D02*
X161800000Y-67392000D01*
X153280001Y-67512001D02*
X161679999Y-67512001D01*
X153160000Y-67392000D02*
X153280001Y-67512001D01*
X155829000Y-75057000D02*
X159004004Y-75057000D01*
X148717000Y-109728000D02*
X167132000Y-91313000D01*
X146050000Y-109728000D02*
X148717000Y-109728000D01*
D17*
X152211717Y-62278377D02*
X152106324Y-62475553D01*
X152041423Y-62689501D01*
X152025000Y-62856248D01*
X152025000Y-63567751D01*
X152041423Y-63734498D01*
X152106324Y-63948446D01*
X152211716Y-64145623D01*
X152353551Y-64318449D01*
X152400000Y-64356569D01*
X152400001Y-65997431D01*
X152353552Y-66035551D01*
X152211717Y-66208377D01*
X152106324Y-66405553D01*
X152041423Y-66619501D01*
X152025000Y-66786248D01*
X152025000Y-67997751D01*
X152041423Y-68164498D01*
X152106324Y-68378446D01*
X152211716Y-68575623D01*
X152353551Y-68748449D01*
X152526377Y-68890284D01*
X152723553Y-68995676D01*
X152937501Y-69060577D01*
X153160000Y-69082491D01*
X153382498Y-69060577D01*
X153596446Y-68995676D01*
X153793623Y-68890284D01*
X153966449Y-68748449D01*
X154108284Y-68575623D01*
X154213676Y-68378447D01*
X154245966Y-68272001D01*
X160714034Y-68272001D01*
X160746324Y-68378446D01*
X160851716Y-68575623D01*
X160993551Y-68748449D01*
X161166377Y-68890284D01*
X161363553Y-68995676D01*
X161577501Y-69060577D01*
X161800000Y-69082491D01*
X162022498Y-69060577D01*
X162236446Y-68995676D01*
X162433623Y-68890284D01*
X162606449Y-68748449D01*
X162748284Y-68575623D01*
X162853676Y-68378447D01*
X162918577Y-68164499D01*
X162935000Y-67997752D01*
X162935000Y-66786248D01*
X162918577Y-66619501D01*
X162853676Y-66405553D01*
X162748284Y-66208377D01*
X162606449Y-66035551D01*
X162560000Y-65997431D01*
X162560000Y-64356569D01*
X162606449Y-64318449D01*
X162748284Y-64145623D01*
X162853676Y-63948447D01*
X162918577Y-63734499D01*
X162935000Y-63567752D01*
X162935000Y-62856249D01*
X162918577Y-62689502D01*
X162853676Y-62475554D01*
X162748284Y-62278377D01*
X162665907Y-62178000D01*
X169470001Y-62178000D01*
X169470000Y-95627928D01*
X168148000Y-95627928D01*
X168023518Y-95640188D01*
X167903820Y-95676498D01*
X167793506Y-95735463D01*
X167696815Y-95814815D01*
X167617463Y-95911506D01*
X167558498Y-96021820D01*
X167522188Y-96141518D01*
X167509928Y-96266000D01*
X167509928Y-97790000D01*
X167522188Y-97914482D01*
X167558498Y-98034180D01*
X167617463Y-98144494D01*
X167696815Y-98241185D01*
X167793506Y-98320537D01*
X167903820Y-98379502D01*
X168023518Y-98415812D01*
X168107465Y-98424080D01*
X168019465Y-98482880D01*
X167824880Y-98677465D01*
X167671995Y-98906273D01*
X167566686Y-99160510D01*
X167513000Y-99430408D01*
X167513000Y-99705592D01*
X167566686Y-99975490D01*
X167671995Y-100229727D01*
X167824880Y-100458535D01*
X168019465Y-100653120D01*
X168248273Y-100806005D01*
X168325515Y-100838000D01*
X168248273Y-100869995D01*
X168019465Y-101022880D01*
X167824880Y-101217465D01*
X167671995Y-101446273D01*
X167566686Y-101700510D01*
X167513000Y-101970408D01*
X167513000Y-102245592D01*
X167566686Y-102515490D01*
X167671995Y-102769727D01*
X167824880Y-102998535D01*
X168019465Y-103193120D01*
X168248273Y-103346005D01*
X168325515Y-103378000D01*
X168248273Y-103409995D01*
X168019465Y-103562880D01*
X167824880Y-103757465D01*
X167671995Y-103986273D01*
X167566686Y-104240510D01*
X167513000Y-104510408D01*
X167513000Y-104785592D01*
X167566686Y-105055490D01*
X167671995Y-105309727D01*
X167824880Y-105538535D01*
X168019465Y-105733120D01*
X168248273Y-105886005D01*
X168325515Y-105918000D01*
X168248273Y-105949995D01*
X168019465Y-106102880D01*
X167824880Y-106297465D01*
X167671995Y-106526273D01*
X167566686Y-106780510D01*
X167513000Y-107050408D01*
X167513000Y-107325592D01*
X167566686Y-107595490D01*
X167671995Y-107849727D01*
X167824880Y-108078535D01*
X168019465Y-108273120D01*
X168248273Y-108426005D01*
X168325515Y-108458000D01*
X168248273Y-108489995D01*
X168019465Y-108642880D01*
X167824880Y-108837465D01*
X167671995Y-109066273D01*
X167566686Y-109320510D01*
X167513000Y-109590408D01*
X167513000Y-109865592D01*
X167566686Y-110135490D01*
X167671995Y-110389727D01*
X167824880Y-110618535D01*
X168019465Y-110813120D01*
X168248273Y-110966005D01*
X168325515Y-110998000D01*
X168248273Y-111029995D01*
X168019465Y-111182880D01*
X167824880Y-111377465D01*
X167671995Y-111606273D01*
X167566686Y-111860510D01*
X167513000Y-112130408D01*
X167513000Y-112405592D01*
X167566686Y-112675490D01*
X167671995Y-112929727D01*
X167824880Y-113158535D01*
X168019465Y-113353120D01*
X168248273Y-113506005D01*
X168319943Y-113535692D01*
X168306977Y-113540364D01*
X168191020Y-113602344D01*
X168124040Y-113842435D01*
X168910000Y-114628395D01*
X168924143Y-114614253D01*
X169103748Y-114793858D01*
X169089605Y-114808000D01*
X169103748Y-114822143D01*
X168924143Y-115001748D01*
X168910000Y-114987605D01*
X168124040Y-115773565D01*
X168191020Y-116013656D01*
X168440048Y-116130756D01*
X168707135Y-116197023D01*
X168982017Y-116209910D01*
X169072714Y-116196249D01*
X167340762Y-117971500D01*
X145490000Y-117971500D01*
X145490000Y-116088413D01*
X145580048Y-116130756D01*
X145847135Y-116197023D01*
X146122017Y-116209910D01*
X146394133Y-116168922D01*
X146653023Y-116075636D01*
X146768980Y-116013656D01*
X146835960Y-115773565D01*
X146050000Y-114987605D01*
X146035858Y-115001748D01*
X145856253Y-114822143D01*
X145870395Y-114808000D01*
X146229605Y-114808000D01*
X147015565Y-115593960D01*
X147255656Y-115526980D01*
X147372756Y-115277952D01*
X147439023Y-115010865D01*
X147445157Y-114880017D01*
X167508090Y-114880017D01*
X167549078Y-115152133D01*
X167642364Y-115411023D01*
X167704344Y-115526980D01*
X167944435Y-115593960D01*
X168730395Y-114808000D01*
X167944435Y-114022040D01*
X167704344Y-114089020D01*
X167587244Y-114338048D01*
X167520977Y-114605135D01*
X167508090Y-114880017D01*
X147445157Y-114880017D01*
X147451910Y-114735983D01*
X147410922Y-114463867D01*
X147317636Y-114204977D01*
X147255656Y-114089020D01*
X147015565Y-114022040D01*
X146229605Y-114808000D01*
X145870395Y-114808000D01*
X145856253Y-114793858D01*
X146035858Y-114614253D01*
X146050000Y-114628395D01*
X146835960Y-113842435D01*
X146768980Y-113602344D01*
X146633240Y-113538515D01*
X146711727Y-113506005D01*
X146940535Y-113353120D01*
X147135120Y-113158535D01*
X147288005Y-112929727D01*
X147393314Y-112675490D01*
X147447000Y-112405592D01*
X147447000Y-112130408D01*
X147393314Y-111860510D01*
X147288005Y-111606273D01*
X147135120Y-111377465D01*
X146940535Y-111182880D01*
X146711727Y-111029995D01*
X146634485Y-110998000D01*
X146711727Y-110966005D01*
X146940535Y-110813120D01*
X147135120Y-110618535D01*
X147222341Y-110488000D01*
X148679678Y-110488000D01*
X148717000Y-110491676D01*
X148754322Y-110488000D01*
X148754333Y-110488000D01*
X148865986Y-110477003D01*
X149009247Y-110433546D01*
X149141276Y-110362974D01*
X149257001Y-110268001D01*
X149280804Y-110238997D01*
X167171802Y-92348000D01*
X167233939Y-92348000D01*
X167433898Y-92308226D01*
X167622256Y-92230205D01*
X167791774Y-92116937D01*
X167935937Y-91972774D01*
X168049205Y-91803256D01*
X168127226Y-91614898D01*
X168167000Y-91414939D01*
X168167000Y-91211061D01*
X168127226Y-91011102D01*
X168049205Y-90822744D01*
X167935937Y-90653226D01*
X167791774Y-90509063D01*
X167622256Y-90395795D01*
X167433898Y-90317774D01*
X167233939Y-90278000D01*
X167030061Y-90278000D01*
X166830102Y-90317774D01*
X166641744Y-90395795D01*
X166472226Y-90509063D01*
X166328063Y-90653226D01*
X166214795Y-90822744D01*
X166136774Y-91011102D01*
X166097000Y-91211061D01*
X166097000Y-91273198D01*
X148402199Y-108968000D01*
X147222341Y-108968000D01*
X147135120Y-108837465D01*
X146940535Y-108642880D01*
X146711727Y-108489995D01*
X146634485Y-108458000D01*
X146711727Y-108426005D01*
X146940535Y-108273120D01*
X147135120Y-108078535D01*
X147288005Y-107849727D01*
X147393314Y-107595490D01*
X147447000Y-107325592D01*
X147447000Y-107050408D01*
X147393314Y-106780510D01*
X147288005Y-106526273D01*
X147135120Y-106297465D01*
X146940535Y-106102880D01*
X146711727Y-105949995D01*
X146634485Y-105918000D01*
X146711727Y-105886005D01*
X146940535Y-105733120D01*
X147135120Y-105538535D01*
X147288005Y-105309727D01*
X147393314Y-105055490D01*
X147447000Y-104785592D01*
X147447000Y-104510408D01*
X147393314Y-104240510D01*
X147288005Y-103986273D01*
X147135120Y-103757465D01*
X146940535Y-103562880D01*
X146711727Y-103409995D01*
X146634485Y-103378000D01*
X146711727Y-103346005D01*
X146940535Y-103193120D01*
X147135120Y-102998535D01*
X147288005Y-102769727D01*
X147393314Y-102515490D01*
X147447000Y-102245592D01*
X147447000Y-101970408D01*
X147393314Y-101700510D01*
X147288005Y-101446273D01*
X147135120Y-101217465D01*
X146940535Y-101022880D01*
X146711727Y-100869995D01*
X146634485Y-100838000D01*
X146711727Y-100806005D01*
X146940535Y-100653120D01*
X147135120Y-100458535D01*
X147288005Y-100229727D01*
X147393314Y-99975490D01*
X147447000Y-99705592D01*
X147447000Y-99430408D01*
X147393314Y-99160510D01*
X147288005Y-98906273D01*
X147135120Y-98677465D01*
X146955317Y-98497662D01*
X147012682Y-98492012D01*
X147132380Y-98455702D01*
X147242694Y-98396737D01*
X147339385Y-98317385D01*
X147418737Y-98220694D01*
X147477702Y-98110380D01*
X147514012Y-97990682D01*
X147526272Y-97866200D01*
X147526272Y-96189800D01*
X147514012Y-96065318D01*
X147477702Y-95945620D01*
X147418737Y-95835306D01*
X147339385Y-95738615D01*
X147242694Y-95659263D01*
X147132380Y-95600298D01*
X147012682Y-95563988D01*
X146888200Y-95551728D01*
X145490000Y-95551728D01*
X145490000Y-74955061D01*
X154794000Y-74955061D01*
X154794000Y-75158939D01*
X154833774Y-75358898D01*
X154911795Y-75547256D01*
X155025063Y-75716774D01*
X155169226Y-75860937D01*
X155338744Y-75974205D01*
X155527102Y-76052226D01*
X155727061Y-76092000D01*
X155930939Y-76092000D01*
X156130898Y-76052226D01*
X156319256Y-75974205D01*
X156488774Y-75860937D01*
X156532711Y-75817000D01*
X158300293Y-75817000D01*
X158344230Y-75860937D01*
X158513748Y-75974205D01*
X158702106Y-76052226D01*
X158902065Y-76092000D01*
X159105943Y-76092000D01*
X159305902Y-76052226D01*
X159494260Y-75974205D01*
X159663778Y-75860937D01*
X159807941Y-75716774D01*
X159921209Y-75547256D01*
X159999230Y-75358898D01*
X160039004Y-75158939D01*
X160039004Y-74955061D01*
X159999230Y-74755102D01*
X159921209Y-74566744D01*
X159807941Y-74397226D01*
X159663778Y-74253063D01*
X159494260Y-74139795D01*
X159305902Y-74061774D01*
X159105943Y-74022000D01*
X158902065Y-74022000D01*
X158702106Y-74061774D01*
X158513748Y-74139795D01*
X158344230Y-74253063D01*
X158300293Y-74297000D01*
X156532711Y-74297000D01*
X156488774Y-74253063D01*
X156319256Y-74139795D01*
X156130898Y-74061774D01*
X155930939Y-74022000D01*
X155727061Y-74022000D01*
X155527102Y-74061774D01*
X155338744Y-74139795D01*
X155169226Y-74253063D01*
X155025063Y-74397226D01*
X154911795Y-74566744D01*
X154833774Y-74755102D01*
X154794000Y-74955061D01*
X145490000Y-74955061D01*
X145490000Y-62178000D01*
X152294094Y-62178000D01*
X152211717Y-62278377D01*
G04 #@! TA.AperFunction,Conductor*
D18*
G36*
X152211717Y-62278377D02*
G01*
X152106324Y-62475553D01*
X152041423Y-62689501D01*
X152025000Y-62856248D01*
X152025000Y-63567751D01*
X152041423Y-63734498D01*
X152106324Y-63948446D01*
X152211716Y-64145623D01*
X152353551Y-64318449D01*
X152400000Y-64356569D01*
X152400001Y-65997431D01*
X152353552Y-66035551D01*
X152211717Y-66208377D01*
X152106324Y-66405553D01*
X152041423Y-66619501D01*
X152025000Y-66786248D01*
X152025000Y-67997751D01*
X152041423Y-68164498D01*
X152106324Y-68378446D01*
X152211716Y-68575623D01*
X152353551Y-68748449D01*
X152526377Y-68890284D01*
X152723553Y-68995676D01*
X152937501Y-69060577D01*
X153160000Y-69082491D01*
X153382498Y-69060577D01*
X153596446Y-68995676D01*
X153793623Y-68890284D01*
X153966449Y-68748449D01*
X154108284Y-68575623D01*
X154213676Y-68378447D01*
X154245966Y-68272001D01*
X160714034Y-68272001D01*
X160746324Y-68378446D01*
X160851716Y-68575623D01*
X160993551Y-68748449D01*
X161166377Y-68890284D01*
X161363553Y-68995676D01*
X161577501Y-69060577D01*
X161800000Y-69082491D01*
X162022498Y-69060577D01*
X162236446Y-68995676D01*
X162433623Y-68890284D01*
X162606449Y-68748449D01*
X162748284Y-68575623D01*
X162853676Y-68378447D01*
X162918577Y-68164499D01*
X162935000Y-67997752D01*
X162935000Y-66786248D01*
X162918577Y-66619501D01*
X162853676Y-66405553D01*
X162748284Y-66208377D01*
X162606449Y-66035551D01*
X162560000Y-65997431D01*
X162560000Y-64356569D01*
X162606449Y-64318449D01*
X162748284Y-64145623D01*
X162853676Y-63948447D01*
X162918577Y-63734499D01*
X162935000Y-63567752D01*
X162935000Y-62856249D01*
X162918577Y-62689502D01*
X162853676Y-62475554D01*
X162748284Y-62278377D01*
X162665907Y-62178000D01*
X169470001Y-62178000D01*
X169470000Y-95627928D01*
X168148000Y-95627928D01*
X168023518Y-95640188D01*
X167903820Y-95676498D01*
X167793506Y-95735463D01*
X167696815Y-95814815D01*
X167617463Y-95911506D01*
X167558498Y-96021820D01*
X167522188Y-96141518D01*
X167509928Y-96266000D01*
X167509928Y-97790000D01*
X167522188Y-97914482D01*
X167558498Y-98034180D01*
X167617463Y-98144494D01*
X167696815Y-98241185D01*
X167793506Y-98320537D01*
X167903820Y-98379502D01*
X168023518Y-98415812D01*
X168107465Y-98424080D01*
X168019465Y-98482880D01*
X167824880Y-98677465D01*
X167671995Y-98906273D01*
X167566686Y-99160510D01*
X167513000Y-99430408D01*
X167513000Y-99705592D01*
X167566686Y-99975490D01*
X167671995Y-100229727D01*
X167824880Y-100458535D01*
X168019465Y-100653120D01*
X168248273Y-100806005D01*
X168325515Y-100838000D01*
X168248273Y-100869995D01*
X168019465Y-101022880D01*
X167824880Y-101217465D01*
X167671995Y-101446273D01*
X167566686Y-101700510D01*
X167513000Y-101970408D01*
X167513000Y-102245592D01*
X167566686Y-102515490D01*
X167671995Y-102769727D01*
X167824880Y-102998535D01*
X168019465Y-103193120D01*
X168248273Y-103346005D01*
X168325515Y-103378000D01*
X168248273Y-103409995D01*
X168019465Y-103562880D01*
X167824880Y-103757465D01*
X167671995Y-103986273D01*
X167566686Y-104240510D01*
X167513000Y-104510408D01*
X167513000Y-104785592D01*
X167566686Y-105055490D01*
X167671995Y-105309727D01*
X167824880Y-105538535D01*
X168019465Y-105733120D01*
X168248273Y-105886005D01*
X168325515Y-105918000D01*
X168248273Y-105949995D01*
X168019465Y-106102880D01*
X167824880Y-106297465D01*
X167671995Y-106526273D01*
X167566686Y-106780510D01*
X167513000Y-107050408D01*
X167513000Y-107325592D01*
X167566686Y-107595490D01*
X167671995Y-107849727D01*
X167824880Y-108078535D01*
X168019465Y-108273120D01*
X168248273Y-108426005D01*
X168325515Y-108458000D01*
X168248273Y-108489995D01*
X168019465Y-108642880D01*
X167824880Y-108837465D01*
X167671995Y-109066273D01*
X167566686Y-109320510D01*
X167513000Y-109590408D01*
X167513000Y-109865592D01*
X167566686Y-110135490D01*
X167671995Y-110389727D01*
X167824880Y-110618535D01*
X168019465Y-110813120D01*
X168248273Y-110966005D01*
X168325515Y-110998000D01*
X168248273Y-111029995D01*
X168019465Y-111182880D01*
X167824880Y-111377465D01*
X167671995Y-111606273D01*
X167566686Y-111860510D01*
X167513000Y-112130408D01*
X167513000Y-112405592D01*
X167566686Y-112675490D01*
X167671995Y-112929727D01*
X167824880Y-113158535D01*
X168019465Y-113353120D01*
X168248273Y-113506005D01*
X168319943Y-113535692D01*
X168306977Y-113540364D01*
X168191020Y-113602344D01*
X168124040Y-113842435D01*
X168910000Y-114628395D01*
X168924143Y-114614253D01*
X169103748Y-114793858D01*
X169089605Y-114808000D01*
X169103748Y-114822143D01*
X168924143Y-115001748D01*
X168910000Y-114987605D01*
X168124040Y-115773565D01*
X168191020Y-116013656D01*
X168440048Y-116130756D01*
X168707135Y-116197023D01*
X168982017Y-116209910D01*
X169072714Y-116196249D01*
X167340762Y-117971500D01*
X145490000Y-117971500D01*
X145490000Y-116088413D01*
X145580048Y-116130756D01*
X145847135Y-116197023D01*
X146122017Y-116209910D01*
X146394133Y-116168922D01*
X146653023Y-116075636D01*
X146768980Y-116013656D01*
X146835960Y-115773565D01*
X146050000Y-114987605D01*
X146035858Y-115001748D01*
X145856253Y-114822143D01*
X145870395Y-114808000D01*
X146229605Y-114808000D01*
X147015565Y-115593960D01*
X147255656Y-115526980D01*
X147372756Y-115277952D01*
X147439023Y-115010865D01*
X147445157Y-114880017D01*
X167508090Y-114880017D01*
X167549078Y-115152133D01*
X167642364Y-115411023D01*
X167704344Y-115526980D01*
X167944435Y-115593960D01*
X168730395Y-114808000D01*
X167944435Y-114022040D01*
X167704344Y-114089020D01*
X167587244Y-114338048D01*
X167520977Y-114605135D01*
X167508090Y-114880017D01*
X147445157Y-114880017D01*
X147451910Y-114735983D01*
X147410922Y-114463867D01*
X147317636Y-114204977D01*
X147255656Y-114089020D01*
X147015565Y-114022040D01*
X146229605Y-114808000D01*
X145870395Y-114808000D01*
X145856253Y-114793858D01*
X146035858Y-114614253D01*
X146050000Y-114628395D01*
X146835960Y-113842435D01*
X146768980Y-113602344D01*
X146633240Y-113538515D01*
X146711727Y-113506005D01*
X146940535Y-113353120D01*
X147135120Y-113158535D01*
X147288005Y-112929727D01*
X147393314Y-112675490D01*
X147447000Y-112405592D01*
X147447000Y-112130408D01*
X147393314Y-111860510D01*
X147288005Y-111606273D01*
X147135120Y-111377465D01*
X146940535Y-111182880D01*
X146711727Y-111029995D01*
X146634485Y-110998000D01*
X146711727Y-110966005D01*
X146940535Y-110813120D01*
X147135120Y-110618535D01*
X147222341Y-110488000D01*
X148679678Y-110488000D01*
X148717000Y-110491676D01*
X148754322Y-110488000D01*
X148754333Y-110488000D01*
X148865986Y-110477003D01*
X149009247Y-110433546D01*
X149141276Y-110362974D01*
X149257001Y-110268001D01*
X149280804Y-110238997D01*
X167171802Y-92348000D01*
X167233939Y-92348000D01*
X167433898Y-92308226D01*
X167622256Y-92230205D01*
X167791774Y-92116937D01*
X167935937Y-91972774D01*
X168049205Y-91803256D01*
X168127226Y-91614898D01*
X168167000Y-91414939D01*
X168167000Y-91211061D01*
X168127226Y-91011102D01*
X168049205Y-90822744D01*
X167935937Y-90653226D01*
X167791774Y-90509063D01*
X167622256Y-90395795D01*
X167433898Y-90317774D01*
X167233939Y-90278000D01*
X167030061Y-90278000D01*
X166830102Y-90317774D01*
X166641744Y-90395795D01*
X166472226Y-90509063D01*
X166328063Y-90653226D01*
X166214795Y-90822744D01*
X166136774Y-91011102D01*
X166097000Y-91211061D01*
X166097000Y-91273198D01*
X148402199Y-108968000D01*
X147222341Y-108968000D01*
X147135120Y-108837465D01*
X146940535Y-108642880D01*
X146711727Y-108489995D01*
X146634485Y-108458000D01*
X146711727Y-108426005D01*
X146940535Y-108273120D01*
X147135120Y-108078535D01*
X147288005Y-107849727D01*
X147393314Y-107595490D01*
X147447000Y-107325592D01*
X147447000Y-107050408D01*
X147393314Y-106780510D01*
X147288005Y-106526273D01*
X147135120Y-106297465D01*
X146940535Y-106102880D01*
X146711727Y-105949995D01*
X146634485Y-105918000D01*
X146711727Y-105886005D01*
X146940535Y-105733120D01*
X147135120Y-105538535D01*
X147288005Y-105309727D01*
X147393314Y-105055490D01*
X147447000Y-104785592D01*
X147447000Y-104510408D01*
X147393314Y-104240510D01*
X147288005Y-103986273D01*
X147135120Y-103757465D01*
X146940535Y-103562880D01*
X146711727Y-103409995D01*
X146634485Y-103378000D01*
X146711727Y-103346005D01*
X146940535Y-103193120D01*
X147135120Y-102998535D01*
X147288005Y-102769727D01*
X147393314Y-102515490D01*
X147447000Y-102245592D01*
X147447000Y-101970408D01*
X147393314Y-101700510D01*
X147288005Y-101446273D01*
X147135120Y-101217465D01*
X146940535Y-101022880D01*
X146711727Y-100869995D01*
X146634485Y-100838000D01*
X146711727Y-100806005D01*
X146940535Y-100653120D01*
X147135120Y-100458535D01*
X147288005Y-100229727D01*
X147393314Y-99975490D01*
X147447000Y-99705592D01*
X147447000Y-99430408D01*
X147393314Y-99160510D01*
X147288005Y-98906273D01*
X147135120Y-98677465D01*
X146955317Y-98497662D01*
X147012682Y-98492012D01*
X147132380Y-98455702D01*
X147242694Y-98396737D01*
X147339385Y-98317385D01*
X147418737Y-98220694D01*
X147477702Y-98110380D01*
X147514012Y-97990682D01*
X147526272Y-97866200D01*
X147526272Y-96189800D01*
X147514012Y-96065318D01*
X147477702Y-95945620D01*
X147418737Y-95835306D01*
X147339385Y-95738615D01*
X147242694Y-95659263D01*
X147132380Y-95600298D01*
X147012682Y-95563988D01*
X146888200Y-95551728D01*
X145490000Y-95551728D01*
X145490000Y-74955061D01*
X154794000Y-74955061D01*
X154794000Y-75158939D01*
X154833774Y-75358898D01*
X154911795Y-75547256D01*
X155025063Y-75716774D01*
X155169226Y-75860937D01*
X155338744Y-75974205D01*
X155527102Y-76052226D01*
X155727061Y-76092000D01*
X155930939Y-76092000D01*
X156130898Y-76052226D01*
X156319256Y-75974205D01*
X156488774Y-75860937D01*
X156532711Y-75817000D01*
X158300293Y-75817000D01*
X158344230Y-75860937D01*
X158513748Y-75974205D01*
X158702106Y-76052226D01*
X158902065Y-76092000D01*
X159105943Y-76092000D01*
X159305902Y-76052226D01*
X159494260Y-75974205D01*
X159663778Y-75860937D01*
X159807941Y-75716774D01*
X159921209Y-75547256D01*
X159999230Y-75358898D01*
X160039004Y-75158939D01*
X160039004Y-74955061D01*
X159999230Y-74755102D01*
X159921209Y-74566744D01*
X159807941Y-74397226D01*
X159663778Y-74253063D01*
X159494260Y-74139795D01*
X159305902Y-74061774D01*
X159105943Y-74022000D01*
X158902065Y-74022000D01*
X158702106Y-74061774D01*
X158513748Y-74139795D01*
X158344230Y-74253063D01*
X158300293Y-74297000D01*
X156532711Y-74297000D01*
X156488774Y-74253063D01*
X156319256Y-74139795D01*
X156130898Y-74061774D01*
X155930939Y-74022000D01*
X155727061Y-74022000D01*
X155527102Y-74061774D01*
X155338744Y-74139795D01*
X155169226Y-74253063D01*
X155025063Y-74397226D01*
X154911795Y-74566744D01*
X154833774Y-74755102D01*
X154794000Y-74955061D01*
X145490000Y-74955061D01*
X145490000Y-62178000D01*
X152294094Y-62178000D01*
X152211717Y-62278377D01*
G37*
G04 #@! TD.AperFunction*
M02*
