G04 #@! TF.GenerationSoftware,KiCad,Pcbnew,(5.1.9-0-10_14)*
G04 #@! TF.CreationDate,2021-03-02T20:08:02+08:00*
G04 #@! TF.ProjectId,mikroBUS-L,6d696b72-6f42-4555-932d-4c2e6b696361,rev?*
G04 #@! TF.SameCoordinates,Original*
G04 #@! TF.FileFunction,Copper,L1,Top*
G04 #@! TF.FilePolarity,Positive*
%FSLAX46Y46*%
G04 Gerber Fmt 4.6, Leading zero omitted, Abs format (unit mm)*
G04 Created by KiCad (PCBNEW (5.1.9-0-10_14)) date 2021-03-02 20:08:02*
%MOMM*%
%LPD*%
G01*
G04 APERTURE LIST*
G04 #@! TA.AperFunction,SMDPad,CuDef*
%ADD10R,2.500000X1.800000*%
G04 #@! TD*
G04 #@! TA.AperFunction,SMDPad,CuDef*
%ADD11R,1.800000X2.500000*%
G04 #@! TD*
G04 #@! TA.AperFunction,SMDPad,CuDef*
%ADD12R,0.600000X1.450000*%
G04 #@! TD*
G04 #@! TA.AperFunction,SMDPad,CuDef*
%ADD13R,0.300000X1.450000*%
G04 #@! TD*
G04 #@! TA.AperFunction,ComponentPad*
%ADD14O,1.000000X2.100000*%
G04 #@! TD*
G04 #@! TA.AperFunction,ComponentPad*
%ADD15O,1.000000X1.600000*%
G04 #@! TD*
G04 #@! TA.AperFunction,SMDPad,CuDef*
%ADD16R,1.500000X1.000000*%
G04 #@! TD*
G04 #@! TA.AperFunction,ComponentPad*
%ADD17R,1.676400X1.676400*%
G04 #@! TD*
G04 #@! TA.AperFunction,ComponentPad*
%ADD18C,1.524000*%
G04 #@! TD*
G04 #@! TA.AperFunction,ComponentPad*
%ADD19R,1.524000X1.524000*%
G04 #@! TD*
G04 #@! TA.AperFunction,ViaPad*
%ADD20C,0.800000*%
G04 #@! TD*
G04 #@! TA.AperFunction,Conductor*
%ADD21C,0.250000*%
G04 #@! TD*
G04 #@! TA.AperFunction,Conductor*
%ADD22C,0.762000*%
G04 #@! TD*
G04 #@! TA.AperFunction,Conductor*
%ADD23C,0.508000*%
G04 #@! TD*
G04 #@! TA.AperFunction,Conductor*
%ADD24C,0.254000*%
G04 #@! TD*
G04 #@! TA.AperFunction,Conductor*
%ADD25C,0.100000*%
G04 #@! TD*
G04 APERTURE END LIST*
G04 #@! TA.AperFunction,SMDPad,CuDef*
G36*
G01*
X168672500Y-91484000D02*
X169147500Y-91484000D01*
G75*
G02*
X169385000Y-91721500I0J-237500D01*
G01*
X169385000Y-92221500D01*
G75*
G02*
X169147500Y-92459000I-237500J0D01*
G01*
X168672500Y-92459000D01*
G75*
G02*
X168435000Y-92221500I0J237500D01*
G01*
X168435000Y-91721500D01*
G75*
G02*
X168672500Y-91484000I237500J0D01*
G01*
G37*
G04 #@! TD.AperFunction*
G04 #@! TA.AperFunction,SMDPad,CuDef*
G36*
G01*
X168672500Y-89659000D02*
X169147500Y-89659000D01*
G75*
G02*
X169385000Y-89896500I0J-237500D01*
G01*
X169385000Y-90396500D01*
G75*
G02*
X169147500Y-90634000I-237500J0D01*
G01*
X168672500Y-90634000D01*
G75*
G02*
X168435000Y-90396500I0J237500D01*
G01*
X168435000Y-89896500D01*
G75*
G02*
X168672500Y-89659000I237500J0D01*
G01*
G37*
G04 #@! TD.AperFunction*
G04 #@! TA.AperFunction,SMDPad,CuDef*
G36*
G01*
X169147500Y-92539000D02*
X168672500Y-92539000D01*
G75*
G02*
X168435000Y-92301500I0J237500D01*
G01*
X168435000Y-91801500D01*
G75*
G02*
X168672500Y-91564000I237500J0D01*
G01*
X169147500Y-91564000D01*
G75*
G02*
X169385000Y-91801500I0J-237500D01*
G01*
X169385000Y-92301500D01*
G75*
G02*
X169147500Y-92539000I-237500J0D01*
G01*
G37*
G04 #@! TD.AperFunction*
G04 #@! TA.AperFunction,SMDPad,CuDef*
G36*
G01*
X169147500Y-94364000D02*
X168672500Y-94364000D01*
G75*
G02*
X168435000Y-94126500I0J237500D01*
G01*
X168435000Y-93626500D01*
G75*
G02*
X168672500Y-93389000I237500J0D01*
G01*
X169147500Y-93389000D01*
G75*
G02*
X169385000Y-93626500I0J-237500D01*
G01*
X169385000Y-94126500D01*
G75*
G02*
X169147500Y-94364000I-237500J0D01*
G01*
G37*
G04 #@! TD.AperFunction*
D10*
X164179000Y-107442000D03*
X160179000Y-107442000D03*
G04 #@! TA.AperFunction,SMDPad,CuDef*
G36*
G01*
X149689000Y-64913500D02*
X149689000Y-65388500D01*
G75*
G02*
X149451500Y-65626000I-237500J0D01*
G01*
X148951500Y-65626000D01*
G75*
G02*
X148714000Y-65388500I0J237500D01*
G01*
X148714000Y-64913500D01*
G75*
G02*
X148951500Y-64676000I237500J0D01*
G01*
X149451500Y-64676000D01*
G75*
G02*
X149689000Y-64913500I0J-237500D01*
G01*
G37*
G04 #@! TD.AperFunction*
G04 #@! TA.AperFunction,SMDPad,CuDef*
G36*
G01*
X151514000Y-64913500D02*
X151514000Y-65388500D01*
G75*
G02*
X151276500Y-65626000I-237500J0D01*
G01*
X150776500Y-65626000D01*
G75*
G02*
X150539000Y-65388500I0J237500D01*
G01*
X150539000Y-64913500D01*
G75*
G02*
X150776500Y-64676000I237500J0D01*
G01*
X151276500Y-64676000D01*
G75*
G02*
X151514000Y-64913500I0J-237500D01*
G01*
G37*
G04 #@! TD.AperFunction*
G04 #@! TA.AperFunction,SMDPad,CuDef*
G36*
G01*
X149689000Y-62881500D02*
X149689000Y-63356500D01*
G75*
G02*
X149451500Y-63594000I-237500J0D01*
G01*
X148951500Y-63594000D01*
G75*
G02*
X148714000Y-63356500I0J237500D01*
G01*
X148714000Y-62881500D01*
G75*
G02*
X148951500Y-62644000I237500J0D01*
G01*
X149451500Y-62644000D01*
G75*
G02*
X149689000Y-62881500I0J-237500D01*
G01*
G37*
G04 #@! TD.AperFunction*
G04 #@! TA.AperFunction,SMDPad,CuDef*
G36*
G01*
X151514000Y-62881500D02*
X151514000Y-63356500D01*
G75*
G02*
X151276500Y-63594000I-237500J0D01*
G01*
X150776500Y-63594000D01*
G75*
G02*
X150539000Y-63356500I0J237500D01*
G01*
X150539000Y-62881500D01*
G75*
G02*
X150776500Y-62644000I237500J0D01*
G01*
X151276500Y-62644000D01*
G75*
G02*
X151514000Y-62881500I0J-237500D01*
G01*
G37*
G04 #@! TD.AperFunction*
D11*
X165862000Y-63913000D03*
X165862000Y-67913000D03*
G04 #@! TA.AperFunction,SMDPad,CuDef*
G36*
G01*
X148860500Y-68497000D02*
X149335500Y-68497000D01*
G75*
G02*
X149573000Y-68734500I0J-237500D01*
G01*
X149573000Y-69234500D01*
G75*
G02*
X149335500Y-69472000I-237500J0D01*
G01*
X148860500Y-69472000D01*
G75*
G02*
X148623000Y-69234500I0J237500D01*
G01*
X148623000Y-68734500D01*
G75*
G02*
X148860500Y-68497000I237500J0D01*
G01*
G37*
G04 #@! TD.AperFunction*
G04 #@! TA.AperFunction,SMDPad,CuDef*
G36*
G01*
X148860500Y-66672000D02*
X149335500Y-66672000D01*
G75*
G02*
X149573000Y-66909500I0J-237500D01*
G01*
X149573000Y-67409500D01*
G75*
G02*
X149335500Y-67647000I-237500J0D01*
G01*
X148860500Y-67647000D01*
G75*
G02*
X148623000Y-67409500I0J237500D01*
G01*
X148623000Y-66909500D01*
G75*
G02*
X148860500Y-66672000I237500J0D01*
G01*
G37*
G04 #@! TD.AperFunction*
D12*
X154230000Y-68307000D03*
X155030000Y-68307000D03*
X159930000Y-68307000D03*
X160730000Y-68307000D03*
X160730000Y-68307000D03*
X159930000Y-68307000D03*
X155030000Y-68307000D03*
X154230000Y-68307000D03*
D13*
X159230000Y-68307000D03*
X158730000Y-68307000D03*
X158230000Y-68307000D03*
X157230000Y-68307000D03*
X156730000Y-68307000D03*
X156230000Y-68307000D03*
X155730000Y-68307000D03*
X157730000Y-68307000D03*
D14*
X153160000Y-67392000D03*
X161800000Y-67392000D03*
D15*
X161800000Y-63212000D03*
X153160000Y-63212000D03*
D16*
X150077000Y-97476001D03*
X150077000Y-100676001D03*
X154977000Y-97476001D03*
X154977000Y-100676001D03*
X159602000Y-73457000D03*
X159602000Y-76657000D03*
X164502000Y-73457000D03*
X164502000Y-76657000D03*
X150077000Y-89469666D03*
X150077000Y-92669666D03*
X154977000Y-89469666D03*
X154977000Y-92669666D03*
X159602000Y-81463333D03*
X159602000Y-84663333D03*
X164502000Y-81463333D03*
X164502000Y-84663333D03*
X150077000Y-81463333D03*
X150077000Y-84663333D03*
X154977000Y-81463333D03*
X154977000Y-84663333D03*
X159602000Y-89469666D03*
X159602000Y-92669666D03*
X164502000Y-89469666D03*
X164502000Y-92669666D03*
X150077000Y-73457000D03*
X150077000Y-76657000D03*
X154977000Y-73457000D03*
X154977000Y-76657000D03*
X159602000Y-97476001D03*
X159602000Y-100676001D03*
X164502000Y-97476001D03*
X164502000Y-100676001D03*
G04 #@! TA.AperFunction,SMDPad,CuDef*
G36*
G01*
X150638500Y-68422000D02*
X151113500Y-68422000D01*
G75*
G02*
X151351000Y-68659500I0J-237500D01*
G01*
X151351000Y-69234500D01*
G75*
G02*
X151113500Y-69472000I-237500J0D01*
G01*
X150638500Y-69472000D01*
G75*
G02*
X150401000Y-69234500I0J237500D01*
G01*
X150401000Y-68659500D01*
G75*
G02*
X150638500Y-68422000I237500J0D01*
G01*
G37*
G04 #@! TD.AperFunction*
G04 #@! TA.AperFunction,SMDPad,CuDef*
G36*
G01*
X150638500Y-66672000D02*
X151113500Y-66672000D01*
G75*
G02*
X151351000Y-66909500I0J-237500D01*
G01*
X151351000Y-67484500D01*
G75*
G02*
X151113500Y-67722000I-237500J0D01*
G01*
X150638500Y-67722000D01*
G75*
G02*
X150401000Y-67484500I0J237500D01*
G01*
X150401000Y-66909500D01*
G75*
G02*
X150638500Y-66672000I237500J0D01*
G01*
G37*
G04 #@! TD.AperFunction*
D17*
X146050000Y-97028000D03*
D18*
X146050000Y-99568000D03*
X146050000Y-102108000D03*
X146050000Y-104648000D03*
X146050000Y-107188000D03*
X146050000Y-109728000D03*
X146050000Y-112268000D03*
X146050000Y-114808000D03*
X168910000Y-114808000D03*
X168910000Y-112268000D03*
X168910000Y-109728000D03*
X168910000Y-107188000D03*
X168910000Y-104648000D03*
X168910000Y-102108000D03*
X168910000Y-99568000D03*
D19*
X168910000Y-97028000D03*
D20*
X160147000Y-79121000D03*
X160147000Y-86995000D03*
X161417000Y-69596000D03*
X155829000Y-75057000D03*
X159004004Y-75057000D03*
X167132000Y-91313000D03*
D21*
X153590000Y-68947000D02*
X150876000Y-68947000D01*
X154230000Y-68307000D02*
X153590000Y-68947000D01*
X160730000Y-68307000D02*
X160730000Y-68909000D01*
X160730000Y-68909000D02*
X161417000Y-69596000D01*
D22*
X168910000Y-112173000D02*
X164179000Y-107442000D01*
X168910000Y-112268000D02*
X168910000Y-112173000D01*
D21*
X149330500Y-67392000D02*
X149098000Y-67159500D01*
X150838500Y-67159500D02*
X150876000Y-67197000D01*
X149098000Y-67159500D02*
X150838500Y-67159500D01*
X152965000Y-67197000D02*
X153160000Y-67392000D01*
X150876000Y-67197000D02*
X152965000Y-67197000D01*
X168910000Y-97028000D02*
X168910000Y-93876500D01*
D22*
X157734000Y-99344001D02*
X159602000Y-97476001D01*
X157734000Y-104997000D02*
X157734000Y-99344001D01*
X160179000Y-107442000D02*
X157734000Y-104997000D01*
X157734000Y-91337666D02*
X157734000Y-99344001D01*
X159602000Y-89469666D02*
X157734000Y-91337666D01*
X157734000Y-83331333D02*
X157734000Y-91337666D01*
X159602000Y-81463333D02*
X157734000Y-83331333D01*
X157734000Y-73813000D02*
X157734000Y-83331333D01*
X158090000Y-73457000D02*
X157734000Y-73813000D01*
X159602000Y-73457000D02*
X158090000Y-73457000D01*
X148745999Y-105311999D02*
X148745999Y-98807002D01*
X148745999Y-98807002D02*
X150077000Y-97476001D01*
X150876000Y-107442000D02*
X148745999Y-105311999D01*
X160179000Y-107442000D02*
X150876000Y-107442000D01*
X148745999Y-90800667D02*
X148745999Y-98807002D01*
X150077000Y-89469666D02*
X148745999Y-90800667D01*
X148745999Y-82794334D02*
X148745999Y-90800667D01*
X150077000Y-81463333D02*
X148745999Y-82794334D01*
X148745999Y-74788001D02*
X148745999Y-82794334D01*
X150077000Y-73457000D02*
X148745999Y-74788001D01*
X161239000Y-73457000D02*
X159602000Y-73457000D01*
X165862000Y-68834000D02*
X161239000Y-73457000D01*
X165862000Y-67913000D02*
X165862000Y-68834000D01*
D23*
X159930000Y-69686000D02*
X159930000Y-68307000D01*
X159385000Y-70231000D02*
X159930000Y-69686000D01*
X155575000Y-70231000D02*
X159385000Y-70231000D01*
X155030000Y-69686000D02*
X155575000Y-70231000D01*
X155030000Y-68307000D02*
X155030000Y-69686000D01*
X164814000Y-63913000D02*
X165862000Y-63913000D01*
X163703000Y-65024000D02*
X164814000Y-63913000D01*
X163703000Y-69215000D02*
X163703000Y-65024000D01*
X160528000Y-70612000D02*
X162306000Y-70612000D01*
X159930000Y-70014000D02*
X160528000Y-70612000D01*
X162306000Y-70612000D02*
X163703000Y-69215000D01*
X159930000Y-68307000D02*
X159930000Y-70014000D01*
D21*
X162306000Y-91665666D02*
X164502000Y-89469666D01*
X162306000Y-97972001D02*
X162306000Y-91665666D01*
X159602000Y-100676001D02*
X162306000Y-97972001D01*
X150170667Y-76657000D02*
X154977000Y-81463333D01*
X150077000Y-76657000D02*
X150170667Y-76657000D01*
X154977000Y-73457000D02*
X154977000Y-74205000D01*
X154977000Y-74205000D02*
X155829000Y-75057000D01*
X159602000Y-76657000D02*
X159602000Y-75654996D01*
X159602000Y-75654996D02*
X159004004Y-75057000D01*
X162052000Y-89469666D02*
X162052000Y-83913333D01*
X162052000Y-83913333D02*
X164502000Y-81463333D01*
X159602000Y-91919666D02*
X162052000Y-89469666D01*
X159602000Y-92669666D02*
X159602000Y-91919666D01*
X150170667Y-84663333D02*
X154977000Y-89469666D01*
X150077000Y-84663333D02*
X150170667Y-84663333D01*
X162179000Y-75780000D02*
X164502000Y-73457000D01*
X162179000Y-82086333D02*
X162179000Y-75780000D01*
X159602000Y-84663333D02*
X162179000Y-82086333D01*
X150170665Y-92669666D02*
X154977000Y-97476001D01*
X150077000Y-92669666D02*
X150170665Y-92669666D01*
X155733992Y-64350990D02*
X152258490Y-64350990D01*
X158730000Y-67346998D02*
X155733992Y-64350990D01*
X152258490Y-64350990D02*
X151026500Y-63119000D01*
X158730000Y-68307000D02*
X158730000Y-67346998D01*
X153841002Y-65151000D02*
X151026500Y-65151000D01*
X155730000Y-67039998D02*
X153841002Y-65151000D01*
X155730000Y-68307000D02*
X155730000Y-67039998D01*
X168298500Y-90146500D02*
X168910000Y-90146500D01*
X167132000Y-91313000D02*
X168298500Y-90146500D01*
X164502000Y-96459500D02*
X164502000Y-97476001D01*
X168910000Y-92051500D02*
X164502000Y-96459500D01*
D24*
X148262815Y-62192815D02*
X148183463Y-62289506D01*
X148124498Y-62399820D01*
X148088188Y-62519518D01*
X148075928Y-62644000D01*
X148079000Y-62833250D01*
X148237750Y-62992000D01*
X149074500Y-62992000D01*
X149074500Y-62972000D01*
X149328500Y-62972000D01*
X149328500Y-62992000D01*
X149348500Y-62992000D01*
X149348500Y-63246000D01*
X149328500Y-63246000D01*
X149328500Y-64070250D01*
X149393250Y-64135000D01*
X149328500Y-64199750D01*
X149328500Y-65024000D01*
X149348500Y-65024000D01*
X149348500Y-65278000D01*
X149328500Y-65278000D01*
X149328500Y-65298000D01*
X149074500Y-65298000D01*
X149074500Y-65278000D01*
X148237750Y-65278000D01*
X148079000Y-65436750D01*
X148075928Y-65626000D01*
X148088188Y-65750482D01*
X148124498Y-65870180D01*
X148183463Y-65980494D01*
X148262815Y-66077185D01*
X148359506Y-66156537D01*
X148390122Y-66172902D01*
X148374058Y-66181488D01*
X148241377Y-66290377D01*
X148132488Y-66423058D01*
X148051577Y-66574433D01*
X148001752Y-66738684D01*
X147984928Y-66909500D01*
X147984928Y-67409500D01*
X148001752Y-67580316D01*
X148051577Y-67744567D01*
X148132488Y-67895942D01*
X148221812Y-68004783D01*
X148171815Y-68045815D01*
X148092463Y-68142506D01*
X148033498Y-68252820D01*
X147997188Y-68372518D01*
X147984928Y-68497000D01*
X147988000Y-68698750D01*
X148146750Y-68857500D01*
X148971000Y-68857500D01*
X148971000Y-68837500D01*
X149225000Y-68837500D01*
X149225000Y-68857500D01*
X150049250Y-68857500D01*
X150086750Y-68820000D01*
X150749000Y-68820000D01*
X150749000Y-68800000D01*
X151003000Y-68800000D01*
X151003000Y-68820000D01*
X151827250Y-68820000D01*
X151986000Y-68661250D01*
X151989072Y-68422000D01*
X151976812Y-68297518D01*
X151940502Y-68177820D01*
X151881537Y-68067506D01*
X151821901Y-67994839D01*
X151841512Y-67970942D01*
X151848964Y-67957000D01*
X152025000Y-67957000D01*
X152025000Y-67997751D01*
X152041423Y-68164498D01*
X152106324Y-68378446D01*
X152211716Y-68575623D01*
X152353551Y-68748449D01*
X152526377Y-68890284D01*
X152723553Y-68995676D01*
X152937501Y-69060577D01*
X153160000Y-69082491D01*
X153295586Y-69069137D01*
X153304188Y-69156482D01*
X153340498Y-69276180D01*
X153399463Y-69386494D01*
X153478815Y-69483185D01*
X153575506Y-69562537D01*
X153685820Y-69621502D01*
X153805518Y-69657812D01*
X153930000Y-69670072D01*
X153944250Y-69667000D01*
X154102998Y-69508252D01*
X154102998Y-69667000D01*
X154138571Y-69667000D01*
X154136700Y-69686000D01*
X154153864Y-69860274D01*
X154204698Y-70027852D01*
X154287248Y-70182291D01*
X154359351Y-70270148D01*
X154398342Y-70317659D01*
X154432260Y-70345495D01*
X154915497Y-70828731D01*
X154943341Y-70862659D01*
X155078709Y-70973753D01*
X155233149Y-71056303D01*
X155299058Y-71076296D01*
X155400724Y-71107136D01*
X155433924Y-71110406D01*
X155531333Y-71120000D01*
X155531339Y-71120000D01*
X155574999Y-71124300D01*
X155618659Y-71120000D01*
X159341340Y-71120000D01*
X159385000Y-71124300D01*
X159428660Y-71120000D01*
X159428667Y-71120000D01*
X159559274Y-71107136D01*
X159717810Y-71059046D01*
X159868505Y-71209741D01*
X159896341Y-71243659D01*
X160031709Y-71354753D01*
X160186149Y-71437303D01*
X160302892Y-71472716D01*
X160353725Y-71488136D01*
X160370325Y-71489771D01*
X160484333Y-71501000D01*
X160484340Y-71501000D01*
X160528000Y-71505300D01*
X160571660Y-71501000D01*
X161758160Y-71501000D01*
X160818160Y-72441000D01*
X160724207Y-72441000D01*
X160706494Y-72426463D01*
X160596180Y-72367498D01*
X160476482Y-72331188D01*
X160352000Y-72318928D01*
X158852000Y-72318928D01*
X158727518Y-72331188D01*
X158607820Y-72367498D01*
X158497506Y-72426463D01*
X158479793Y-72441000D01*
X158139901Y-72441000D01*
X158089999Y-72436085D01*
X157890829Y-72455702D01*
X157699313Y-72513798D01*
X157522810Y-72608140D01*
X157368104Y-72735104D01*
X157336287Y-72773873D01*
X157050873Y-73059287D01*
X157012104Y-73091104D01*
X156885140Y-73245810D01*
X156790798Y-73422314D01*
X156780276Y-73457001D01*
X156732702Y-73613830D01*
X156713085Y-73813000D01*
X156718000Y-73862902D01*
X156718000Y-74524532D01*
X156632937Y-74397226D01*
X156488774Y-74253063D01*
X156332449Y-74148610D01*
X156352812Y-74081482D01*
X156365072Y-73957000D01*
X156365072Y-72957000D01*
X156352812Y-72832518D01*
X156316502Y-72712820D01*
X156257537Y-72602506D01*
X156178185Y-72505815D01*
X156081494Y-72426463D01*
X155971180Y-72367498D01*
X155851482Y-72331188D01*
X155727000Y-72318928D01*
X154227000Y-72318928D01*
X154102518Y-72331188D01*
X153982820Y-72367498D01*
X153872506Y-72426463D01*
X153775815Y-72505815D01*
X153696463Y-72602506D01*
X153637498Y-72712820D01*
X153601188Y-72832518D01*
X153588928Y-72957000D01*
X153588928Y-73957000D01*
X153601188Y-74081482D01*
X153637498Y-74201180D01*
X153696463Y-74311494D01*
X153775815Y-74408185D01*
X153872506Y-74487537D01*
X153982820Y-74546502D01*
X154102518Y-74582812D01*
X154227000Y-74595072D01*
X154323743Y-74595072D01*
X154342026Y-74629276D01*
X154413201Y-74716002D01*
X154437000Y-74745001D01*
X154465998Y-74768799D01*
X154794000Y-75096801D01*
X154794000Y-75158939D01*
X154833774Y-75358898D01*
X154901334Y-75522000D01*
X154849998Y-75522000D01*
X154849998Y-75680748D01*
X154691250Y-75522000D01*
X154227000Y-75518928D01*
X154102518Y-75531188D01*
X153982820Y-75567498D01*
X153872506Y-75626463D01*
X153775815Y-75705815D01*
X153696463Y-75802506D01*
X153637498Y-75912820D01*
X153601188Y-76032518D01*
X153588928Y-76157000D01*
X153592000Y-76371250D01*
X153750750Y-76530000D01*
X154850000Y-76530000D01*
X154850000Y-76510000D01*
X155104000Y-76510000D01*
X155104000Y-76530000D01*
X156203250Y-76530000D01*
X156362000Y-76371250D01*
X156365072Y-76157000D01*
X156352812Y-76032518D01*
X156332449Y-75965390D01*
X156488774Y-75860937D01*
X156632937Y-75716774D01*
X156718000Y-75589468D01*
X156718001Y-83281421D01*
X156713085Y-83331333D01*
X156718000Y-83381235D01*
X156718001Y-91287754D01*
X156713085Y-91337666D01*
X156718000Y-91387568D01*
X156718001Y-99294089D01*
X156713085Y-99344001D01*
X156718001Y-99393913D01*
X156718000Y-104947098D01*
X156713085Y-104997000D01*
X156718000Y-105046901D01*
X156732702Y-105196170D01*
X156790798Y-105387686D01*
X156885140Y-105564190D01*
X157012104Y-105718896D01*
X157050872Y-105750712D01*
X157726160Y-106426000D01*
X151296841Y-106426000D01*
X149761999Y-104891159D01*
X149761999Y-101814073D01*
X150827000Y-101814073D01*
X150951482Y-101801813D01*
X151071180Y-101765503D01*
X151181494Y-101706538D01*
X151278185Y-101627186D01*
X151357537Y-101530495D01*
X151416502Y-101420181D01*
X151452812Y-101300483D01*
X151465072Y-101176001D01*
X153588928Y-101176001D01*
X153601188Y-101300483D01*
X153637498Y-101420181D01*
X153696463Y-101530495D01*
X153775815Y-101627186D01*
X153872506Y-101706538D01*
X153982820Y-101765503D01*
X154102518Y-101801813D01*
X154227000Y-101814073D01*
X154691250Y-101811001D01*
X154850000Y-101652251D01*
X154850000Y-100803001D01*
X155104000Y-100803001D01*
X155104000Y-101652251D01*
X155262750Y-101811001D01*
X155727000Y-101814073D01*
X155851482Y-101801813D01*
X155971180Y-101765503D01*
X156081494Y-101706538D01*
X156178185Y-101627186D01*
X156257537Y-101530495D01*
X156316502Y-101420181D01*
X156352812Y-101300483D01*
X156365072Y-101176001D01*
X156362000Y-100961751D01*
X156203250Y-100803001D01*
X155104000Y-100803001D01*
X154850000Y-100803001D01*
X153750750Y-100803001D01*
X153592000Y-100961751D01*
X153588928Y-101176001D01*
X151465072Y-101176001D01*
X151465072Y-100176001D01*
X153588928Y-100176001D01*
X153592000Y-100390251D01*
X153750750Y-100549001D01*
X154850000Y-100549001D01*
X154850000Y-99699751D01*
X155104000Y-99699751D01*
X155104000Y-100549001D01*
X156203250Y-100549001D01*
X156362000Y-100390251D01*
X156365072Y-100176001D01*
X156352812Y-100051519D01*
X156316502Y-99931821D01*
X156257537Y-99821507D01*
X156178185Y-99724816D01*
X156081494Y-99645464D01*
X155971180Y-99586499D01*
X155851482Y-99550189D01*
X155727000Y-99537929D01*
X155262750Y-99541001D01*
X155104000Y-99699751D01*
X154850000Y-99699751D01*
X154691250Y-99541001D01*
X154227000Y-99537929D01*
X154102518Y-99550189D01*
X153982820Y-99586499D01*
X153872506Y-99645464D01*
X153775815Y-99724816D01*
X153696463Y-99821507D01*
X153637498Y-99931821D01*
X153601188Y-100051519D01*
X153588928Y-100176001D01*
X151465072Y-100176001D01*
X151452812Y-100051519D01*
X151416502Y-99931821D01*
X151357537Y-99821507D01*
X151278185Y-99724816D01*
X151181494Y-99645464D01*
X151071180Y-99586499D01*
X150951482Y-99550189D01*
X150827000Y-99537929D01*
X149761999Y-99537929D01*
X149761999Y-99227842D01*
X150375769Y-98614073D01*
X150827000Y-98614073D01*
X150951482Y-98601813D01*
X151071180Y-98565503D01*
X151181494Y-98506538D01*
X151278185Y-98427186D01*
X151357537Y-98330495D01*
X151416502Y-98220181D01*
X151452812Y-98100483D01*
X151465072Y-97976001D01*
X151465072Y-96976001D01*
X151452812Y-96851519D01*
X151416502Y-96731821D01*
X151357537Y-96621507D01*
X151278185Y-96524816D01*
X151181494Y-96445464D01*
X151071180Y-96386499D01*
X150951482Y-96350189D01*
X150827000Y-96337929D01*
X149761999Y-96337929D01*
X149761999Y-93807738D01*
X150233936Y-93807738D01*
X153588928Y-97162731D01*
X153588928Y-97976001D01*
X153601188Y-98100483D01*
X153637498Y-98220181D01*
X153696463Y-98330495D01*
X153775815Y-98427186D01*
X153872506Y-98506538D01*
X153982820Y-98565503D01*
X154102518Y-98601813D01*
X154227000Y-98614073D01*
X155727000Y-98614073D01*
X155851482Y-98601813D01*
X155971180Y-98565503D01*
X156081494Y-98506538D01*
X156178185Y-98427186D01*
X156257537Y-98330495D01*
X156316502Y-98220181D01*
X156352812Y-98100483D01*
X156365072Y-97976001D01*
X156365072Y-96976001D01*
X156352812Y-96851519D01*
X156316502Y-96731821D01*
X156257537Y-96621507D01*
X156178185Y-96524816D01*
X156081494Y-96445464D01*
X155971180Y-96386499D01*
X155851482Y-96350189D01*
X155727000Y-96337929D01*
X154913730Y-96337929D01*
X151745467Y-93169666D01*
X153588928Y-93169666D01*
X153601188Y-93294148D01*
X153637498Y-93413846D01*
X153696463Y-93524160D01*
X153775815Y-93620851D01*
X153872506Y-93700203D01*
X153982820Y-93759168D01*
X154102518Y-93795478D01*
X154227000Y-93807738D01*
X154691250Y-93804666D01*
X154850000Y-93645916D01*
X154850000Y-92796666D01*
X155104000Y-92796666D01*
X155104000Y-93645916D01*
X155262750Y-93804666D01*
X155727000Y-93807738D01*
X155851482Y-93795478D01*
X155971180Y-93759168D01*
X156081494Y-93700203D01*
X156178185Y-93620851D01*
X156257537Y-93524160D01*
X156316502Y-93413846D01*
X156352812Y-93294148D01*
X156365072Y-93169666D01*
X156362000Y-92955416D01*
X156203250Y-92796666D01*
X155104000Y-92796666D01*
X154850000Y-92796666D01*
X153750750Y-92796666D01*
X153592000Y-92955416D01*
X153588928Y-93169666D01*
X151745467Y-93169666D01*
X151465072Y-92889272D01*
X151465072Y-92169666D01*
X153588928Y-92169666D01*
X153592000Y-92383916D01*
X153750750Y-92542666D01*
X154850000Y-92542666D01*
X154850000Y-91693416D01*
X155104000Y-91693416D01*
X155104000Y-92542666D01*
X156203250Y-92542666D01*
X156362000Y-92383916D01*
X156365072Y-92169666D01*
X156352812Y-92045184D01*
X156316502Y-91925486D01*
X156257537Y-91815172D01*
X156178185Y-91718481D01*
X156081494Y-91639129D01*
X155971180Y-91580164D01*
X155851482Y-91543854D01*
X155727000Y-91531594D01*
X155262750Y-91534666D01*
X155104000Y-91693416D01*
X154850000Y-91693416D01*
X154691250Y-91534666D01*
X154227000Y-91531594D01*
X154102518Y-91543854D01*
X153982820Y-91580164D01*
X153872506Y-91639129D01*
X153775815Y-91718481D01*
X153696463Y-91815172D01*
X153637498Y-91925486D01*
X153601188Y-92045184D01*
X153588928Y-92169666D01*
X151465072Y-92169666D01*
X151452812Y-92045184D01*
X151416502Y-91925486D01*
X151357537Y-91815172D01*
X151278185Y-91718481D01*
X151181494Y-91639129D01*
X151071180Y-91580164D01*
X150951482Y-91543854D01*
X150827000Y-91531594D01*
X149761999Y-91531594D01*
X149761999Y-91221507D01*
X150375769Y-90607738D01*
X150827000Y-90607738D01*
X150951482Y-90595478D01*
X151071180Y-90559168D01*
X151181494Y-90500203D01*
X151278185Y-90420851D01*
X151357537Y-90324160D01*
X151416502Y-90213846D01*
X151452812Y-90094148D01*
X151465072Y-89969666D01*
X151465072Y-88969666D01*
X151452812Y-88845184D01*
X151416502Y-88725486D01*
X151357537Y-88615172D01*
X151278185Y-88518481D01*
X151181494Y-88439129D01*
X151071180Y-88380164D01*
X150951482Y-88343854D01*
X150827000Y-88331594D01*
X149761999Y-88331594D01*
X149761999Y-85801405D01*
X150233938Y-85801405D01*
X153588928Y-89156396D01*
X153588928Y-89969666D01*
X153601188Y-90094148D01*
X153637498Y-90213846D01*
X153696463Y-90324160D01*
X153775815Y-90420851D01*
X153872506Y-90500203D01*
X153982820Y-90559168D01*
X154102518Y-90595478D01*
X154227000Y-90607738D01*
X155727000Y-90607738D01*
X155851482Y-90595478D01*
X155971180Y-90559168D01*
X156081494Y-90500203D01*
X156178185Y-90420851D01*
X156257537Y-90324160D01*
X156316502Y-90213846D01*
X156352812Y-90094148D01*
X156365072Y-89969666D01*
X156365072Y-88969666D01*
X156352812Y-88845184D01*
X156316502Y-88725486D01*
X156257537Y-88615172D01*
X156178185Y-88518481D01*
X156081494Y-88439129D01*
X155971180Y-88380164D01*
X155851482Y-88343854D01*
X155727000Y-88331594D01*
X154913730Y-88331594D01*
X151745469Y-85163333D01*
X153588928Y-85163333D01*
X153601188Y-85287815D01*
X153637498Y-85407513D01*
X153696463Y-85517827D01*
X153775815Y-85614518D01*
X153872506Y-85693870D01*
X153982820Y-85752835D01*
X154102518Y-85789145D01*
X154227000Y-85801405D01*
X154691250Y-85798333D01*
X154850000Y-85639583D01*
X154850000Y-84790333D01*
X155104000Y-84790333D01*
X155104000Y-85639583D01*
X155262750Y-85798333D01*
X155727000Y-85801405D01*
X155851482Y-85789145D01*
X155971180Y-85752835D01*
X156081494Y-85693870D01*
X156178185Y-85614518D01*
X156257537Y-85517827D01*
X156316502Y-85407513D01*
X156352812Y-85287815D01*
X156365072Y-85163333D01*
X156362000Y-84949083D01*
X156203250Y-84790333D01*
X155104000Y-84790333D01*
X154850000Y-84790333D01*
X153750750Y-84790333D01*
X153592000Y-84949083D01*
X153588928Y-85163333D01*
X151745469Y-85163333D01*
X151465072Y-84882937D01*
X151465072Y-84163333D01*
X153588928Y-84163333D01*
X153592000Y-84377583D01*
X153750750Y-84536333D01*
X154850000Y-84536333D01*
X154850000Y-83687083D01*
X155104000Y-83687083D01*
X155104000Y-84536333D01*
X156203250Y-84536333D01*
X156362000Y-84377583D01*
X156365072Y-84163333D01*
X156352812Y-84038851D01*
X156316502Y-83919153D01*
X156257537Y-83808839D01*
X156178185Y-83712148D01*
X156081494Y-83632796D01*
X155971180Y-83573831D01*
X155851482Y-83537521D01*
X155727000Y-83525261D01*
X155262750Y-83528333D01*
X155104000Y-83687083D01*
X154850000Y-83687083D01*
X154691250Y-83528333D01*
X154227000Y-83525261D01*
X154102518Y-83537521D01*
X153982820Y-83573831D01*
X153872506Y-83632796D01*
X153775815Y-83712148D01*
X153696463Y-83808839D01*
X153637498Y-83919153D01*
X153601188Y-84038851D01*
X153588928Y-84163333D01*
X151465072Y-84163333D01*
X151452812Y-84038851D01*
X151416502Y-83919153D01*
X151357537Y-83808839D01*
X151278185Y-83712148D01*
X151181494Y-83632796D01*
X151071180Y-83573831D01*
X150951482Y-83537521D01*
X150827000Y-83525261D01*
X149761999Y-83525261D01*
X149761999Y-83215174D01*
X150375769Y-82601405D01*
X150827000Y-82601405D01*
X150951482Y-82589145D01*
X151071180Y-82552835D01*
X151181494Y-82493870D01*
X151278185Y-82414518D01*
X151357537Y-82317827D01*
X151416502Y-82207513D01*
X151452812Y-82087815D01*
X151465072Y-81963333D01*
X151465072Y-80963333D01*
X151452812Y-80838851D01*
X151416502Y-80719153D01*
X151357537Y-80608839D01*
X151278185Y-80512148D01*
X151181494Y-80432796D01*
X151071180Y-80373831D01*
X150951482Y-80337521D01*
X150827000Y-80325261D01*
X149761999Y-80325261D01*
X149761999Y-77795072D01*
X150233938Y-77795072D01*
X153588928Y-81150063D01*
X153588928Y-81963333D01*
X153601188Y-82087815D01*
X153637498Y-82207513D01*
X153696463Y-82317827D01*
X153775815Y-82414518D01*
X153872506Y-82493870D01*
X153982820Y-82552835D01*
X154102518Y-82589145D01*
X154227000Y-82601405D01*
X155727000Y-82601405D01*
X155851482Y-82589145D01*
X155971180Y-82552835D01*
X156081494Y-82493870D01*
X156178185Y-82414518D01*
X156257537Y-82317827D01*
X156316502Y-82207513D01*
X156352812Y-82087815D01*
X156365072Y-81963333D01*
X156365072Y-80963333D01*
X156352812Y-80838851D01*
X156316502Y-80719153D01*
X156257537Y-80608839D01*
X156178185Y-80512148D01*
X156081494Y-80432796D01*
X155971180Y-80373831D01*
X155851482Y-80337521D01*
X155727000Y-80325261D01*
X154913730Y-80325261D01*
X151745469Y-77157000D01*
X153588928Y-77157000D01*
X153601188Y-77281482D01*
X153637498Y-77401180D01*
X153696463Y-77511494D01*
X153775815Y-77608185D01*
X153872506Y-77687537D01*
X153982820Y-77746502D01*
X154102518Y-77782812D01*
X154227000Y-77795072D01*
X154691250Y-77792000D01*
X154850000Y-77633250D01*
X154850000Y-76784000D01*
X155104000Y-76784000D01*
X155104000Y-77633250D01*
X155262750Y-77792000D01*
X155727000Y-77795072D01*
X155851482Y-77782812D01*
X155971180Y-77746502D01*
X156081494Y-77687537D01*
X156178185Y-77608185D01*
X156257537Y-77511494D01*
X156316502Y-77401180D01*
X156352812Y-77281482D01*
X156365072Y-77157000D01*
X156362000Y-76942750D01*
X156203250Y-76784000D01*
X155104000Y-76784000D01*
X154850000Y-76784000D01*
X153750750Y-76784000D01*
X153592000Y-76942750D01*
X153588928Y-77157000D01*
X151745469Y-77157000D01*
X151465072Y-76876604D01*
X151465072Y-76157000D01*
X151452812Y-76032518D01*
X151416502Y-75912820D01*
X151357537Y-75802506D01*
X151278185Y-75705815D01*
X151181494Y-75626463D01*
X151071180Y-75567498D01*
X150951482Y-75531188D01*
X150827000Y-75518928D01*
X149761999Y-75518928D01*
X149761999Y-75208841D01*
X150375769Y-74595072D01*
X150827000Y-74595072D01*
X150951482Y-74582812D01*
X151071180Y-74546502D01*
X151181494Y-74487537D01*
X151278185Y-74408185D01*
X151357537Y-74311494D01*
X151416502Y-74201180D01*
X151452812Y-74081482D01*
X151465072Y-73957000D01*
X151465072Y-72957000D01*
X151452812Y-72832518D01*
X151416502Y-72712820D01*
X151357537Y-72602506D01*
X151278185Y-72505815D01*
X151181494Y-72426463D01*
X151071180Y-72367498D01*
X150951482Y-72331188D01*
X150827000Y-72318928D01*
X149327000Y-72318928D01*
X149202518Y-72331188D01*
X149082820Y-72367498D01*
X148972506Y-72426463D01*
X148875815Y-72505815D01*
X148796463Y-72602506D01*
X148737498Y-72712820D01*
X148701188Y-72832518D01*
X148688928Y-72957000D01*
X148688928Y-73408232D01*
X148062871Y-74034289D01*
X148024103Y-74066105D01*
X147897139Y-74220811D01*
X147802797Y-74397315D01*
X147751413Y-74566706D01*
X147744701Y-74588831D01*
X147725084Y-74788001D01*
X147729999Y-74837903D01*
X147730000Y-82744422D01*
X147725084Y-82794334D01*
X147729999Y-82844236D01*
X147730000Y-90750755D01*
X147725084Y-90800667D01*
X147729999Y-90850569D01*
X147730000Y-98757090D01*
X147725084Y-98807002D01*
X147730000Y-98856914D01*
X147729999Y-105262097D01*
X147725084Y-105311999D01*
X147729999Y-105361900D01*
X147744701Y-105511169D01*
X147802797Y-105702685D01*
X147897139Y-105879189D01*
X148024103Y-106033895D01*
X148062871Y-106065711D01*
X150122292Y-108125133D01*
X150154104Y-108163896D01*
X150308810Y-108290860D01*
X150485313Y-108385202D01*
X150676829Y-108443298D01*
X150826098Y-108458000D01*
X150826105Y-108458000D01*
X150875999Y-108462914D01*
X150925893Y-108458000D01*
X158302353Y-108458000D01*
X158303188Y-108466482D01*
X158339498Y-108586180D01*
X158398463Y-108696494D01*
X158477815Y-108793185D01*
X158574506Y-108872537D01*
X158684820Y-108931502D01*
X158804518Y-108967812D01*
X158929000Y-108980072D01*
X161429000Y-108980072D01*
X161553482Y-108967812D01*
X161673180Y-108931502D01*
X161783494Y-108872537D01*
X161880185Y-108793185D01*
X161959537Y-108696494D01*
X162018502Y-108586180D01*
X162054812Y-108466482D01*
X162067072Y-108342000D01*
X162067072Y-106542000D01*
X162054812Y-106417518D01*
X162018502Y-106297820D01*
X161959537Y-106187506D01*
X161880185Y-106090815D01*
X161783494Y-106011463D01*
X161673180Y-105952498D01*
X161553482Y-105916188D01*
X161429000Y-105903928D01*
X160077769Y-105903928D01*
X158750000Y-104576160D01*
X158750000Y-101804027D01*
X158852000Y-101814073D01*
X160352000Y-101814073D01*
X160476482Y-101801813D01*
X160596180Y-101765503D01*
X160706494Y-101706538D01*
X160803185Y-101627186D01*
X160882537Y-101530495D01*
X160941502Y-101420181D01*
X160977812Y-101300483D01*
X160990072Y-101176001D01*
X163113928Y-101176001D01*
X163126188Y-101300483D01*
X163162498Y-101420181D01*
X163221463Y-101530495D01*
X163300815Y-101627186D01*
X163397506Y-101706538D01*
X163507820Y-101765503D01*
X163627518Y-101801813D01*
X163752000Y-101814073D01*
X164216250Y-101811001D01*
X164375000Y-101652251D01*
X164375000Y-100803001D01*
X164629000Y-100803001D01*
X164629000Y-101652251D01*
X164787750Y-101811001D01*
X165252000Y-101814073D01*
X165376482Y-101801813D01*
X165496180Y-101765503D01*
X165606494Y-101706538D01*
X165703185Y-101627186D01*
X165782537Y-101530495D01*
X165841502Y-101420181D01*
X165877812Y-101300483D01*
X165890072Y-101176001D01*
X165887000Y-100961751D01*
X165728250Y-100803001D01*
X164629000Y-100803001D01*
X164375000Y-100803001D01*
X163275750Y-100803001D01*
X163117000Y-100961751D01*
X163113928Y-101176001D01*
X160990072Y-101176001D01*
X160990072Y-100362731D01*
X161176802Y-100176001D01*
X163113928Y-100176001D01*
X163117000Y-100390251D01*
X163275750Y-100549001D01*
X164375000Y-100549001D01*
X164375000Y-99699751D01*
X164629000Y-99699751D01*
X164629000Y-100549001D01*
X165728250Y-100549001D01*
X165887000Y-100390251D01*
X165890072Y-100176001D01*
X165877812Y-100051519D01*
X165841502Y-99931821D01*
X165782537Y-99821507D01*
X165703185Y-99724816D01*
X165606494Y-99645464D01*
X165496180Y-99586499D01*
X165376482Y-99550189D01*
X165252000Y-99537929D01*
X164787750Y-99541001D01*
X164629000Y-99699751D01*
X164375000Y-99699751D01*
X164216250Y-99541001D01*
X163752000Y-99537929D01*
X163627518Y-99550189D01*
X163507820Y-99586499D01*
X163397506Y-99645464D01*
X163300815Y-99724816D01*
X163221463Y-99821507D01*
X163162498Y-99931821D01*
X163126188Y-100051519D01*
X163113928Y-100176001D01*
X161176802Y-100176001D01*
X162817009Y-98535795D01*
X162846001Y-98512002D01*
X162869795Y-98483009D01*
X162869799Y-98483005D01*
X162940973Y-98396278D01*
X162940974Y-98396277D01*
X163011546Y-98264248D01*
X163055003Y-98120987D01*
X163066000Y-98009334D01*
X163066000Y-98009325D01*
X163069676Y-97972002D01*
X163066000Y-97934679D01*
X163066000Y-93169666D01*
X163113928Y-93169666D01*
X163126188Y-93294148D01*
X163162498Y-93413846D01*
X163221463Y-93524160D01*
X163300815Y-93620851D01*
X163397506Y-93700203D01*
X163507820Y-93759168D01*
X163627518Y-93795478D01*
X163752000Y-93807738D01*
X164216250Y-93804666D01*
X164375000Y-93645916D01*
X164375000Y-92796666D01*
X164629000Y-92796666D01*
X164629000Y-93645916D01*
X164787750Y-93804666D01*
X165252000Y-93807738D01*
X165376482Y-93795478D01*
X165496180Y-93759168D01*
X165606494Y-93700203D01*
X165703185Y-93620851D01*
X165782537Y-93524160D01*
X165841502Y-93413846D01*
X165877812Y-93294148D01*
X165890072Y-93169666D01*
X165887000Y-92955416D01*
X165728250Y-92796666D01*
X164629000Y-92796666D01*
X164375000Y-92796666D01*
X163275750Y-92796666D01*
X163117000Y-92955416D01*
X163113928Y-93169666D01*
X163066000Y-93169666D01*
X163066000Y-91980467D01*
X163210173Y-91836295D01*
X163162498Y-91925486D01*
X163126188Y-92045184D01*
X163113928Y-92169666D01*
X163117000Y-92383916D01*
X163275750Y-92542666D01*
X164375000Y-92542666D01*
X164375000Y-91693416D01*
X164629000Y-91693416D01*
X164629000Y-92542666D01*
X165728250Y-92542666D01*
X165887000Y-92383916D01*
X165890072Y-92169666D01*
X165877812Y-92045184D01*
X165841502Y-91925486D01*
X165782537Y-91815172D01*
X165703185Y-91718481D01*
X165606494Y-91639129D01*
X165496180Y-91580164D01*
X165376482Y-91543854D01*
X165252000Y-91531594D01*
X164787750Y-91534666D01*
X164629000Y-91693416D01*
X164375000Y-91693416D01*
X164216250Y-91534666D01*
X163752000Y-91531594D01*
X163627518Y-91543854D01*
X163507820Y-91580164D01*
X163418629Y-91627838D01*
X164438730Y-90607738D01*
X165252000Y-90607738D01*
X165376482Y-90595478D01*
X165496180Y-90559168D01*
X165606494Y-90500203D01*
X165703185Y-90420851D01*
X165782537Y-90324160D01*
X165841502Y-90213846D01*
X165877812Y-90094148D01*
X165890072Y-89969666D01*
X165890072Y-88969666D01*
X165877812Y-88845184D01*
X165841502Y-88725486D01*
X165782537Y-88615172D01*
X165703185Y-88518481D01*
X165606494Y-88439129D01*
X165496180Y-88380164D01*
X165376482Y-88343854D01*
X165252000Y-88331594D01*
X163752000Y-88331594D01*
X163627518Y-88343854D01*
X163507820Y-88380164D01*
X163397506Y-88439129D01*
X163300815Y-88518481D01*
X163221463Y-88615172D01*
X163162498Y-88725486D01*
X163126188Y-88845184D01*
X163113928Y-88969666D01*
X163113928Y-89782936D01*
X161794998Y-91101867D01*
X161766000Y-91125665D01*
X161742202Y-91154663D01*
X161742201Y-91154664D01*
X161671026Y-91241390D01*
X161600454Y-91373420D01*
X161573589Y-91461985D01*
X161558570Y-91511500D01*
X161556998Y-91516681D01*
X161542324Y-91665666D01*
X161546001Y-91702998D01*
X161546000Y-97657198D01*
X160893829Y-98309370D01*
X160941502Y-98220181D01*
X160977812Y-98100483D01*
X160990072Y-97976001D01*
X160990072Y-96976001D01*
X160977812Y-96851519D01*
X160941502Y-96731821D01*
X160882537Y-96621507D01*
X160803185Y-96524816D01*
X160706494Y-96445464D01*
X160596180Y-96386499D01*
X160476482Y-96350189D01*
X160352000Y-96337929D01*
X158852000Y-96337929D01*
X158750000Y-96347975D01*
X158750000Y-93797692D01*
X158852000Y-93807738D01*
X160352000Y-93807738D01*
X160476482Y-93795478D01*
X160596180Y-93759168D01*
X160706494Y-93700203D01*
X160803185Y-93620851D01*
X160882537Y-93524160D01*
X160941502Y-93413846D01*
X160977812Y-93294148D01*
X160990072Y-93169666D01*
X160990072Y-92169666D01*
X160977812Y-92045184D01*
X160941502Y-91925486D01*
X160882537Y-91815172D01*
X160836902Y-91759565D01*
X162563004Y-90033464D01*
X162592001Y-90009667D01*
X162686974Y-89893942D01*
X162757546Y-89761913D01*
X162801003Y-89618652D01*
X162812000Y-89506999D01*
X162812000Y-89506990D01*
X162815676Y-89469667D01*
X162812000Y-89432344D01*
X162812000Y-85163333D01*
X163113928Y-85163333D01*
X163126188Y-85287815D01*
X163162498Y-85407513D01*
X163221463Y-85517827D01*
X163300815Y-85614518D01*
X163397506Y-85693870D01*
X163507820Y-85752835D01*
X163627518Y-85789145D01*
X163752000Y-85801405D01*
X164216250Y-85798333D01*
X164375000Y-85639583D01*
X164375000Y-84790333D01*
X164629000Y-84790333D01*
X164629000Y-85639583D01*
X164787750Y-85798333D01*
X165252000Y-85801405D01*
X165376482Y-85789145D01*
X165496180Y-85752835D01*
X165606494Y-85693870D01*
X165703185Y-85614518D01*
X165782537Y-85517827D01*
X165841502Y-85407513D01*
X165877812Y-85287815D01*
X165890072Y-85163333D01*
X165887000Y-84949083D01*
X165728250Y-84790333D01*
X164629000Y-84790333D01*
X164375000Y-84790333D01*
X163275750Y-84790333D01*
X163117000Y-84949083D01*
X163113928Y-85163333D01*
X162812000Y-85163333D01*
X162812000Y-84228134D01*
X163210172Y-83829962D01*
X163162498Y-83919153D01*
X163126188Y-84038851D01*
X163113928Y-84163333D01*
X163117000Y-84377583D01*
X163275750Y-84536333D01*
X164375000Y-84536333D01*
X164375000Y-83687083D01*
X164629000Y-83687083D01*
X164629000Y-84536333D01*
X165728250Y-84536333D01*
X165887000Y-84377583D01*
X165890072Y-84163333D01*
X165877812Y-84038851D01*
X165841502Y-83919153D01*
X165782537Y-83808839D01*
X165703185Y-83712148D01*
X165606494Y-83632796D01*
X165496180Y-83573831D01*
X165376482Y-83537521D01*
X165252000Y-83525261D01*
X164787750Y-83528333D01*
X164629000Y-83687083D01*
X164375000Y-83687083D01*
X164216250Y-83528333D01*
X163752000Y-83525261D01*
X163627518Y-83537521D01*
X163507820Y-83573831D01*
X163418629Y-83621505D01*
X164438730Y-82601405D01*
X165252000Y-82601405D01*
X165376482Y-82589145D01*
X165496180Y-82552835D01*
X165606494Y-82493870D01*
X165703185Y-82414518D01*
X165782537Y-82317827D01*
X165841502Y-82207513D01*
X165877812Y-82087815D01*
X165890072Y-81963333D01*
X165890072Y-80963333D01*
X165877812Y-80838851D01*
X165841502Y-80719153D01*
X165782537Y-80608839D01*
X165703185Y-80512148D01*
X165606494Y-80432796D01*
X165496180Y-80373831D01*
X165376482Y-80337521D01*
X165252000Y-80325261D01*
X163752000Y-80325261D01*
X163627518Y-80337521D01*
X163507820Y-80373831D01*
X163397506Y-80432796D01*
X163300815Y-80512148D01*
X163221463Y-80608839D01*
X163162498Y-80719153D01*
X163126188Y-80838851D01*
X163113928Y-80963333D01*
X163113928Y-81776603D01*
X162939000Y-81951531D01*
X162939000Y-77157000D01*
X163113928Y-77157000D01*
X163126188Y-77281482D01*
X163162498Y-77401180D01*
X163221463Y-77511494D01*
X163300815Y-77608185D01*
X163397506Y-77687537D01*
X163507820Y-77746502D01*
X163627518Y-77782812D01*
X163752000Y-77795072D01*
X164216250Y-77792000D01*
X164375000Y-77633250D01*
X164375000Y-76784000D01*
X164629000Y-76784000D01*
X164629000Y-77633250D01*
X164787750Y-77792000D01*
X165252000Y-77795072D01*
X165376482Y-77782812D01*
X165496180Y-77746502D01*
X165606494Y-77687537D01*
X165703185Y-77608185D01*
X165782537Y-77511494D01*
X165841502Y-77401180D01*
X165877812Y-77281482D01*
X165890072Y-77157000D01*
X165887000Y-76942750D01*
X165728250Y-76784000D01*
X164629000Y-76784000D01*
X164375000Y-76784000D01*
X163275750Y-76784000D01*
X163117000Y-76942750D01*
X163113928Y-77157000D01*
X162939000Y-77157000D01*
X162939000Y-76094801D01*
X163210172Y-75823629D01*
X163162498Y-75912820D01*
X163126188Y-76032518D01*
X163113928Y-76157000D01*
X163117000Y-76371250D01*
X163275750Y-76530000D01*
X164375000Y-76530000D01*
X164375000Y-75680750D01*
X164629000Y-75680750D01*
X164629000Y-76530000D01*
X165728250Y-76530000D01*
X165887000Y-76371250D01*
X165890072Y-76157000D01*
X165877812Y-76032518D01*
X165841502Y-75912820D01*
X165782537Y-75802506D01*
X165703185Y-75705815D01*
X165606494Y-75626463D01*
X165496180Y-75567498D01*
X165376482Y-75531188D01*
X165252000Y-75518928D01*
X164787750Y-75522000D01*
X164629000Y-75680750D01*
X164375000Y-75680750D01*
X164216250Y-75522000D01*
X163752000Y-75518928D01*
X163627518Y-75531188D01*
X163507820Y-75567498D01*
X163418629Y-75615172D01*
X164438730Y-74595072D01*
X165252000Y-74595072D01*
X165376482Y-74582812D01*
X165496180Y-74546502D01*
X165606494Y-74487537D01*
X165703185Y-74408185D01*
X165782537Y-74311494D01*
X165841502Y-74201180D01*
X165877812Y-74081482D01*
X165890072Y-73957000D01*
X165890072Y-72957000D01*
X165877812Y-72832518D01*
X165841502Y-72712820D01*
X165782537Y-72602506D01*
X165703185Y-72505815D01*
X165606494Y-72426463D01*
X165496180Y-72367498D01*
X165376482Y-72331188D01*
X165252000Y-72318928D01*
X163813912Y-72318928D01*
X166331769Y-69801072D01*
X166762000Y-69801072D01*
X166886482Y-69788812D01*
X167006180Y-69752502D01*
X167116494Y-69693537D01*
X167213185Y-69614185D01*
X167292537Y-69517494D01*
X167351502Y-69407180D01*
X167387812Y-69287482D01*
X167400072Y-69163000D01*
X167400072Y-66663000D01*
X167387812Y-66538518D01*
X167386000Y-66532545D01*
X167386000Y-65293455D01*
X167387812Y-65287482D01*
X167400072Y-65163000D01*
X167400072Y-62663000D01*
X167387812Y-62538518D01*
X167351502Y-62418820D01*
X167292537Y-62308506D01*
X167213185Y-62211815D01*
X167171981Y-62178000D01*
X169470001Y-62178000D01*
X169470000Y-89083765D01*
X169318316Y-89037752D01*
X169147500Y-89020928D01*
X168672500Y-89020928D01*
X168501684Y-89037752D01*
X168337433Y-89087577D01*
X168186058Y-89168488D01*
X168053377Y-89277377D01*
X167944488Y-89410058D01*
X167896664Y-89499531D01*
X167874223Y-89511526D01*
X167813412Y-89561433D01*
X167758499Y-89606499D01*
X167734701Y-89635497D01*
X167092199Y-90278000D01*
X167030061Y-90278000D01*
X166830102Y-90317774D01*
X166641744Y-90395795D01*
X166472226Y-90509063D01*
X166328063Y-90653226D01*
X166214795Y-90822744D01*
X166136774Y-91011102D01*
X166097000Y-91211061D01*
X166097000Y-91414939D01*
X166136774Y-91614898D01*
X166214795Y-91803256D01*
X166328063Y-91972774D01*
X166472226Y-92116937D01*
X166641744Y-92230205D01*
X166830102Y-92308226D01*
X167030061Y-92348000D01*
X167233939Y-92348000D01*
X167433898Y-92308226D01*
X167622256Y-92230205D01*
X167725432Y-92161265D01*
X163991003Y-95895696D01*
X163961999Y-95919499D01*
X163906871Y-95986674D01*
X163867026Y-96035224D01*
X163810210Y-96141518D01*
X163796454Y-96167254D01*
X163752997Y-96310515D01*
X163750280Y-96338098D01*
X163627518Y-96350189D01*
X163507820Y-96386499D01*
X163397506Y-96445464D01*
X163300815Y-96524816D01*
X163221463Y-96621507D01*
X163162498Y-96731821D01*
X163126188Y-96851519D01*
X163113928Y-96976001D01*
X163113928Y-97976001D01*
X163126188Y-98100483D01*
X163162498Y-98220181D01*
X163221463Y-98330495D01*
X163300815Y-98427186D01*
X163397506Y-98506538D01*
X163507820Y-98565503D01*
X163627518Y-98601813D01*
X163752000Y-98614073D01*
X165252000Y-98614073D01*
X165376482Y-98601813D01*
X165496180Y-98565503D01*
X165606494Y-98506538D01*
X165703185Y-98427186D01*
X165782537Y-98330495D01*
X165841502Y-98220181D01*
X165877812Y-98100483D01*
X165890072Y-97976001D01*
X165890072Y-96976001D01*
X165877812Y-96851519D01*
X165841502Y-96731821D01*
X165782537Y-96621507D01*
X165703185Y-96524816D01*
X165606494Y-96445464D01*
X165596291Y-96440010D01*
X167807048Y-94229254D01*
X167813752Y-94297316D01*
X167863577Y-94461567D01*
X167944488Y-94612942D01*
X168053377Y-94745623D01*
X168150001Y-94824920D01*
X168150000Y-95627928D01*
X168148000Y-95627928D01*
X168023518Y-95640188D01*
X167903820Y-95676498D01*
X167793506Y-95735463D01*
X167696815Y-95814815D01*
X167617463Y-95911506D01*
X167558498Y-96021820D01*
X167522188Y-96141518D01*
X167509928Y-96266000D01*
X167509928Y-97790000D01*
X167522188Y-97914482D01*
X167558498Y-98034180D01*
X167617463Y-98144494D01*
X167696815Y-98241185D01*
X167793506Y-98320537D01*
X167903820Y-98379502D01*
X168023518Y-98415812D01*
X168107465Y-98424080D01*
X168019465Y-98482880D01*
X167824880Y-98677465D01*
X167671995Y-98906273D01*
X167566686Y-99160510D01*
X167513000Y-99430408D01*
X167513000Y-99705592D01*
X167566686Y-99975490D01*
X167671995Y-100229727D01*
X167824880Y-100458535D01*
X168019465Y-100653120D01*
X168248273Y-100806005D01*
X168325515Y-100838000D01*
X168248273Y-100869995D01*
X168019465Y-101022880D01*
X167824880Y-101217465D01*
X167671995Y-101446273D01*
X167566686Y-101700510D01*
X167513000Y-101970408D01*
X167513000Y-102245592D01*
X167566686Y-102515490D01*
X167671995Y-102769727D01*
X167824880Y-102998535D01*
X168019465Y-103193120D01*
X168248273Y-103346005D01*
X168325515Y-103378000D01*
X168248273Y-103409995D01*
X168019465Y-103562880D01*
X167824880Y-103757465D01*
X167671995Y-103986273D01*
X167566686Y-104240510D01*
X167513000Y-104510408D01*
X167513000Y-104785592D01*
X167566686Y-105055490D01*
X167671995Y-105309727D01*
X167824880Y-105538535D01*
X168019465Y-105733120D01*
X168248273Y-105886005D01*
X168325515Y-105918000D01*
X168248273Y-105949995D01*
X168019465Y-106102880D01*
X167824880Y-106297465D01*
X167671995Y-106526273D01*
X167566686Y-106780510D01*
X167513000Y-107050408D01*
X167513000Y-107325592D01*
X167566686Y-107595490D01*
X167671995Y-107849727D01*
X167824880Y-108078535D01*
X168019465Y-108273120D01*
X168248273Y-108426005D01*
X168325515Y-108458000D01*
X168248273Y-108489995D01*
X168019465Y-108642880D01*
X167824880Y-108837465D01*
X167671995Y-109066273D01*
X167566686Y-109320510D01*
X167554685Y-109380844D01*
X166067072Y-107893232D01*
X166067072Y-106542000D01*
X166054812Y-106417518D01*
X166018502Y-106297820D01*
X165959537Y-106187506D01*
X165880185Y-106090815D01*
X165783494Y-106011463D01*
X165673180Y-105952498D01*
X165553482Y-105916188D01*
X165429000Y-105903928D01*
X162929000Y-105903928D01*
X162804518Y-105916188D01*
X162684820Y-105952498D01*
X162574506Y-106011463D01*
X162477815Y-106090815D01*
X162398463Y-106187506D01*
X162339498Y-106297820D01*
X162303188Y-106417518D01*
X162290928Y-106542000D01*
X162290928Y-108342000D01*
X162303188Y-108466482D01*
X162339498Y-108586180D01*
X162398463Y-108696494D01*
X162477815Y-108793185D01*
X162574506Y-108872537D01*
X162684820Y-108931502D01*
X162804518Y-108967812D01*
X162929000Y-108980072D01*
X164280232Y-108980072D01*
X167513000Y-112212841D01*
X167513000Y-112405592D01*
X167566686Y-112675490D01*
X167671995Y-112929727D01*
X167824880Y-113158535D01*
X168019465Y-113353120D01*
X168248273Y-113506005D01*
X168319943Y-113535692D01*
X168306977Y-113540364D01*
X168191020Y-113602344D01*
X168124040Y-113842435D01*
X168910000Y-114628395D01*
X168924143Y-114614253D01*
X169103748Y-114793858D01*
X169089605Y-114808000D01*
X169103748Y-114822143D01*
X168924143Y-115001748D01*
X168910000Y-114987605D01*
X168124040Y-115773565D01*
X168191020Y-116013656D01*
X168440048Y-116130756D01*
X168707135Y-116197023D01*
X168982017Y-116209910D01*
X169072714Y-116196249D01*
X167340762Y-117971500D01*
X145490000Y-117971500D01*
X145490000Y-116088413D01*
X145580048Y-116130756D01*
X145847135Y-116197023D01*
X146122017Y-116209910D01*
X146394133Y-116168922D01*
X146653023Y-116075636D01*
X146768980Y-116013656D01*
X146835960Y-115773565D01*
X146050000Y-114987605D01*
X146035858Y-115001748D01*
X145856253Y-114822143D01*
X145870395Y-114808000D01*
X146229605Y-114808000D01*
X147015565Y-115593960D01*
X147255656Y-115526980D01*
X147372756Y-115277952D01*
X147439023Y-115010865D01*
X147445157Y-114880017D01*
X167508090Y-114880017D01*
X167549078Y-115152133D01*
X167642364Y-115411023D01*
X167704344Y-115526980D01*
X167944435Y-115593960D01*
X168730395Y-114808000D01*
X167944435Y-114022040D01*
X167704344Y-114089020D01*
X167587244Y-114338048D01*
X167520977Y-114605135D01*
X167508090Y-114880017D01*
X147445157Y-114880017D01*
X147451910Y-114735983D01*
X147410922Y-114463867D01*
X147317636Y-114204977D01*
X147255656Y-114089020D01*
X147015565Y-114022040D01*
X146229605Y-114808000D01*
X145870395Y-114808000D01*
X145856253Y-114793858D01*
X146035858Y-114614253D01*
X146050000Y-114628395D01*
X146835960Y-113842435D01*
X146768980Y-113602344D01*
X146633240Y-113538515D01*
X146711727Y-113506005D01*
X146940535Y-113353120D01*
X147135120Y-113158535D01*
X147288005Y-112929727D01*
X147393314Y-112675490D01*
X147447000Y-112405592D01*
X147447000Y-112130408D01*
X147393314Y-111860510D01*
X147288005Y-111606273D01*
X147135120Y-111377465D01*
X146940535Y-111182880D01*
X146711727Y-111029995D01*
X146634485Y-110998000D01*
X146711727Y-110966005D01*
X146940535Y-110813120D01*
X147135120Y-110618535D01*
X147288005Y-110389727D01*
X147393314Y-110135490D01*
X147447000Y-109865592D01*
X147447000Y-109590408D01*
X147393314Y-109320510D01*
X147288005Y-109066273D01*
X147135120Y-108837465D01*
X146940535Y-108642880D01*
X146711727Y-108489995D01*
X146634485Y-108458000D01*
X146711727Y-108426005D01*
X146940535Y-108273120D01*
X147135120Y-108078535D01*
X147288005Y-107849727D01*
X147393314Y-107595490D01*
X147447000Y-107325592D01*
X147447000Y-107050408D01*
X147393314Y-106780510D01*
X147288005Y-106526273D01*
X147135120Y-106297465D01*
X146940535Y-106102880D01*
X146711727Y-105949995D01*
X146634485Y-105918000D01*
X146711727Y-105886005D01*
X146940535Y-105733120D01*
X147135120Y-105538535D01*
X147288005Y-105309727D01*
X147393314Y-105055490D01*
X147447000Y-104785592D01*
X147447000Y-104510408D01*
X147393314Y-104240510D01*
X147288005Y-103986273D01*
X147135120Y-103757465D01*
X146940535Y-103562880D01*
X146711727Y-103409995D01*
X146634485Y-103378000D01*
X146711727Y-103346005D01*
X146940535Y-103193120D01*
X147135120Y-102998535D01*
X147288005Y-102769727D01*
X147393314Y-102515490D01*
X147447000Y-102245592D01*
X147447000Y-101970408D01*
X147393314Y-101700510D01*
X147288005Y-101446273D01*
X147135120Y-101217465D01*
X146940535Y-101022880D01*
X146711727Y-100869995D01*
X146634485Y-100838000D01*
X146711727Y-100806005D01*
X146940535Y-100653120D01*
X147135120Y-100458535D01*
X147288005Y-100229727D01*
X147393314Y-99975490D01*
X147447000Y-99705592D01*
X147447000Y-99430408D01*
X147393314Y-99160510D01*
X147288005Y-98906273D01*
X147135120Y-98677465D01*
X146955317Y-98497662D01*
X147012682Y-98492012D01*
X147132380Y-98455702D01*
X147242694Y-98396737D01*
X147339385Y-98317385D01*
X147418737Y-98220694D01*
X147477702Y-98110380D01*
X147514012Y-97990682D01*
X147526272Y-97866200D01*
X147526272Y-96189800D01*
X147514012Y-96065318D01*
X147477702Y-95945620D01*
X147418737Y-95835306D01*
X147339385Y-95738615D01*
X147242694Y-95659263D01*
X147132380Y-95600298D01*
X147012682Y-95563988D01*
X146888200Y-95551728D01*
X145490000Y-95551728D01*
X145490000Y-69472000D01*
X147984928Y-69472000D01*
X147997188Y-69596482D01*
X148033498Y-69716180D01*
X148092463Y-69826494D01*
X148171815Y-69923185D01*
X148268506Y-70002537D01*
X148378820Y-70061502D01*
X148498518Y-70097812D01*
X148623000Y-70110072D01*
X148812250Y-70107000D01*
X148971000Y-69948250D01*
X148971000Y-69111500D01*
X149225000Y-69111500D01*
X149225000Y-69948250D01*
X149383750Y-70107000D01*
X149573000Y-70110072D01*
X149697482Y-70097812D01*
X149817180Y-70061502D01*
X149927494Y-70002537D01*
X149987000Y-69953702D01*
X150046506Y-70002537D01*
X150156820Y-70061502D01*
X150276518Y-70097812D01*
X150401000Y-70110072D01*
X150590250Y-70107000D01*
X150749000Y-69948250D01*
X150749000Y-69074000D01*
X151003000Y-69074000D01*
X151003000Y-69948250D01*
X151161750Y-70107000D01*
X151351000Y-70110072D01*
X151475482Y-70097812D01*
X151595180Y-70061502D01*
X151705494Y-70002537D01*
X151802185Y-69923185D01*
X151881537Y-69826494D01*
X151940502Y-69716180D01*
X151976812Y-69596482D01*
X151989072Y-69472000D01*
X151986000Y-69232750D01*
X151827250Y-69074000D01*
X151003000Y-69074000D01*
X150749000Y-69074000D01*
X149924750Y-69074000D01*
X149887250Y-69111500D01*
X149225000Y-69111500D01*
X148971000Y-69111500D01*
X148146750Y-69111500D01*
X147988000Y-69270250D01*
X147984928Y-69472000D01*
X145490000Y-69472000D01*
X145490000Y-63594000D01*
X148075928Y-63594000D01*
X148088188Y-63718482D01*
X148124498Y-63838180D01*
X148183463Y-63948494D01*
X148262815Y-64045185D01*
X148359506Y-64124537D01*
X148379081Y-64135000D01*
X148359506Y-64145463D01*
X148262815Y-64224815D01*
X148183463Y-64321506D01*
X148124498Y-64431820D01*
X148088188Y-64551518D01*
X148075928Y-64676000D01*
X148079000Y-64865250D01*
X148237750Y-65024000D01*
X149074500Y-65024000D01*
X149074500Y-64199750D01*
X149009750Y-64135000D01*
X149074500Y-64070250D01*
X149074500Y-63246000D01*
X148237750Y-63246000D01*
X148079000Y-63404750D01*
X148075928Y-63594000D01*
X145490000Y-63594000D01*
X145490000Y-62178000D01*
X148280867Y-62178000D01*
X148262815Y-62192815D01*
G04 #@! TA.AperFunction,Conductor*
D25*
G36*
X148262815Y-62192815D02*
G01*
X148183463Y-62289506D01*
X148124498Y-62399820D01*
X148088188Y-62519518D01*
X148075928Y-62644000D01*
X148079000Y-62833250D01*
X148237750Y-62992000D01*
X149074500Y-62992000D01*
X149074500Y-62972000D01*
X149328500Y-62972000D01*
X149328500Y-62992000D01*
X149348500Y-62992000D01*
X149348500Y-63246000D01*
X149328500Y-63246000D01*
X149328500Y-64070250D01*
X149393250Y-64135000D01*
X149328500Y-64199750D01*
X149328500Y-65024000D01*
X149348500Y-65024000D01*
X149348500Y-65278000D01*
X149328500Y-65278000D01*
X149328500Y-65298000D01*
X149074500Y-65298000D01*
X149074500Y-65278000D01*
X148237750Y-65278000D01*
X148079000Y-65436750D01*
X148075928Y-65626000D01*
X148088188Y-65750482D01*
X148124498Y-65870180D01*
X148183463Y-65980494D01*
X148262815Y-66077185D01*
X148359506Y-66156537D01*
X148390122Y-66172902D01*
X148374058Y-66181488D01*
X148241377Y-66290377D01*
X148132488Y-66423058D01*
X148051577Y-66574433D01*
X148001752Y-66738684D01*
X147984928Y-66909500D01*
X147984928Y-67409500D01*
X148001752Y-67580316D01*
X148051577Y-67744567D01*
X148132488Y-67895942D01*
X148221812Y-68004783D01*
X148171815Y-68045815D01*
X148092463Y-68142506D01*
X148033498Y-68252820D01*
X147997188Y-68372518D01*
X147984928Y-68497000D01*
X147988000Y-68698750D01*
X148146750Y-68857500D01*
X148971000Y-68857500D01*
X148971000Y-68837500D01*
X149225000Y-68837500D01*
X149225000Y-68857500D01*
X150049250Y-68857500D01*
X150086750Y-68820000D01*
X150749000Y-68820000D01*
X150749000Y-68800000D01*
X151003000Y-68800000D01*
X151003000Y-68820000D01*
X151827250Y-68820000D01*
X151986000Y-68661250D01*
X151989072Y-68422000D01*
X151976812Y-68297518D01*
X151940502Y-68177820D01*
X151881537Y-68067506D01*
X151821901Y-67994839D01*
X151841512Y-67970942D01*
X151848964Y-67957000D01*
X152025000Y-67957000D01*
X152025000Y-67997751D01*
X152041423Y-68164498D01*
X152106324Y-68378446D01*
X152211716Y-68575623D01*
X152353551Y-68748449D01*
X152526377Y-68890284D01*
X152723553Y-68995676D01*
X152937501Y-69060577D01*
X153160000Y-69082491D01*
X153295586Y-69069137D01*
X153304188Y-69156482D01*
X153340498Y-69276180D01*
X153399463Y-69386494D01*
X153478815Y-69483185D01*
X153575506Y-69562537D01*
X153685820Y-69621502D01*
X153805518Y-69657812D01*
X153930000Y-69670072D01*
X153944250Y-69667000D01*
X154102998Y-69508252D01*
X154102998Y-69667000D01*
X154138571Y-69667000D01*
X154136700Y-69686000D01*
X154153864Y-69860274D01*
X154204698Y-70027852D01*
X154287248Y-70182291D01*
X154359351Y-70270148D01*
X154398342Y-70317659D01*
X154432260Y-70345495D01*
X154915497Y-70828731D01*
X154943341Y-70862659D01*
X155078709Y-70973753D01*
X155233149Y-71056303D01*
X155299058Y-71076296D01*
X155400724Y-71107136D01*
X155433924Y-71110406D01*
X155531333Y-71120000D01*
X155531339Y-71120000D01*
X155574999Y-71124300D01*
X155618659Y-71120000D01*
X159341340Y-71120000D01*
X159385000Y-71124300D01*
X159428660Y-71120000D01*
X159428667Y-71120000D01*
X159559274Y-71107136D01*
X159717810Y-71059046D01*
X159868505Y-71209741D01*
X159896341Y-71243659D01*
X160031709Y-71354753D01*
X160186149Y-71437303D01*
X160302892Y-71472716D01*
X160353725Y-71488136D01*
X160370325Y-71489771D01*
X160484333Y-71501000D01*
X160484340Y-71501000D01*
X160528000Y-71505300D01*
X160571660Y-71501000D01*
X161758160Y-71501000D01*
X160818160Y-72441000D01*
X160724207Y-72441000D01*
X160706494Y-72426463D01*
X160596180Y-72367498D01*
X160476482Y-72331188D01*
X160352000Y-72318928D01*
X158852000Y-72318928D01*
X158727518Y-72331188D01*
X158607820Y-72367498D01*
X158497506Y-72426463D01*
X158479793Y-72441000D01*
X158139901Y-72441000D01*
X158089999Y-72436085D01*
X157890829Y-72455702D01*
X157699313Y-72513798D01*
X157522810Y-72608140D01*
X157368104Y-72735104D01*
X157336287Y-72773873D01*
X157050873Y-73059287D01*
X157012104Y-73091104D01*
X156885140Y-73245810D01*
X156790798Y-73422314D01*
X156780276Y-73457001D01*
X156732702Y-73613830D01*
X156713085Y-73813000D01*
X156718000Y-73862902D01*
X156718000Y-74524532D01*
X156632937Y-74397226D01*
X156488774Y-74253063D01*
X156332449Y-74148610D01*
X156352812Y-74081482D01*
X156365072Y-73957000D01*
X156365072Y-72957000D01*
X156352812Y-72832518D01*
X156316502Y-72712820D01*
X156257537Y-72602506D01*
X156178185Y-72505815D01*
X156081494Y-72426463D01*
X155971180Y-72367498D01*
X155851482Y-72331188D01*
X155727000Y-72318928D01*
X154227000Y-72318928D01*
X154102518Y-72331188D01*
X153982820Y-72367498D01*
X153872506Y-72426463D01*
X153775815Y-72505815D01*
X153696463Y-72602506D01*
X153637498Y-72712820D01*
X153601188Y-72832518D01*
X153588928Y-72957000D01*
X153588928Y-73957000D01*
X153601188Y-74081482D01*
X153637498Y-74201180D01*
X153696463Y-74311494D01*
X153775815Y-74408185D01*
X153872506Y-74487537D01*
X153982820Y-74546502D01*
X154102518Y-74582812D01*
X154227000Y-74595072D01*
X154323743Y-74595072D01*
X154342026Y-74629276D01*
X154413201Y-74716002D01*
X154437000Y-74745001D01*
X154465998Y-74768799D01*
X154794000Y-75096801D01*
X154794000Y-75158939D01*
X154833774Y-75358898D01*
X154901334Y-75522000D01*
X154849998Y-75522000D01*
X154849998Y-75680748D01*
X154691250Y-75522000D01*
X154227000Y-75518928D01*
X154102518Y-75531188D01*
X153982820Y-75567498D01*
X153872506Y-75626463D01*
X153775815Y-75705815D01*
X153696463Y-75802506D01*
X153637498Y-75912820D01*
X153601188Y-76032518D01*
X153588928Y-76157000D01*
X153592000Y-76371250D01*
X153750750Y-76530000D01*
X154850000Y-76530000D01*
X154850000Y-76510000D01*
X155104000Y-76510000D01*
X155104000Y-76530000D01*
X156203250Y-76530000D01*
X156362000Y-76371250D01*
X156365072Y-76157000D01*
X156352812Y-76032518D01*
X156332449Y-75965390D01*
X156488774Y-75860937D01*
X156632937Y-75716774D01*
X156718000Y-75589468D01*
X156718001Y-83281421D01*
X156713085Y-83331333D01*
X156718000Y-83381235D01*
X156718001Y-91287754D01*
X156713085Y-91337666D01*
X156718000Y-91387568D01*
X156718001Y-99294089D01*
X156713085Y-99344001D01*
X156718001Y-99393913D01*
X156718000Y-104947098D01*
X156713085Y-104997000D01*
X156718000Y-105046901D01*
X156732702Y-105196170D01*
X156790798Y-105387686D01*
X156885140Y-105564190D01*
X157012104Y-105718896D01*
X157050872Y-105750712D01*
X157726160Y-106426000D01*
X151296841Y-106426000D01*
X149761999Y-104891159D01*
X149761999Y-101814073D01*
X150827000Y-101814073D01*
X150951482Y-101801813D01*
X151071180Y-101765503D01*
X151181494Y-101706538D01*
X151278185Y-101627186D01*
X151357537Y-101530495D01*
X151416502Y-101420181D01*
X151452812Y-101300483D01*
X151465072Y-101176001D01*
X153588928Y-101176001D01*
X153601188Y-101300483D01*
X153637498Y-101420181D01*
X153696463Y-101530495D01*
X153775815Y-101627186D01*
X153872506Y-101706538D01*
X153982820Y-101765503D01*
X154102518Y-101801813D01*
X154227000Y-101814073D01*
X154691250Y-101811001D01*
X154850000Y-101652251D01*
X154850000Y-100803001D01*
X155104000Y-100803001D01*
X155104000Y-101652251D01*
X155262750Y-101811001D01*
X155727000Y-101814073D01*
X155851482Y-101801813D01*
X155971180Y-101765503D01*
X156081494Y-101706538D01*
X156178185Y-101627186D01*
X156257537Y-101530495D01*
X156316502Y-101420181D01*
X156352812Y-101300483D01*
X156365072Y-101176001D01*
X156362000Y-100961751D01*
X156203250Y-100803001D01*
X155104000Y-100803001D01*
X154850000Y-100803001D01*
X153750750Y-100803001D01*
X153592000Y-100961751D01*
X153588928Y-101176001D01*
X151465072Y-101176001D01*
X151465072Y-100176001D01*
X153588928Y-100176001D01*
X153592000Y-100390251D01*
X153750750Y-100549001D01*
X154850000Y-100549001D01*
X154850000Y-99699751D01*
X155104000Y-99699751D01*
X155104000Y-100549001D01*
X156203250Y-100549001D01*
X156362000Y-100390251D01*
X156365072Y-100176001D01*
X156352812Y-100051519D01*
X156316502Y-99931821D01*
X156257537Y-99821507D01*
X156178185Y-99724816D01*
X156081494Y-99645464D01*
X155971180Y-99586499D01*
X155851482Y-99550189D01*
X155727000Y-99537929D01*
X155262750Y-99541001D01*
X155104000Y-99699751D01*
X154850000Y-99699751D01*
X154691250Y-99541001D01*
X154227000Y-99537929D01*
X154102518Y-99550189D01*
X153982820Y-99586499D01*
X153872506Y-99645464D01*
X153775815Y-99724816D01*
X153696463Y-99821507D01*
X153637498Y-99931821D01*
X153601188Y-100051519D01*
X153588928Y-100176001D01*
X151465072Y-100176001D01*
X151452812Y-100051519D01*
X151416502Y-99931821D01*
X151357537Y-99821507D01*
X151278185Y-99724816D01*
X151181494Y-99645464D01*
X151071180Y-99586499D01*
X150951482Y-99550189D01*
X150827000Y-99537929D01*
X149761999Y-99537929D01*
X149761999Y-99227842D01*
X150375769Y-98614073D01*
X150827000Y-98614073D01*
X150951482Y-98601813D01*
X151071180Y-98565503D01*
X151181494Y-98506538D01*
X151278185Y-98427186D01*
X151357537Y-98330495D01*
X151416502Y-98220181D01*
X151452812Y-98100483D01*
X151465072Y-97976001D01*
X151465072Y-96976001D01*
X151452812Y-96851519D01*
X151416502Y-96731821D01*
X151357537Y-96621507D01*
X151278185Y-96524816D01*
X151181494Y-96445464D01*
X151071180Y-96386499D01*
X150951482Y-96350189D01*
X150827000Y-96337929D01*
X149761999Y-96337929D01*
X149761999Y-93807738D01*
X150233936Y-93807738D01*
X153588928Y-97162731D01*
X153588928Y-97976001D01*
X153601188Y-98100483D01*
X153637498Y-98220181D01*
X153696463Y-98330495D01*
X153775815Y-98427186D01*
X153872506Y-98506538D01*
X153982820Y-98565503D01*
X154102518Y-98601813D01*
X154227000Y-98614073D01*
X155727000Y-98614073D01*
X155851482Y-98601813D01*
X155971180Y-98565503D01*
X156081494Y-98506538D01*
X156178185Y-98427186D01*
X156257537Y-98330495D01*
X156316502Y-98220181D01*
X156352812Y-98100483D01*
X156365072Y-97976001D01*
X156365072Y-96976001D01*
X156352812Y-96851519D01*
X156316502Y-96731821D01*
X156257537Y-96621507D01*
X156178185Y-96524816D01*
X156081494Y-96445464D01*
X155971180Y-96386499D01*
X155851482Y-96350189D01*
X155727000Y-96337929D01*
X154913730Y-96337929D01*
X151745467Y-93169666D01*
X153588928Y-93169666D01*
X153601188Y-93294148D01*
X153637498Y-93413846D01*
X153696463Y-93524160D01*
X153775815Y-93620851D01*
X153872506Y-93700203D01*
X153982820Y-93759168D01*
X154102518Y-93795478D01*
X154227000Y-93807738D01*
X154691250Y-93804666D01*
X154850000Y-93645916D01*
X154850000Y-92796666D01*
X155104000Y-92796666D01*
X155104000Y-93645916D01*
X155262750Y-93804666D01*
X155727000Y-93807738D01*
X155851482Y-93795478D01*
X155971180Y-93759168D01*
X156081494Y-93700203D01*
X156178185Y-93620851D01*
X156257537Y-93524160D01*
X156316502Y-93413846D01*
X156352812Y-93294148D01*
X156365072Y-93169666D01*
X156362000Y-92955416D01*
X156203250Y-92796666D01*
X155104000Y-92796666D01*
X154850000Y-92796666D01*
X153750750Y-92796666D01*
X153592000Y-92955416D01*
X153588928Y-93169666D01*
X151745467Y-93169666D01*
X151465072Y-92889272D01*
X151465072Y-92169666D01*
X153588928Y-92169666D01*
X153592000Y-92383916D01*
X153750750Y-92542666D01*
X154850000Y-92542666D01*
X154850000Y-91693416D01*
X155104000Y-91693416D01*
X155104000Y-92542666D01*
X156203250Y-92542666D01*
X156362000Y-92383916D01*
X156365072Y-92169666D01*
X156352812Y-92045184D01*
X156316502Y-91925486D01*
X156257537Y-91815172D01*
X156178185Y-91718481D01*
X156081494Y-91639129D01*
X155971180Y-91580164D01*
X155851482Y-91543854D01*
X155727000Y-91531594D01*
X155262750Y-91534666D01*
X155104000Y-91693416D01*
X154850000Y-91693416D01*
X154691250Y-91534666D01*
X154227000Y-91531594D01*
X154102518Y-91543854D01*
X153982820Y-91580164D01*
X153872506Y-91639129D01*
X153775815Y-91718481D01*
X153696463Y-91815172D01*
X153637498Y-91925486D01*
X153601188Y-92045184D01*
X153588928Y-92169666D01*
X151465072Y-92169666D01*
X151452812Y-92045184D01*
X151416502Y-91925486D01*
X151357537Y-91815172D01*
X151278185Y-91718481D01*
X151181494Y-91639129D01*
X151071180Y-91580164D01*
X150951482Y-91543854D01*
X150827000Y-91531594D01*
X149761999Y-91531594D01*
X149761999Y-91221507D01*
X150375769Y-90607738D01*
X150827000Y-90607738D01*
X150951482Y-90595478D01*
X151071180Y-90559168D01*
X151181494Y-90500203D01*
X151278185Y-90420851D01*
X151357537Y-90324160D01*
X151416502Y-90213846D01*
X151452812Y-90094148D01*
X151465072Y-89969666D01*
X151465072Y-88969666D01*
X151452812Y-88845184D01*
X151416502Y-88725486D01*
X151357537Y-88615172D01*
X151278185Y-88518481D01*
X151181494Y-88439129D01*
X151071180Y-88380164D01*
X150951482Y-88343854D01*
X150827000Y-88331594D01*
X149761999Y-88331594D01*
X149761999Y-85801405D01*
X150233938Y-85801405D01*
X153588928Y-89156396D01*
X153588928Y-89969666D01*
X153601188Y-90094148D01*
X153637498Y-90213846D01*
X153696463Y-90324160D01*
X153775815Y-90420851D01*
X153872506Y-90500203D01*
X153982820Y-90559168D01*
X154102518Y-90595478D01*
X154227000Y-90607738D01*
X155727000Y-90607738D01*
X155851482Y-90595478D01*
X155971180Y-90559168D01*
X156081494Y-90500203D01*
X156178185Y-90420851D01*
X156257537Y-90324160D01*
X156316502Y-90213846D01*
X156352812Y-90094148D01*
X156365072Y-89969666D01*
X156365072Y-88969666D01*
X156352812Y-88845184D01*
X156316502Y-88725486D01*
X156257537Y-88615172D01*
X156178185Y-88518481D01*
X156081494Y-88439129D01*
X155971180Y-88380164D01*
X155851482Y-88343854D01*
X155727000Y-88331594D01*
X154913730Y-88331594D01*
X151745469Y-85163333D01*
X153588928Y-85163333D01*
X153601188Y-85287815D01*
X153637498Y-85407513D01*
X153696463Y-85517827D01*
X153775815Y-85614518D01*
X153872506Y-85693870D01*
X153982820Y-85752835D01*
X154102518Y-85789145D01*
X154227000Y-85801405D01*
X154691250Y-85798333D01*
X154850000Y-85639583D01*
X154850000Y-84790333D01*
X155104000Y-84790333D01*
X155104000Y-85639583D01*
X155262750Y-85798333D01*
X155727000Y-85801405D01*
X155851482Y-85789145D01*
X155971180Y-85752835D01*
X156081494Y-85693870D01*
X156178185Y-85614518D01*
X156257537Y-85517827D01*
X156316502Y-85407513D01*
X156352812Y-85287815D01*
X156365072Y-85163333D01*
X156362000Y-84949083D01*
X156203250Y-84790333D01*
X155104000Y-84790333D01*
X154850000Y-84790333D01*
X153750750Y-84790333D01*
X153592000Y-84949083D01*
X153588928Y-85163333D01*
X151745469Y-85163333D01*
X151465072Y-84882937D01*
X151465072Y-84163333D01*
X153588928Y-84163333D01*
X153592000Y-84377583D01*
X153750750Y-84536333D01*
X154850000Y-84536333D01*
X154850000Y-83687083D01*
X155104000Y-83687083D01*
X155104000Y-84536333D01*
X156203250Y-84536333D01*
X156362000Y-84377583D01*
X156365072Y-84163333D01*
X156352812Y-84038851D01*
X156316502Y-83919153D01*
X156257537Y-83808839D01*
X156178185Y-83712148D01*
X156081494Y-83632796D01*
X155971180Y-83573831D01*
X155851482Y-83537521D01*
X155727000Y-83525261D01*
X155262750Y-83528333D01*
X155104000Y-83687083D01*
X154850000Y-83687083D01*
X154691250Y-83528333D01*
X154227000Y-83525261D01*
X154102518Y-83537521D01*
X153982820Y-83573831D01*
X153872506Y-83632796D01*
X153775815Y-83712148D01*
X153696463Y-83808839D01*
X153637498Y-83919153D01*
X153601188Y-84038851D01*
X153588928Y-84163333D01*
X151465072Y-84163333D01*
X151452812Y-84038851D01*
X151416502Y-83919153D01*
X151357537Y-83808839D01*
X151278185Y-83712148D01*
X151181494Y-83632796D01*
X151071180Y-83573831D01*
X150951482Y-83537521D01*
X150827000Y-83525261D01*
X149761999Y-83525261D01*
X149761999Y-83215174D01*
X150375769Y-82601405D01*
X150827000Y-82601405D01*
X150951482Y-82589145D01*
X151071180Y-82552835D01*
X151181494Y-82493870D01*
X151278185Y-82414518D01*
X151357537Y-82317827D01*
X151416502Y-82207513D01*
X151452812Y-82087815D01*
X151465072Y-81963333D01*
X151465072Y-80963333D01*
X151452812Y-80838851D01*
X151416502Y-80719153D01*
X151357537Y-80608839D01*
X151278185Y-80512148D01*
X151181494Y-80432796D01*
X151071180Y-80373831D01*
X150951482Y-80337521D01*
X150827000Y-80325261D01*
X149761999Y-80325261D01*
X149761999Y-77795072D01*
X150233938Y-77795072D01*
X153588928Y-81150063D01*
X153588928Y-81963333D01*
X153601188Y-82087815D01*
X153637498Y-82207513D01*
X153696463Y-82317827D01*
X153775815Y-82414518D01*
X153872506Y-82493870D01*
X153982820Y-82552835D01*
X154102518Y-82589145D01*
X154227000Y-82601405D01*
X155727000Y-82601405D01*
X155851482Y-82589145D01*
X155971180Y-82552835D01*
X156081494Y-82493870D01*
X156178185Y-82414518D01*
X156257537Y-82317827D01*
X156316502Y-82207513D01*
X156352812Y-82087815D01*
X156365072Y-81963333D01*
X156365072Y-80963333D01*
X156352812Y-80838851D01*
X156316502Y-80719153D01*
X156257537Y-80608839D01*
X156178185Y-80512148D01*
X156081494Y-80432796D01*
X155971180Y-80373831D01*
X155851482Y-80337521D01*
X155727000Y-80325261D01*
X154913730Y-80325261D01*
X151745469Y-77157000D01*
X153588928Y-77157000D01*
X153601188Y-77281482D01*
X153637498Y-77401180D01*
X153696463Y-77511494D01*
X153775815Y-77608185D01*
X153872506Y-77687537D01*
X153982820Y-77746502D01*
X154102518Y-77782812D01*
X154227000Y-77795072D01*
X154691250Y-77792000D01*
X154850000Y-77633250D01*
X154850000Y-76784000D01*
X155104000Y-76784000D01*
X155104000Y-77633250D01*
X155262750Y-77792000D01*
X155727000Y-77795072D01*
X155851482Y-77782812D01*
X155971180Y-77746502D01*
X156081494Y-77687537D01*
X156178185Y-77608185D01*
X156257537Y-77511494D01*
X156316502Y-77401180D01*
X156352812Y-77281482D01*
X156365072Y-77157000D01*
X156362000Y-76942750D01*
X156203250Y-76784000D01*
X155104000Y-76784000D01*
X154850000Y-76784000D01*
X153750750Y-76784000D01*
X153592000Y-76942750D01*
X153588928Y-77157000D01*
X151745469Y-77157000D01*
X151465072Y-76876604D01*
X151465072Y-76157000D01*
X151452812Y-76032518D01*
X151416502Y-75912820D01*
X151357537Y-75802506D01*
X151278185Y-75705815D01*
X151181494Y-75626463D01*
X151071180Y-75567498D01*
X150951482Y-75531188D01*
X150827000Y-75518928D01*
X149761999Y-75518928D01*
X149761999Y-75208841D01*
X150375769Y-74595072D01*
X150827000Y-74595072D01*
X150951482Y-74582812D01*
X151071180Y-74546502D01*
X151181494Y-74487537D01*
X151278185Y-74408185D01*
X151357537Y-74311494D01*
X151416502Y-74201180D01*
X151452812Y-74081482D01*
X151465072Y-73957000D01*
X151465072Y-72957000D01*
X151452812Y-72832518D01*
X151416502Y-72712820D01*
X151357537Y-72602506D01*
X151278185Y-72505815D01*
X151181494Y-72426463D01*
X151071180Y-72367498D01*
X150951482Y-72331188D01*
X150827000Y-72318928D01*
X149327000Y-72318928D01*
X149202518Y-72331188D01*
X149082820Y-72367498D01*
X148972506Y-72426463D01*
X148875815Y-72505815D01*
X148796463Y-72602506D01*
X148737498Y-72712820D01*
X148701188Y-72832518D01*
X148688928Y-72957000D01*
X148688928Y-73408232D01*
X148062871Y-74034289D01*
X148024103Y-74066105D01*
X147897139Y-74220811D01*
X147802797Y-74397315D01*
X147751413Y-74566706D01*
X147744701Y-74588831D01*
X147725084Y-74788001D01*
X147729999Y-74837903D01*
X147730000Y-82744422D01*
X147725084Y-82794334D01*
X147729999Y-82844236D01*
X147730000Y-90750755D01*
X147725084Y-90800667D01*
X147729999Y-90850569D01*
X147730000Y-98757090D01*
X147725084Y-98807002D01*
X147730000Y-98856914D01*
X147729999Y-105262097D01*
X147725084Y-105311999D01*
X147729999Y-105361900D01*
X147744701Y-105511169D01*
X147802797Y-105702685D01*
X147897139Y-105879189D01*
X148024103Y-106033895D01*
X148062871Y-106065711D01*
X150122292Y-108125133D01*
X150154104Y-108163896D01*
X150308810Y-108290860D01*
X150485313Y-108385202D01*
X150676829Y-108443298D01*
X150826098Y-108458000D01*
X150826105Y-108458000D01*
X150875999Y-108462914D01*
X150925893Y-108458000D01*
X158302353Y-108458000D01*
X158303188Y-108466482D01*
X158339498Y-108586180D01*
X158398463Y-108696494D01*
X158477815Y-108793185D01*
X158574506Y-108872537D01*
X158684820Y-108931502D01*
X158804518Y-108967812D01*
X158929000Y-108980072D01*
X161429000Y-108980072D01*
X161553482Y-108967812D01*
X161673180Y-108931502D01*
X161783494Y-108872537D01*
X161880185Y-108793185D01*
X161959537Y-108696494D01*
X162018502Y-108586180D01*
X162054812Y-108466482D01*
X162067072Y-108342000D01*
X162067072Y-106542000D01*
X162054812Y-106417518D01*
X162018502Y-106297820D01*
X161959537Y-106187506D01*
X161880185Y-106090815D01*
X161783494Y-106011463D01*
X161673180Y-105952498D01*
X161553482Y-105916188D01*
X161429000Y-105903928D01*
X160077769Y-105903928D01*
X158750000Y-104576160D01*
X158750000Y-101804027D01*
X158852000Y-101814073D01*
X160352000Y-101814073D01*
X160476482Y-101801813D01*
X160596180Y-101765503D01*
X160706494Y-101706538D01*
X160803185Y-101627186D01*
X160882537Y-101530495D01*
X160941502Y-101420181D01*
X160977812Y-101300483D01*
X160990072Y-101176001D01*
X163113928Y-101176001D01*
X163126188Y-101300483D01*
X163162498Y-101420181D01*
X163221463Y-101530495D01*
X163300815Y-101627186D01*
X163397506Y-101706538D01*
X163507820Y-101765503D01*
X163627518Y-101801813D01*
X163752000Y-101814073D01*
X164216250Y-101811001D01*
X164375000Y-101652251D01*
X164375000Y-100803001D01*
X164629000Y-100803001D01*
X164629000Y-101652251D01*
X164787750Y-101811001D01*
X165252000Y-101814073D01*
X165376482Y-101801813D01*
X165496180Y-101765503D01*
X165606494Y-101706538D01*
X165703185Y-101627186D01*
X165782537Y-101530495D01*
X165841502Y-101420181D01*
X165877812Y-101300483D01*
X165890072Y-101176001D01*
X165887000Y-100961751D01*
X165728250Y-100803001D01*
X164629000Y-100803001D01*
X164375000Y-100803001D01*
X163275750Y-100803001D01*
X163117000Y-100961751D01*
X163113928Y-101176001D01*
X160990072Y-101176001D01*
X160990072Y-100362731D01*
X161176802Y-100176001D01*
X163113928Y-100176001D01*
X163117000Y-100390251D01*
X163275750Y-100549001D01*
X164375000Y-100549001D01*
X164375000Y-99699751D01*
X164629000Y-99699751D01*
X164629000Y-100549001D01*
X165728250Y-100549001D01*
X165887000Y-100390251D01*
X165890072Y-100176001D01*
X165877812Y-100051519D01*
X165841502Y-99931821D01*
X165782537Y-99821507D01*
X165703185Y-99724816D01*
X165606494Y-99645464D01*
X165496180Y-99586499D01*
X165376482Y-99550189D01*
X165252000Y-99537929D01*
X164787750Y-99541001D01*
X164629000Y-99699751D01*
X164375000Y-99699751D01*
X164216250Y-99541001D01*
X163752000Y-99537929D01*
X163627518Y-99550189D01*
X163507820Y-99586499D01*
X163397506Y-99645464D01*
X163300815Y-99724816D01*
X163221463Y-99821507D01*
X163162498Y-99931821D01*
X163126188Y-100051519D01*
X163113928Y-100176001D01*
X161176802Y-100176001D01*
X162817009Y-98535795D01*
X162846001Y-98512002D01*
X162869795Y-98483009D01*
X162869799Y-98483005D01*
X162940973Y-98396278D01*
X162940974Y-98396277D01*
X163011546Y-98264248D01*
X163055003Y-98120987D01*
X163066000Y-98009334D01*
X163066000Y-98009325D01*
X163069676Y-97972002D01*
X163066000Y-97934679D01*
X163066000Y-93169666D01*
X163113928Y-93169666D01*
X163126188Y-93294148D01*
X163162498Y-93413846D01*
X163221463Y-93524160D01*
X163300815Y-93620851D01*
X163397506Y-93700203D01*
X163507820Y-93759168D01*
X163627518Y-93795478D01*
X163752000Y-93807738D01*
X164216250Y-93804666D01*
X164375000Y-93645916D01*
X164375000Y-92796666D01*
X164629000Y-92796666D01*
X164629000Y-93645916D01*
X164787750Y-93804666D01*
X165252000Y-93807738D01*
X165376482Y-93795478D01*
X165496180Y-93759168D01*
X165606494Y-93700203D01*
X165703185Y-93620851D01*
X165782537Y-93524160D01*
X165841502Y-93413846D01*
X165877812Y-93294148D01*
X165890072Y-93169666D01*
X165887000Y-92955416D01*
X165728250Y-92796666D01*
X164629000Y-92796666D01*
X164375000Y-92796666D01*
X163275750Y-92796666D01*
X163117000Y-92955416D01*
X163113928Y-93169666D01*
X163066000Y-93169666D01*
X163066000Y-91980467D01*
X163210173Y-91836295D01*
X163162498Y-91925486D01*
X163126188Y-92045184D01*
X163113928Y-92169666D01*
X163117000Y-92383916D01*
X163275750Y-92542666D01*
X164375000Y-92542666D01*
X164375000Y-91693416D01*
X164629000Y-91693416D01*
X164629000Y-92542666D01*
X165728250Y-92542666D01*
X165887000Y-92383916D01*
X165890072Y-92169666D01*
X165877812Y-92045184D01*
X165841502Y-91925486D01*
X165782537Y-91815172D01*
X165703185Y-91718481D01*
X165606494Y-91639129D01*
X165496180Y-91580164D01*
X165376482Y-91543854D01*
X165252000Y-91531594D01*
X164787750Y-91534666D01*
X164629000Y-91693416D01*
X164375000Y-91693416D01*
X164216250Y-91534666D01*
X163752000Y-91531594D01*
X163627518Y-91543854D01*
X163507820Y-91580164D01*
X163418629Y-91627838D01*
X164438730Y-90607738D01*
X165252000Y-90607738D01*
X165376482Y-90595478D01*
X165496180Y-90559168D01*
X165606494Y-90500203D01*
X165703185Y-90420851D01*
X165782537Y-90324160D01*
X165841502Y-90213846D01*
X165877812Y-90094148D01*
X165890072Y-89969666D01*
X165890072Y-88969666D01*
X165877812Y-88845184D01*
X165841502Y-88725486D01*
X165782537Y-88615172D01*
X165703185Y-88518481D01*
X165606494Y-88439129D01*
X165496180Y-88380164D01*
X165376482Y-88343854D01*
X165252000Y-88331594D01*
X163752000Y-88331594D01*
X163627518Y-88343854D01*
X163507820Y-88380164D01*
X163397506Y-88439129D01*
X163300815Y-88518481D01*
X163221463Y-88615172D01*
X163162498Y-88725486D01*
X163126188Y-88845184D01*
X163113928Y-88969666D01*
X163113928Y-89782936D01*
X161794998Y-91101867D01*
X161766000Y-91125665D01*
X161742202Y-91154663D01*
X161742201Y-91154664D01*
X161671026Y-91241390D01*
X161600454Y-91373420D01*
X161573589Y-91461985D01*
X161558570Y-91511500D01*
X161556998Y-91516681D01*
X161542324Y-91665666D01*
X161546001Y-91702998D01*
X161546000Y-97657198D01*
X160893829Y-98309370D01*
X160941502Y-98220181D01*
X160977812Y-98100483D01*
X160990072Y-97976001D01*
X160990072Y-96976001D01*
X160977812Y-96851519D01*
X160941502Y-96731821D01*
X160882537Y-96621507D01*
X160803185Y-96524816D01*
X160706494Y-96445464D01*
X160596180Y-96386499D01*
X160476482Y-96350189D01*
X160352000Y-96337929D01*
X158852000Y-96337929D01*
X158750000Y-96347975D01*
X158750000Y-93797692D01*
X158852000Y-93807738D01*
X160352000Y-93807738D01*
X160476482Y-93795478D01*
X160596180Y-93759168D01*
X160706494Y-93700203D01*
X160803185Y-93620851D01*
X160882537Y-93524160D01*
X160941502Y-93413846D01*
X160977812Y-93294148D01*
X160990072Y-93169666D01*
X160990072Y-92169666D01*
X160977812Y-92045184D01*
X160941502Y-91925486D01*
X160882537Y-91815172D01*
X160836902Y-91759565D01*
X162563004Y-90033464D01*
X162592001Y-90009667D01*
X162686974Y-89893942D01*
X162757546Y-89761913D01*
X162801003Y-89618652D01*
X162812000Y-89506999D01*
X162812000Y-89506990D01*
X162815676Y-89469667D01*
X162812000Y-89432344D01*
X162812000Y-85163333D01*
X163113928Y-85163333D01*
X163126188Y-85287815D01*
X163162498Y-85407513D01*
X163221463Y-85517827D01*
X163300815Y-85614518D01*
X163397506Y-85693870D01*
X163507820Y-85752835D01*
X163627518Y-85789145D01*
X163752000Y-85801405D01*
X164216250Y-85798333D01*
X164375000Y-85639583D01*
X164375000Y-84790333D01*
X164629000Y-84790333D01*
X164629000Y-85639583D01*
X164787750Y-85798333D01*
X165252000Y-85801405D01*
X165376482Y-85789145D01*
X165496180Y-85752835D01*
X165606494Y-85693870D01*
X165703185Y-85614518D01*
X165782537Y-85517827D01*
X165841502Y-85407513D01*
X165877812Y-85287815D01*
X165890072Y-85163333D01*
X165887000Y-84949083D01*
X165728250Y-84790333D01*
X164629000Y-84790333D01*
X164375000Y-84790333D01*
X163275750Y-84790333D01*
X163117000Y-84949083D01*
X163113928Y-85163333D01*
X162812000Y-85163333D01*
X162812000Y-84228134D01*
X163210172Y-83829962D01*
X163162498Y-83919153D01*
X163126188Y-84038851D01*
X163113928Y-84163333D01*
X163117000Y-84377583D01*
X163275750Y-84536333D01*
X164375000Y-84536333D01*
X164375000Y-83687083D01*
X164629000Y-83687083D01*
X164629000Y-84536333D01*
X165728250Y-84536333D01*
X165887000Y-84377583D01*
X165890072Y-84163333D01*
X165877812Y-84038851D01*
X165841502Y-83919153D01*
X165782537Y-83808839D01*
X165703185Y-83712148D01*
X165606494Y-83632796D01*
X165496180Y-83573831D01*
X165376482Y-83537521D01*
X165252000Y-83525261D01*
X164787750Y-83528333D01*
X164629000Y-83687083D01*
X164375000Y-83687083D01*
X164216250Y-83528333D01*
X163752000Y-83525261D01*
X163627518Y-83537521D01*
X163507820Y-83573831D01*
X163418629Y-83621505D01*
X164438730Y-82601405D01*
X165252000Y-82601405D01*
X165376482Y-82589145D01*
X165496180Y-82552835D01*
X165606494Y-82493870D01*
X165703185Y-82414518D01*
X165782537Y-82317827D01*
X165841502Y-82207513D01*
X165877812Y-82087815D01*
X165890072Y-81963333D01*
X165890072Y-80963333D01*
X165877812Y-80838851D01*
X165841502Y-80719153D01*
X165782537Y-80608839D01*
X165703185Y-80512148D01*
X165606494Y-80432796D01*
X165496180Y-80373831D01*
X165376482Y-80337521D01*
X165252000Y-80325261D01*
X163752000Y-80325261D01*
X163627518Y-80337521D01*
X163507820Y-80373831D01*
X163397506Y-80432796D01*
X163300815Y-80512148D01*
X163221463Y-80608839D01*
X163162498Y-80719153D01*
X163126188Y-80838851D01*
X163113928Y-80963333D01*
X163113928Y-81776603D01*
X162939000Y-81951531D01*
X162939000Y-77157000D01*
X163113928Y-77157000D01*
X163126188Y-77281482D01*
X163162498Y-77401180D01*
X163221463Y-77511494D01*
X163300815Y-77608185D01*
X163397506Y-77687537D01*
X163507820Y-77746502D01*
X163627518Y-77782812D01*
X163752000Y-77795072D01*
X164216250Y-77792000D01*
X164375000Y-77633250D01*
X164375000Y-76784000D01*
X164629000Y-76784000D01*
X164629000Y-77633250D01*
X164787750Y-77792000D01*
X165252000Y-77795072D01*
X165376482Y-77782812D01*
X165496180Y-77746502D01*
X165606494Y-77687537D01*
X165703185Y-77608185D01*
X165782537Y-77511494D01*
X165841502Y-77401180D01*
X165877812Y-77281482D01*
X165890072Y-77157000D01*
X165887000Y-76942750D01*
X165728250Y-76784000D01*
X164629000Y-76784000D01*
X164375000Y-76784000D01*
X163275750Y-76784000D01*
X163117000Y-76942750D01*
X163113928Y-77157000D01*
X162939000Y-77157000D01*
X162939000Y-76094801D01*
X163210172Y-75823629D01*
X163162498Y-75912820D01*
X163126188Y-76032518D01*
X163113928Y-76157000D01*
X163117000Y-76371250D01*
X163275750Y-76530000D01*
X164375000Y-76530000D01*
X164375000Y-75680750D01*
X164629000Y-75680750D01*
X164629000Y-76530000D01*
X165728250Y-76530000D01*
X165887000Y-76371250D01*
X165890072Y-76157000D01*
X165877812Y-76032518D01*
X165841502Y-75912820D01*
X165782537Y-75802506D01*
X165703185Y-75705815D01*
X165606494Y-75626463D01*
X165496180Y-75567498D01*
X165376482Y-75531188D01*
X165252000Y-75518928D01*
X164787750Y-75522000D01*
X164629000Y-75680750D01*
X164375000Y-75680750D01*
X164216250Y-75522000D01*
X163752000Y-75518928D01*
X163627518Y-75531188D01*
X163507820Y-75567498D01*
X163418629Y-75615172D01*
X164438730Y-74595072D01*
X165252000Y-74595072D01*
X165376482Y-74582812D01*
X165496180Y-74546502D01*
X165606494Y-74487537D01*
X165703185Y-74408185D01*
X165782537Y-74311494D01*
X165841502Y-74201180D01*
X165877812Y-74081482D01*
X165890072Y-73957000D01*
X165890072Y-72957000D01*
X165877812Y-72832518D01*
X165841502Y-72712820D01*
X165782537Y-72602506D01*
X165703185Y-72505815D01*
X165606494Y-72426463D01*
X165496180Y-72367498D01*
X165376482Y-72331188D01*
X165252000Y-72318928D01*
X163813912Y-72318928D01*
X166331769Y-69801072D01*
X166762000Y-69801072D01*
X166886482Y-69788812D01*
X167006180Y-69752502D01*
X167116494Y-69693537D01*
X167213185Y-69614185D01*
X167292537Y-69517494D01*
X167351502Y-69407180D01*
X167387812Y-69287482D01*
X167400072Y-69163000D01*
X167400072Y-66663000D01*
X167387812Y-66538518D01*
X167386000Y-66532545D01*
X167386000Y-65293455D01*
X167387812Y-65287482D01*
X167400072Y-65163000D01*
X167400072Y-62663000D01*
X167387812Y-62538518D01*
X167351502Y-62418820D01*
X167292537Y-62308506D01*
X167213185Y-62211815D01*
X167171981Y-62178000D01*
X169470001Y-62178000D01*
X169470000Y-89083765D01*
X169318316Y-89037752D01*
X169147500Y-89020928D01*
X168672500Y-89020928D01*
X168501684Y-89037752D01*
X168337433Y-89087577D01*
X168186058Y-89168488D01*
X168053377Y-89277377D01*
X167944488Y-89410058D01*
X167896664Y-89499531D01*
X167874223Y-89511526D01*
X167813412Y-89561433D01*
X167758499Y-89606499D01*
X167734701Y-89635497D01*
X167092199Y-90278000D01*
X167030061Y-90278000D01*
X166830102Y-90317774D01*
X166641744Y-90395795D01*
X166472226Y-90509063D01*
X166328063Y-90653226D01*
X166214795Y-90822744D01*
X166136774Y-91011102D01*
X166097000Y-91211061D01*
X166097000Y-91414939D01*
X166136774Y-91614898D01*
X166214795Y-91803256D01*
X166328063Y-91972774D01*
X166472226Y-92116937D01*
X166641744Y-92230205D01*
X166830102Y-92308226D01*
X167030061Y-92348000D01*
X167233939Y-92348000D01*
X167433898Y-92308226D01*
X167622256Y-92230205D01*
X167725432Y-92161265D01*
X163991003Y-95895696D01*
X163961999Y-95919499D01*
X163906871Y-95986674D01*
X163867026Y-96035224D01*
X163810210Y-96141518D01*
X163796454Y-96167254D01*
X163752997Y-96310515D01*
X163750280Y-96338098D01*
X163627518Y-96350189D01*
X163507820Y-96386499D01*
X163397506Y-96445464D01*
X163300815Y-96524816D01*
X163221463Y-96621507D01*
X163162498Y-96731821D01*
X163126188Y-96851519D01*
X163113928Y-96976001D01*
X163113928Y-97976001D01*
X163126188Y-98100483D01*
X163162498Y-98220181D01*
X163221463Y-98330495D01*
X163300815Y-98427186D01*
X163397506Y-98506538D01*
X163507820Y-98565503D01*
X163627518Y-98601813D01*
X163752000Y-98614073D01*
X165252000Y-98614073D01*
X165376482Y-98601813D01*
X165496180Y-98565503D01*
X165606494Y-98506538D01*
X165703185Y-98427186D01*
X165782537Y-98330495D01*
X165841502Y-98220181D01*
X165877812Y-98100483D01*
X165890072Y-97976001D01*
X165890072Y-96976001D01*
X165877812Y-96851519D01*
X165841502Y-96731821D01*
X165782537Y-96621507D01*
X165703185Y-96524816D01*
X165606494Y-96445464D01*
X165596291Y-96440010D01*
X167807048Y-94229254D01*
X167813752Y-94297316D01*
X167863577Y-94461567D01*
X167944488Y-94612942D01*
X168053377Y-94745623D01*
X168150001Y-94824920D01*
X168150000Y-95627928D01*
X168148000Y-95627928D01*
X168023518Y-95640188D01*
X167903820Y-95676498D01*
X167793506Y-95735463D01*
X167696815Y-95814815D01*
X167617463Y-95911506D01*
X167558498Y-96021820D01*
X167522188Y-96141518D01*
X167509928Y-96266000D01*
X167509928Y-97790000D01*
X167522188Y-97914482D01*
X167558498Y-98034180D01*
X167617463Y-98144494D01*
X167696815Y-98241185D01*
X167793506Y-98320537D01*
X167903820Y-98379502D01*
X168023518Y-98415812D01*
X168107465Y-98424080D01*
X168019465Y-98482880D01*
X167824880Y-98677465D01*
X167671995Y-98906273D01*
X167566686Y-99160510D01*
X167513000Y-99430408D01*
X167513000Y-99705592D01*
X167566686Y-99975490D01*
X167671995Y-100229727D01*
X167824880Y-100458535D01*
X168019465Y-100653120D01*
X168248273Y-100806005D01*
X168325515Y-100838000D01*
X168248273Y-100869995D01*
X168019465Y-101022880D01*
X167824880Y-101217465D01*
X167671995Y-101446273D01*
X167566686Y-101700510D01*
X167513000Y-101970408D01*
X167513000Y-102245592D01*
X167566686Y-102515490D01*
X167671995Y-102769727D01*
X167824880Y-102998535D01*
X168019465Y-103193120D01*
X168248273Y-103346005D01*
X168325515Y-103378000D01*
X168248273Y-103409995D01*
X168019465Y-103562880D01*
X167824880Y-103757465D01*
X167671995Y-103986273D01*
X167566686Y-104240510D01*
X167513000Y-104510408D01*
X167513000Y-104785592D01*
X167566686Y-105055490D01*
X167671995Y-105309727D01*
X167824880Y-105538535D01*
X168019465Y-105733120D01*
X168248273Y-105886005D01*
X168325515Y-105918000D01*
X168248273Y-105949995D01*
X168019465Y-106102880D01*
X167824880Y-106297465D01*
X167671995Y-106526273D01*
X167566686Y-106780510D01*
X167513000Y-107050408D01*
X167513000Y-107325592D01*
X167566686Y-107595490D01*
X167671995Y-107849727D01*
X167824880Y-108078535D01*
X168019465Y-108273120D01*
X168248273Y-108426005D01*
X168325515Y-108458000D01*
X168248273Y-108489995D01*
X168019465Y-108642880D01*
X167824880Y-108837465D01*
X167671995Y-109066273D01*
X167566686Y-109320510D01*
X167554685Y-109380844D01*
X166067072Y-107893232D01*
X166067072Y-106542000D01*
X166054812Y-106417518D01*
X166018502Y-106297820D01*
X165959537Y-106187506D01*
X165880185Y-106090815D01*
X165783494Y-106011463D01*
X165673180Y-105952498D01*
X165553482Y-105916188D01*
X165429000Y-105903928D01*
X162929000Y-105903928D01*
X162804518Y-105916188D01*
X162684820Y-105952498D01*
X162574506Y-106011463D01*
X162477815Y-106090815D01*
X162398463Y-106187506D01*
X162339498Y-106297820D01*
X162303188Y-106417518D01*
X162290928Y-106542000D01*
X162290928Y-108342000D01*
X162303188Y-108466482D01*
X162339498Y-108586180D01*
X162398463Y-108696494D01*
X162477815Y-108793185D01*
X162574506Y-108872537D01*
X162684820Y-108931502D01*
X162804518Y-108967812D01*
X162929000Y-108980072D01*
X164280232Y-108980072D01*
X167513000Y-112212841D01*
X167513000Y-112405592D01*
X167566686Y-112675490D01*
X167671995Y-112929727D01*
X167824880Y-113158535D01*
X168019465Y-113353120D01*
X168248273Y-113506005D01*
X168319943Y-113535692D01*
X168306977Y-113540364D01*
X168191020Y-113602344D01*
X168124040Y-113842435D01*
X168910000Y-114628395D01*
X168924143Y-114614253D01*
X169103748Y-114793858D01*
X169089605Y-114808000D01*
X169103748Y-114822143D01*
X168924143Y-115001748D01*
X168910000Y-114987605D01*
X168124040Y-115773565D01*
X168191020Y-116013656D01*
X168440048Y-116130756D01*
X168707135Y-116197023D01*
X168982017Y-116209910D01*
X169072714Y-116196249D01*
X167340762Y-117971500D01*
X145490000Y-117971500D01*
X145490000Y-116088413D01*
X145580048Y-116130756D01*
X145847135Y-116197023D01*
X146122017Y-116209910D01*
X146394133Y-116168922D01*
X146653023Y-116075636D01*
X146768980Y-116013656D01*
X146835960Y-115773565D01*
X146050000Y-114987605D01*
X146035858Y-115001748D01*
X145856253Y-114822143D01*
X145870395Y-114808000D01*
X146229605Y-114808000D01*
X147015565Y-115593960D01*
X147255656Y-115526980D01*
X147372756Y-115277952D01*
X147439023Y-115010865D01*
X147445157Y-114880017D01*
X167508090Y-114880017D01*
X167549078Y-115152133D01*
X167642364Y-115411023D01*
X167704344Y-115526980D01*
X167944435Y-115593960D01*
X168730395Y-114808000D01*
X167944435Y-114022040D01*
X167704344Y-114089020D01*
X167587244Y-114338048D01*
X167520977Y-114605135D01*
X167508090Y-114880017D01*
X147445157Y-114880017D01*
X147451910Y-114735983D01*
X147410922Y-114463867D01*
X147317636Y-114204977D01*
X147255656Y-114089020D01*
X147015565Y-114022040D01*
X146229605Y-114808000D01*
X145870395Y-114808000D01*
X145856253Y-114793858D01*
X146035858Y-114614253D01*
X146050000Y-114628395D01*
X146835960Y-113842435D01*
X146768980Y-113602344D01*
X146633240Y-113538515D01*
X146711727Y-113506005D01*
X146940535Y-113353120D01*
X147135120Y-113158535D01*
X147288005Y-112929727D01*
X147393314Y-112675490D01*
X147447000Y-112405592D01*
X147447000Y-112130408D01*
X147393314Y-111860510D01*
X147288005Y-111606273D01*
X147135120Y-111377465D01*
X146940535Y-111182880D01*
X146711727Y-111029995D01*
X146634485Y-110998000D01*
X146711727Y-110966005D01*
X146940535Y-110813120D01*
X147135120Y-110618535D01*
X147288005Y-110389727D01*
X147393314Y-110135490D01*
X147447000Y-109865592D01*
X147447000Y-109590408D01*
X147393314Y-109320510D01*
X147288005Y-109066273D01*
X147135120Y-108837465D01*
X146940535Y-108642880D01*
X146711727Y-108489995D01*
X146634485Y-108458000D01*
X146711727Y-108426005D01*
X146940535Y-108273120D01*
X147135120Y-108078535D01*
X147288005Y-107849727D01*
X147393314Y-107595490D01*
X147447000Y-107325592D01*
X147447000Y-107050408D01*
X147393314Y-106780510D01*
X147288005Y-106526273D01*
X147135120Y-106297465D01*
X146940535Y-106102880D01*
X146711727Y-105949995D01*
X146634485Y-105918000D01*
X146711727Y-105886005D01*
X146940535Y-105733120D01*
X147135120Y-105538535D01*
X147288005Y-105309727D01*
X147393314Y-105055490D01*
X147447000Y-104785592D01*
X147447000Y-104510408D01*
X147393314Y-104240510D01*
X147288005Y-103986273D01*
X147135120Y-103757465D01*
X146940535Y-103562880D01*
X146711727Y-103409995D01*
X146634485Y-103378000D01*
X146711727Y-103346005D01*
X146940535Y-103193120D01*
X147135120Y-102998535D01*
X147288005Y-102769727D01*
X147393314Y-102515490D01*
X147447000Y-102245592D01*
X147447000Y-101970408D01*
X147393314Y-101700510D01*
X147288005Y-101446273D01*
X147135120Y-101217465D01*
X146940535Y-101022880D01*
X146711727Y-100869995D01*
X146634485Y-100838000D01*
X146711727Y-100806005D01*
X146940535Y-100653120D01*
X147135120Y-100458535D01*
X147288005Y-100229727D01*
X147393314Y-99975490D01*
X147447000Y-99705592D01*
X147447000Y-99430408D01*
X147393314Y-99160510D01*
X147288005Y-98906273D01*
X147135120Y-98677465D01*
X146955317Y-98497662D01*
X147012682Y-98492012D01*
X147132380Y-98455702D01*
X147242694Y-98396737D01*
X147339385Y-98317385D01*
X147418737Y-98220694D01*
X147477702Y-98110380D01*
X147514012Y-97990682D01*
X147526272Y-97866200D01*
X147526272Y-96189800D01*
X147514012Y-96065318D01*
X147477702Y-95945620D01*
X147418737Y-95835306D01*
X147339385Y-95738615D01*
X147242694Y-95659263D01*
X147132380Y-95600298D01*
X147012682Y-95563988D01*
X146888200Y-95551728D01*
X145490000Y-95551728D01*
X145490000Y-69472000D01*
X147984928Y-69472000D01*
X147997188Y-69596482D01*
X148033498Y-69716180D01*
X148092463Y-69826494D01*
X148171815Y-69923185D01*
X148268506Y-70002537D01*
X148378820Y-70061502D01*
X148498518Y-70097812D01*
X148623000Y-70110072D01*
X148812250Y-70107000D01*
X148971000Y-69948250D01*
X148971000Y-69111500D01*
X149225000Y-69111500D01*
X149225000Y-69948250D01*
X149383750Y-70107000D01*
X149573000Y-70110072D01*
X149697482Y-70097812D01*
X149817180Y-70061502D01*
X149927494Y-70002537D01*
X149987000Y-69953702D01*
X150046506Y-70002537D01*
X150156820Y-70061502D01*
X150276518Y-70097812D01*
X150401000Y-70110072D01*
X150590250Y-70107000D01*
X150749000Y-69948250D01*
X150749000Y-69074000D01*
X151003000Y-69074000D01*
X151003000Y-69948250D01*
X151161750Y-70107000D01*
X151351000Y-70110072D01*
X151475482Y-70097812D01*
X151595180Y-70061502D01*
X151705494Y-70002537D01*
X151802185Y-69923185D01*
X151881537Y-69826494D01*
X151940502Y-69716180D01*
X151976812Y-69596482D01*
X151989072Y-69472000D01*
X151986000Y-69232750D01*
X151827250Y-69074000D01*
X151003000Y-69074000D01*
X150749000Y-69074000D01*
X149924750Y-69074000D01*
X149887250Y-69111500D01*
X149225000Y-69111500D01*
X148971000Y-69111500D01*
X148146750Y-69111500D01*
X147988000Y-69270250D01*
X147984928Y-69472000D01*
X145490000Y-69472000D01*
X145490000Y-63594000D01*
X148075928Y-63594000D01*
X148088188Y-63718482D01*
X148124498Y-63838180D01*
X148183463Y-63948494D01*
X148262815Y-64045185D01*
X148359506Y-64124537D01*
X148379081Y-64135000D01*
X148359506Y-64145463D01*
X148262815Y-64224815D01*
X148183463Y-64321506D01*
X148124498Y-64431820D01*
X148088188Y-64551518D01*
X148075928Y-64676000D01*
X148079000Y-64865250D01*
X148237750Y-65024000D01*
X149074500Y-65024000D01*
X149074500Y-64199750D01*
X149009750Y-64135000D01*
X149074500Y-64070250D01*
X149074500Y-63246000D01*
X148237750Y-63246000D01*
X148079000Y-63404750D01*
X148075928Y-63594000D01*
X145490000Y-63594000D01*
X145490000Y-62178000D01*
X148280867Y-62178000D01*
X148262815Y-62192815D01*
G37*
G04 #@! TD.AperFunction*
D24*
X161292000Y-89154864D02*
X160990072Y-89456792D01*
X160990072Y-88969666D01*
X160977812Y-88845184D01*
X160941502Y-88725486D01*
X160882537Y-88615172D01*
X160803185Y-88518481D01*
X160706494Y-88439129D01*
X160596180Y-88380164D01*
X160476482Y-88343854D01*
X160352000Y-88331594D01*
X158852000Y-88331594D01*
X158750000Y-88341640D01*
X158750000Y-85791359D01*
X158852000Y-85801405D01*
X160352000Y-85801405D01*
X160476482Y-85789145D01*
X160596180Y-85752835D01*
X160706494Y-85693870D01*
X160803185Y-85614518D01*
X160882537Y-85517827D01*
X160941502Y-85407513D01*
X160977812Y-85287815D01*
X160990072Y-85163333D01*
X160990072Y-84350062D01*
X161292001Y-84048133D01*
X161292000Y-89154864D01*
G04 #@! TA.AperFunction,Conductor*
D25*
G36*
X161292000Y-89154864D02*
G01*
X160990072Y-89456792D01*
X160990072Y-88969666D01*
X160977812Y-88845184D01*
X160941502Y-88725486D01*
X160882537Y-88615172D01*
X160803185Y-88518481D01*
X160706494Y-88439129D01*
X160596180Y-88380164D01*
X160476482Y-88343854D01*
X160352000Y-88331594D01*
X158852000Y-88331594D01*
X158750000Y-88341640D01*
X158750000Y-85791359D01*
X158852000Y-85801405D01*
X160352000Y-85801405D01*
X160476482Y-85789145D01*
X160596180Y-85752835D01*
X160706494Y-85693870D01*
X160803185Y-85614518D01*
X160882537Y-85517827D01*
X160941502Y-85407513D01*
X160977812Y-85287815D01*
X160990072Y-85163333D01*
X160990072Y-84350062D01*
X161292001Y-84048133D01*
X161292000Y-89154864D01*
G37*
G04 #@! TD.AperFunction*
D24*
X163113928Y-73770270D02*
X161667998Y-75216201D01*
X161639000Y-75239999D01*
X161615202Y-75268997D01*
X161615201Y-75268998D01*
X161544026Y-75355724D01*
X161473454Y-75487754D01*
X161429998Y-75631015D01*
X161415324Y-75780000D01*
X161419001Y-75817332D01*
X161419000Y-81771531D01*
X160893828Y-82296703D01*
X160941502Y-82207513D01*
X160977812Y-82087815D01*
X160990072Y-81963333D01*
X160990072Y-80963333D01*
X160977812Y-80838851D01*
X160941502Y-80719153D01*
X160882537Y-80608839D01*
X160803185Y-80512148D01*
X160706494Y-80432796D01*
X160596180Y-80373831D01*
X160476482Y-80337521D01*
X160352000Y-80325261D01*
X158852000Y-80325261D01*
X158750000Y-80335307D01*
X158750000Y-77785026D01*
X158852000Y-77795072D01*
X160352000Y-77795072D01*
X160476482Y-77782812D01*
X160596180Y-77746502D01*
X160706494Y-77687537D01*
X160803185Y-77608185D01*
X160882537Y-77511494D01*
X160941502Y-77401180D01*
X160977812Y-77281482D01*
X160990072Y-77157000D01*
X160990072Y-76157000D01*
X160977812Y-76032518D01*
X160941502Y-75912820D01*
X160882537Y-75802506D01*
X160803185Y-75705815D01*
X160706494Y-75626463D01*
X160596180Y-75567498D01*
X160476482Y-75531188D01*
X160352278Y-75518955D01*
X160351003Y-75506010D01*
X160307546Y-75362749D01*
X160300328Y-75349246D01*
X160236974Y-75230719D01*
X160165799Y-75143993D01*
X160142001Y-75114995D01*
X160113002Y-75091196D01*
X160039004Y-75017198D01*
X160039004Y-74955061D01*
X159999230Y-74755102D01*
X159932943Y-74595072D01*
X160352000Y-74595072D01*
X160476482Y-74582812D01*
X160596180Y-74546502D01*
X160706494Y-74487537D01*
X160724207Y-74473000D01*
X161189098Y-74473000D01*
X161239000Y-74477915D01*
X161288902Y-74473000D01*
X161438171Y-74458298D01*
X161629687Y-74400202D01*
X161806190Y-74305860D01*
X161960896Y-74178896D01*
X161992712Y-74140128D01*
X163113928Y-73018912D01*
X163113928Y-73770270D01*
G04 #@! TA.AperFunction,Conductor*
D25*
G36*
X163113928Y-73770270D02*
G01*
X161667998Y-75216201D01*
X161639000Y-75239999D01*
X161615202Y-75268997D01*
X161615201Y-75268998D01*
X161544026Y-75355724D01*
X161473454Y-75487754D01*
X161429998Y-75631015D01*
X161415324Y-75780000D01*
X161419001Y-75817332D01*
X161419000Y-81771531D01*
X160893828Y-82296703D01*
X160941502Y-82207513D01*
X160977812Y-82087815D01*
X160990072Y-81963333D01*
X160990072Y-80963333D01*
X160977812Y-80838851D01*
X160941502Y-80719153D01*
X160882537Y-80608839D01*
X160803185Y-80512148D01*
X160706494Y-80432796D01*
X160596180Y-80373831D01*
X160476482Y-80337521D01*
X160352000Y-80325261D01*
X158852000Y-80325261D01*
X158750000Y-80335307D01*
X158750000Y-77785026D01*
X158852000Y-77795072D01*
X160352000Y-77795072D01*
X160476482Y-77782812D01*
X160596180Y-77746502D01*
X160706494Y-77687537D01*
X160803185Y-77608185D01*
X160882537Y-77511494D01*
X160941502Y-77401180D01*
X160977812Y-77281482D01*
X160990072Y-77157000D01*
X160990072Y-76157000D01*
X160977812Y-76032518D01*
X160941502Y-75912820D01*
X160882537Y-75802506D01*
X160803185Y-75705815D01*
X160706494Y-75626463D01*
X160596180Y-75567498D01*
X160476482Y-75531188D01*
X160352278Y-75518955D01*
X160351003Y-75506010D01*
X160307546Y-75362749D01*
X160300328Y-75349246D01*
X160236974Y-75230719D01*
X160165799Y-75143993D01*
X160142001Y-75114995D01*
X160113002Y-75091196D01*
X160039004Y-75017198D01*
X160039004Y-74955061D01*
X159999230Y-74755102D01*
X159932943Y-74595072D01*
X160352000Y-74595072D01*
X160476482Y-74582812D01*
X160596180Y-74546502D01*
X160706494Y-74487537D01*
X160724207Y-74473000D01*
X161189098Y-74473000D01*
X161239000Y-74477915D01*
X161288902Y-74473000D01*
X161438171Y-74458298D01*
X161629687Y-74400202D01*
X161806190Y-74305860D01*
X161960896Y-74178896D01*
X161992712Y-74140128D01*
X163113928Y-73018912D01*
X163113928Y-73770270D01*
G37*
G04 #@! TD.AperFunction*
D24*
X162814000Y-68846765D02*
X161937765Y-69723000D01*
X160896236Y-69723000D01*
X160840235Y-69667000D01*
X160857002Y-69667000D01*
X160857002Y-69508252D01*
X161015750Y-69667000D01*
X161030000Y-69670072D01*
X161154482Y-69657812D01*
X161274180Y-69621502D01*
X161384494Y-69562537D01*
X161481185Y-69483185D01*
X161560537Y-69386494D01*
X161619502Y-69276180D01*
X161655812Y-69156482D01*
X161664414Y-69069137D01*
X161800000Y-69082491D01*
X162022498Y-69060577D01*
X162236446Y-68995676D01*
X162433623Y-68890284D01*
X162606449Y-68748449D01*
X162748284Y-68575623D01*
X162814000Y-68452676D01*
X162814000Y-68846765D01*
G04 #@! TA.AperFunction,Conductor*
D25*
G36*
X162814000Y-68846765D02*
G01*
X161937765Y-69723000D01*
X160896236Y-69723000D01*
X160840235Y-69667000D01*
X160857002Y-69667000D01*
X160857002Y-69508252D01*
X161015750Y-69667000D01*
X161030000Y-69670072D01*
X161154482Y-69657812D01*
X161274180Y-69621502D01*
X161384494Y-69562537D01*
X161481185Y-69483185D01*
X161560537Y-69386494D01*
X161619502Y-69276180D01*
X161655812Y-69156482D01*
X161664414Y-69069137D01*
X161800000Y-69082491D01*
X162022498Y-69060577D01*
X162236446Y-68995676D01*
X162433623Y-68890284D01*
X162606449Y-68748449D01*
X162748284Y-68575623D01*
X162814000Y-68452676D01*
X162814000Y-68846765D01*
G37*
G04 #@! TD.AperFunction*
M02*
