G04 #@! TF.GenerationSoftware,KiCad,Pcbnew,(5.1.9-0-10_14)*
G04 #@! TF.CreationDate,2021-03-02T20:08:02+08:00*
G04 #@! TF.ProjectId,mikroBUS-L,6d696b72-6f42-4555-932d-4c2e6b696361,rev?*
G04 #@! TF.SameCoordinates,Original*
G04 #@! TF.FileFunction,Legend,Bot*
G04 #@! TF.FilePolarity,Positive*
%FSLAX46Y46*%
G04 Gerber Fmt 4.6, Leading zero omitted, Abs format (unit mm)*
G04 Created by KiCad (PCBNEW (5.1.9-0-10_14)) date 2021-03-02 20:08:02*
%MOMM*%
%LPD*%
G01*
G04 APERTURE LIST*
%ADD10C,0.508000*%
%ADD11C,0.304800*%
%ADD12C,0.127000*%
%ADD13C,0.050000*%
G04 APERTURE END LIST*
D10*
X158788100Y-97453200D02*
G75*
G03*
X158788100Y-97453200I-228600J0D01*
G01*
X159931100Y-100628200D02*
G75*
G03*
X159931100Y-100628200I-228600J0D01*
G01*
X157645100Y-100628200D02*
G75*
G03*
X157645100Y-100628200I-228600J0D01*
G01*
X155486100Y-100628200D02*
G75*
G03*
X155486100Y-100628200I-228600J0D01*
G01*
X156502100Y-97453200D02*
G75*
G03*
X156502100Y-97453200I-228600J0D01*
G01*
D11*
X158559500Y-99104200D02*
X158559500Y-97453200D01*
X156273500Y-99104200D02*
X156273500Y-97453200D01*
X159702500Y-99104200D02*
X159702500Y-100628200D01*
X157416500Y-99104200D02*
X157416500Y-100628200D01*
X155257500Y-99104200D02*
X155257500Y-100628200D01*
X158559500Y-99104200D02*
X159702500Y-99104200D01*
X157416500Y-99104200D02*
X158559500Y-99104200D01*
X156273500Y-99104200D02*
X157416500Y-99104200D01*
X155257500Y-99104200D02*
X156273500Y-99104200D01*
D12*
X170180000Y-116078000D02*
X167640000Y-118668000D01*
X144780000Y-98298000D02*
X147320000Y-98298000D01*
X167640000Y-95758000D02*
X170180000Y-95758000D01*
X167640000Y-116078000D02*
X170180000Y-116078000D01*
X167640000Y-98298000D02*
X167640000Y-116078000D01*
X167640000Y-95758000D02*
X167640000Y-98298000D01*
X170180000Y-95758000D02*
X170180000Y-116078000D01*
X167640000Y-98298000D02*
X170180000Y-98298000D01*
X147320000Y-95758000D02*
X144780000Y-95758000D01*
X147320000Y-98298000D02*
X147320000Y-95758000D01*
X147320000Y-116078000D02*
X147320000Y-98298000D01*
X144780000Y-116078000D02*
X147320000Y-116078000D01*
X144780000Y-98298000D02*
X144780000Y-116078000D01*
X144780000Y-95758000D02*
X144780000Y-98298000D01*
D13*
X160884833Y-102436380D02*
X160884833Y-101769714D01*
X160884833Y-101864952D02*
X160837214Y-101817333D01*
X160741976Y-101769714D01*
X160599119Y-101769714D01*
X160503880Y-101817333D01*
X160456261Y-101912571D01*
X160456261Y-102436380D01*
X160456261Y-101912571D02*
X160408642Y-101817333D01*
X160313404Y-101769714D01*
X160170547Y-101769714D01*
X160075309Y-101817333D01*
X160027690Y-101912571D01*
X160027690Y-102436380D01*
X159551500Y-102436380D02*
X159551500Y-101769714D01*
X159551500Y-101436380D02*
X159599119Y-101484000D01*
X159551500Y-101531619D01*
X159503880Y-101484000D01*
X159551500Y-101436380D01*
X159551500Y-101531619D01*
X159075309Y-102436380D02*
X159075309Y-101436380D01*
X158980071Y-102055428D02*
X158694357Y-102436380D01*
X158694357Y-101769714D02*
X159075309Y-102150666D01*
X158265785Y-102436380D02*
X158265785Y-101769714D01*
X158265785Y-101960190D02*
X158218166Y-101864952D01*
X158170547Y-101817333D01*
X158075309Y-101769714D01*
X157980071Y-101769714D01*
X157503880Y-102436380D02*
X157599119Y-102388761D01*
X157646738Y-102341142D01*
X157694357Y-102245904D01*
X157694357Y-101960190D01*
X157646738Y-101864952D01*
X157599119Y-101817333D01*
X157503880Y-101769714D01*
X157361023Y-101769714D01*
X157265785Y-101817333D01*
X157218166Y-101864952D01*
X157170547Y-101960190D01*
X157170547Y-102245904D01*
X157218166Y-102341142D01*
X157265785Y-102388761D01*
X157361023Y-102436380D01*
X157503880Y-102436380D01*
X156980071Y-101199000D02*
X155980071Y-101199000D01*
X156408642Y-101912571D02*
X156265785Y-101960190D01*
X156218166Y-102007809D01*
X156170547Y-102103047D01*
X156170547Y-102245904D01*
X156218166Y-102341142D01*
X156265785Y-102388761D01*
X156361023Y-102436380D01*
X156741976Y-102436380D01*
X156741976Y-101436380D01*
X156408642Y-101436380D01*
X156313404Y-101484000D01*
X156265785Y-101531619D01*
X156218166Y-101626857D01*
X156218166Y-101722095D01*
X156265785Y-101817333D01*
X156313404Y-101864952D01*
X156408642Y-101912571D01*
X156741976Y-101912571D01*
X155980071Y-101199000D02*
X154932452Y-101199000D01*
X155741976Y-101436380D02*
X155741976Y-102245904D01*
X155694357Y-102341142D01*
X155646738Y-102388761D01*
X155551500Y-102436380D01*
X155361023Y-102436380D01*
X155265785Y-102388761D01*
X155218166Y-102341142D01*
X155170547Y-102245904D01*
X155170547Y-101436380D01*
X154932452Y-101199000D02*
X153980071Y-101199000D01*
X154741976Y-102388761D02*
X154599119Y-102436380D01*
X154361023Y-102436380D01*
X154265785Y-102388761D01*
X154218166Y-102341142D01*
X154170547Y-102245904D01*
X154170547Y-102150666D01*
X154218166Y-102055428D01*
X154265785Y-102007809D01*
X154361023Y-101960190D01*
X154551500Y-101912571D01*
X154646738Y-101864952D01*
X154694357Y-101817333D01*
X154741976Y-101722095D01*
X154741976Y-101626857D01*
X154694357Y-101531619D01*
X154646738Y-101484000D01*
X154551500Y-101436380D01*
X154313404Y-101436380D01*
X154170547Y-101484000D01*
X149360095Y-97429666D02*
X148883905Y-97429666D01*
X149455333Y-97715380D02*
X149122000Y-96715380D01*
X148788667Y-97715380D01*
X148455333Y-97715380D02*
X148455333Y-96715380D01*
X147883905Y-97715380D01*
X147883905Y-96715380D01*
X149550572Y-100255380D02*
X149883905Y-99779190D01*
X150122000Y-100255380D02*
X150122000Y-99255380D01*
X149741048Y-99255380D01*
X149645810Y-99303000D01*
X149598191Y-99350619D01*
X149550572Y-99445857D01*
X149550572Y-99588714D01*
X149598191Y-99683952D01*
X149645810Y-99731571D01*
X149741048Y-99779190D01*
X150122000Y-99779190D01*
X149169619Y-100207761D02*
X149026762Y-100255380D01*
X148788667Y-100255380D01*
X148693429Y-100207761D01*
X148645810Y-100160142D01*
X148598191Y-100064904D01*
X148598191Y-99969666D01*
X148645810Y-99874428D01*
X148693429Y-99826809D01*
X148788667Y-99779190D01*
X148979143Y-99731571D01*
X149074381Y-99683952D01*
X149122000Y-99636333D01*
X149169619Y-99541095D01*
X149169619Y-99445857D01*
X149122000Y-99350619D01*
X149074381Y-99303000D01*
X148979143Y-99255380D01*
X148741048Y-99255380D01*
X148598191Y-99303000D01*
X148312476Y-99255380D02*
X147741048Y-99255380D01*
X148026762Y-100255380D02*
X148026762Y-99255380D01*
X148788666Y-102674742D02*
X148836285Y-102722361D01*
X148979142Y-102769980D01*
X149074380Y-102769980D01*
X149217238Y-102722361D01*
X149312476Y-102627123D01*
X149360095Y-102531885D01*
X149407714Y-102341409D01*
X149407714Y-102198552D01*
X149360095Y-102008076D01*
X149312476Y-101912838D01*
X149217238Y-101817600D01*
X149074380Y-101769980D01*
X148979142Y-101769980D01*
X148836285Y-101817600D01*
X148788666Y-101865219D01*
X148407714Y-102722361D02*
X148264857Y-102769980D01*
X148026761Y-102769980D01*
X147931523Y-102722361D01*
X147883904Y-102674742D01*
X147836285Y-102579504D01*
X147836285Y-102484266D01*
X147883904Y-102389028D01*
X147931523Y-102341409D01*
X148026761Y-102293790D01*
X148217238Y-102246171D01*
X148312476Y-102198552D01*
X148360095Y-102150933D01*
X148407714Y-102055695D01*
X148407714Y-101960457D01*
X148360095Y-101865219D01*
X148312476Y-101817600D01*
X148217238Y-101769980D01*
X147979142Y-101769980D01*
X147836285Y-101817600D01*
X150407714Y-105287761D02*
X150264857Y-105335380D01*
X150026761Y-105335380D01*
X149931523Y-105287761D01*
X149883904Y-105240142D01*
X149836285Y-105144904D01*
X149836285Y-105049666D01*
X149883904Y-104954428D01*
X149931523Y-104906809D01*
X150026761Y-104859190D01*
X150217238Y-104811571D01*
X150312476Y-104763952D01*
X150360095Y-104716333D01*
X150407714Y-104621095D01*
X150407714Y-104525857D01*
X150360095Y-104430619D01*
X150312476Y-104383000D01*
X150217238Y-104335380D01*
X149979142Y-104335380D01*
X149836285Y-104383000D01*
X148836285Y-105240142D02*
X148883904Y-105287761D01*
X149026761Y-105335380D01*
X149122000Y-105335380D01*
X149264857Y-105287761D01*
X149360095Y-105192523D01*
X149407714Y-105097285D01*
X149455333Y-104906809D01*
X149455333Y-104763952D01*
X149407714Y-104573476D01*
X149360095Y-104478238D01*
X149264857Y-104383000D01*
X149122000Y-104335380D01*
X149026761Y-104335380D01*
X148883904Y-104383000D01*
X148836285Y-104430619D01*
X148407714Y-105335380D02*
X148407714Y-104335380D01*
X147836285Y-105335380D02*
X148264857Y-104763952D01*
X147836285Y-104335380D02*
X148407714Y-104906809D01*
X150409523Y-107712761D02*
X150266666Y-107760380D01*
X150028571Y-107760380D01*
X149933333Y-107712761D01*
X149885714Y-107665142D01*
X149838095Y-107569904D01*
X149838095Y-107474666D01*
X149885714Y-107379428D01*
X149933333Y-107331809D01*
X150028571Y-107284190D01*
X150219047Y-107236571D01*
X150314285Y-107188952D01*
X150361904Y-107141333D01*
X150409523Y-107046095D01*
X150409523Y-106950857D01*
X150361904Y-106855619D01*
X150314285Y-106808000D01*
X150219047Y-106760380D01*
X149980952Y-106760380D01*
X149838095Y-106808000D01*
X149409523Y-107760380D02*
X149409523Y-106760380D01*
X149171428Y-106760380D01*
X149028571Y-106808000D01*
X148933333Y-106903238D01*
X148885714Y-106998476D01*
X148838095Y-107188952D01*
X148838095Y-107331809D01*
X148885714Y-107522285D01*
X148933333Y-107617523D01*
X149028571Y-107712761D01*
X149171428Y-107760380D01*
X149409523Y-107760380D01*
X148219047Y-106760380D02*
X148028571Y-106760380D01*
X147933333Y-106808000D01*
X147838095Y-106903238D01*
X147790476Y-107093714D01*
X147790476Y-107427047D01*
X147838095Y-107617523D01*
X147933333Y-107712761D01*
X148028571Y-107760380D01*
X148219047Y-107760380D01*
X148314285Y-107712761D01*
X148409523Y-107617523D01*
X148457142Y-107427047D01*
X148457142Y-107093714D01*
X148409523Y-106903238D01*
X148314285Y-106808000D01*
X148219047Y-106760380D01*
X150023809Y-110367761D02*
X149880952Y-110415380D01*
X149642857Y-110415380D01*
X149547619Y-110367761D01*
X149500000Y-110320142D01*
X149452380Y-110224904D01*
X149452380Y-110129666D01*
X149500000Y-110034428D01*
X149547619Y-109986809D01*
X149642857Y-109939190D01*
X149833333Y-109891571D01*
X149928571Y-109843952D01*
X149976190Y-109796333D01*
X150023809Y-109701095D01*
X150023809Y-109605857D01*
X149976190Y-109510619D01*
X149928571Y-109463000D01*
X149833333Y-109415380D01*
X149595238Y-109415380D01*
X149452380Y-109463000D01*
X149023809Y-110415380D02*
X149023809Y-109415380D01*
X148785714Y-109415380D01*
X148642857Y-109463000D01*
X148547619Y-109558238D01*
X148500000Y-109653476D01*
X148452380Y-109843952D01*
X148452380Y-109986809D01*
X148500000Y-110177285D01*
X148547619Y-110272523D01*
X148642857Y-110367761D01*
X148785714Y-110415380D01*
X149023809Y-110415380D01*
X148023809Y-110415380D02*
X148023809Y-109415380D01*
X151407714Y-112549028D02*
X150645810Y-112549028D01*
X151026762Y-112929980D02*
X151026762Y-112168076D01*
X150264857Y-111929980D02*
X149645810Y-111929980D01*
X149979143Y-112310933D01*
X149836286Y-112310933D01*
X149741048Y-112358552D01*
X149693429Y-112406171D01*
X149645810Y-112501409D01*
X149645810Y-112739504D01*
X149693429Y-112834742D01*
X149741048Y-112882361D01*
X149836286Y-112929980D01*
X150122000Y-112929980D01*
X150217238Y-112882361D01*
X150264857Y-112834742D01*
X149360095Y-111929980D02*
X149026762Y-112929980D01*
X148693429Y-111929980D01*
X148455333Y-111929980D02*
X147836286Y-111929980D01*
X148169619Y-112310933D01*
X148026762Y-112310933D01*
X147931524Y-112358552D01*
X147883905Y-112406171D01*
X147836286Y-112501409D01*
X147836286Y-112739504D01*
X147883905Y-112834742D01*
X147931524Y-112882361D01*
X148026762Y-112929980D01*
X148312476Y-112929980D01*
X148407714Y-112882361D01*
X148455333Y-112834742D01*
X149931523Y-114543000D02*
X150026761Y-114495380D01*
X150169619Y-114495380D01*
X150312476Y-114543000D01*
X150407714Y-114638238D01*
X150455333Y-114733476D01*
X150502952Y-114923952D01*
X150502952Y-115066809D01*
X150455333Y-115257285D01*
X150407714Y-115352523D01*
X150312476Y-115447761D01*
X150169619Y-115495380D01*
X150074380Y-115495380D01*
X149931523Y-115447761D01*
X149883904Y-115400142D01*
X149883904Y-115066809D01*
X150074380Y-115066809D01*
X149455333Y-115495380D02*
X149455333Y-114495380D01*
X148883904Y-115495380D01*
X148883904Y-114495380D01*
X148407714Y-115495380D02*
X148407714Y-114495380D01*
X148169619Y-114495380D01*
X148026761Y-114543000D01*
X147931523Y-114638238D01*
X147883904Y-114733476D01*
X147836285Y-114923952D01*
X147836285Y-115066809D01*
X147883904Y-115257285D01*
X147931523Y-115352523D01*
X148026761Y-115447761D01*
X148169619Y-115495380D01*
X148407714Y-115495380D01*
X166555751Y-114543000D02*
X166650989Y-114495380D01*
X166793847Y-114495380D01*
X166936704Y-114543000D01*
X167031942Y-114638238D01*
X167079561Y-114733476D01*
X167127180Y-114923952D01*
X167127180Y-115066809D01*
X167079561Y-115257285D01*
X167031942Y-115352523D01*
X166936704Y-115447761D01*
X166793847Y-115495380D01*
X166698608Y-115495380D01*
X166555751Y-115447761D01*
X166508132Y-115400142D01*
X166508132Y-115066809D01*
X166698608Y-115066809D01*
X166079561Y-115495380D02*
X166079561Y-114495380D01*
X165508132Y-115495380D01*
X165508132Y-114495380D01*
X165031942Y-115495380D02*
X165031942Y-114495380D01*
X164793847Y-114495380D01*
X164650989Y-114543000D01*
X164555751Y-114638238D01*
X164508132Y-114733476D01*
X164460513Y-114923952D01*
X164460513Y-115066809D01*
X164508132Y-115257285D01*
X164555751Y-115352523D01*
X164650989Y-115447761D01*
X164793847Y-115495380D01*
X165031942Y-115495380D01*
X167079561Y-112574428D02*
X166317656Y-112574428D01*
X166698608Y-112955380D02*
X166698608Y-112193476D01*
X165365275Y-111955380D02*
X165841466Y-111955380D01*
X165889085Y-112431571D01*
X165841466Y-112383952D01*
X165746227Y-112336333D01*
X165508132Y-112336333D01*
X165412894Y-112383952D01*
X165365275Y-112431571D01*
X165317656Y-112526809D01*
X165317656Y-112764904D01*
X165365275Y-112860142D01*
X165412894Y-112907761D01*
X165508132Y-112955380D01*
X165746227Y-112955380D01*
X165841466Y-112907761D01*
X165889085Y-112860142D01*
X165031942Y-111955380D02*
X164698608Y-112955380D01*
X164365275Y-111955380D01*
X167127180Y-110367761D02*
X166984323Y-110415380D01*
X166746228Y-110415380D01*
X166650990Y-110367761D01*
X166603371Y-110320142D01*
X166555752Y-110224904D01*
X166555752Y-110129666D01*
X166603371Y-110034428D01*
X166650990Y-109986809D01*
X166746228Y-109939190D01*
X166936704Y-109891571D01*
X167031942Y-109843952D01*
X167079561Y-109796333D01*
X167127180Y-109701095D01*
X167127180Y-109605857D01*
X167079561Y-109510619D01*
X167031942Y-109463000D01*
X166936704Y-109415380D01*
X166698609Y-109415380D01*
X166555752Y-109463000D01*
X166127180Y-110415380D02*
X166127180Y-109415380D01*
X165889085Y-109415380D01*
X165746228Y-109463000D01*
X165650990Y-109558238D01*
X165603371Y-109653476D01*
X165555752Y-109843952D01*
X165555752Y-109986809D01*
X165603371Y-110177285D01*
X165650990Y-110272523D01*
X165746228Y-110367761D01*
X165889085Y-110415380D01*
X166127180Y-110415380D01*
X165174799Y-110129666D02*
X164698609Y-110129666D01*
X165270037Y-110415380D02*
X164936704Y-109415380D01*
X164603371Y-110415380D01*
X167127180Y-107827761D02*
X166984323Y-107875380D01*
X166746227Y-107875380D01*
X166650989Y-107827761D01*
X166603370Y-107780142D01*
X166555751Y-107684904D01*
X166555751Y-107589666D01*
X166603370Y-107494428D01*
X166650989Y-107446809D01*
X166746227Y-107399190D01*
X166936704Y-107351571D01*
X167031942Y-107303952D01*
X167079561Y-107256333D01*
X167127180Y-107161095D01*
X167127180Y-107065857D01*
X167079561Y-106970619D01*
X167031942Y-106923000D01*
X166936704Y-106875380D01*
X166698608Y-106875380D01*
X166555751Y-106923000D01*
X165555751Y-107780142D02*
X165603370Y-107827761D01*
X165746227Y-107875380D01*
X165841465Y-107875380D01*
X165984323Y-107827761D01*
X166079561Y-107732523D01*
X166127180Y-107637285D01*
X166174799Y-107446809D01*
X166174799Y-107303952D01*
X166127180Y-107113476D01*
X166079561Y-107018238D01*
X165984323Y-106923000D01*
X165841465Y-106875380D01*
X165746227Y-106875380D01*
X165603370Y-106923000D01*
X165555751Y-106970619D01*
X164650989Y-107875380D02*
X165127180Y-107875380D01*
X165127180Y-106875380D01*
X167222418Y-104335380D02*
X166650990Y-104335380D01*
X166936704Y-105335380D02*
X166936704Y-104335380D01*
X166412894Y-104335380D02*
X165746228Y-105335380D01*
X165746228Y-104335380D02*
X166412894Y-105335380D01*
X166508132Y-102795380D02*
X166841466Y-102319190D01*
X167079561Y-102795380D02*
X167079561Y-101795380D01*
X166698608Y-101795380D01*
X166603370Y-101843000D01*
X166555751Y-101890619D01*
X166508132Y-101985857D01*
X166508132Y-102128714D01*
X166555751Y-102223952D01*
X166603370Y-102271571D01*
X166698608Y-102319190D01*
X167079561Y-102319190D01*
X166174799Y-101795380D02*
X165508132Y-102795380D01*
X165508132Y-101795380D02*
X166174799Y-102795380D01*
X167079561Y-100255380D02*
X167079561Y-99255380D01*
X166603371Y-100255380D02*
X166603371Y-99255380D01*
X166031942Y-100255380D01*
X166031942Y-99255380D01*
X165698609Y-99255380D02*
X165127180Y-99255380D01*
X165412895Y-100255380D02*
X165412895Y-99255380D01*
X167079561Y-97842380D02*
X167079561Y-96842380D01*
X166698609Y-96842380D01*
X166603371Y-96890000D01*
X166555752Y-96937619D01*
X166508133Y-97032857D01*
X166508133Y-97175714D01*
X166555752Y-97270952D01*
X166603371Y-97318571D01*
X166698609Y-97366190D01*
X167079561Y-97366190D01*
X166174800Y-96842380D02*
X165936704Y-97842380D01*
X165746228Y-97128095D01*
X165555752Y-97842380D01*
X165317657Y-96842380D01*
X164936704Y-97842380D02*
X164936704Y-96842380D01*
X164603371Y-97556666D01*
X164270038Y-96842380D01*
X164270038Y-97842380D01*
M02*
