M48
; DRILL file {KiCad (5.1.9-0-10_14)} date Tuesday, March 02, 2021 at 08:08:04 PM
; FORMAT={-:-/ absolute / inch / decimal}
; #@! TF.CreationDate,2021-03-02T20:08:04+08:00
; #@! TF.GenerationSoftware,Kicad,Pcbnew,(5.1.9-0-10_14)
; #@! TF.FileFunction,Plated,1,2,PTH
FMAT,2
INCH
T1C0.0157
T2C0.0236
T3C0.0350
%
G90
G05
T1
X6.135Y-2.955
X6.26Y-2.955
X6.305Y-3.115
X6.305Y-3.425
X6.355Y-2.74
X6.58Y-3.595
T3
X5.75Y-3.82
X5.75Y-3.92
X5.75Y-4.02
X5.75Y-4.12
X5.75Y-4.22
X5.75Y-4.32
X5.75Y-4.42
X5.75Y-4.52
X6.65Y-3.82
X6.65Y-3.92
X6.65Y-4.02
X6.65Y-4.12
X6.65Y-4.22
X6.65Y-4.32
X6.65Y-4.42
X6.65Y-4.52
T2
G00X6.0299Y-2.5005
M15
G01X6.0299Y-2.4769
M16
G05
G00X6.0299Y-2.6749
M15
G01X6.0299Y-2.6316
M16
G05
G00X6.3701Y-2.5005
M15
G01X6.3701Y-2.4769
M16
G05
G00X6.3701Y-2.6749
M15
G01X6.3701Y-2.6316
M16
G05
T0
M30
