%TF.GenerationSoftware,KiCad,Pcbnew,(5.1.9-0-10_14)*%
%TF.CreationDate,2021-04-03T00:54:56+08:00*%
%TF.ProjectId,ArduinoSWD,41726475-696e-46f5-9357-442e6b696361,rev?*%
%TF.SameCoordinates,Original*%
%TF.FileFunction,Copper,L2,Bot*%
%TF.FilePolarity,Positive*%
%FSLAX46Y46*%
G04 Gerber Fmt 4.6, Leading zero omitted, Abs format (unit mm)*
G04 Created by KiCad (PCBNEW (5.1.9-0-10_14)) date 2021-04-03 00:54:56*
%MOMM*%
%LPD*%
G01*
G04 APERTURE LIST*
%TA.AperFunction,ComponentPad*%
%ADD10O,1.700000X1.700000*%
%TD*%
%TA.AperFunction,ComponentPad*%
%ADD11R,1.700000X1.700000*%
%TD*%
%TA.AperFunction,ViaPad*%
%ADD12C,0.800000*%
%TD*%
%TA.AperFunction,Conductor*%
%ADD13C,0.254000*%
%TD*%
%TA.AperFunction,Conductor*%
%ADD14C,0.100000*%
%TD*%
G04 APERTURE END LIST*
D10*
%TO.P,J1,6*%
%TO.N,/RST*%
X127762000Y-75501500D03*
%TO.P,J1,5*%
%TO.N,GND*%
X125222000Y-75501500D03*
%TO.P,J1,4*%
%TO.N,N/C*%
X127762000Y-72961500D03*
%TO.P,J1,3*%
%TO.N,/CLK*%
X125222000Y-72961500D03*
%TO.P,J1,2*%
%TO.N,/DIO*%
X127762000Y-70421500D03*
D11*
%TO.P,J1,1*%
%TO.N,+3V3*%
X125222000Y-70421500D03*
%TD*%
D12*
%TO.N,GND*%
X120650000Y-69469000D03*
X120650000Y-71120000D03*
X114046000Y-67881500D03*
X114109500Y-70485000D03*
X114109500Y-72961500D03*
X114109500Y-75374500D03*
X114109500Y-77851000D03*
X120650000Y-74168000D03*
X120650000Y-76835000D03*
%TD*%
D13*
%TO.N,GND*%
X128753000Y-69312393D02*
X128708632Y-69268025D01*
X128465411Y-69105510D01*
X128195158Y-68993568D01*
X127908260Y-68936500D01*
X127615740Y-68936500D01*
X127328842Y-68993568D01*
X127058589Y-69105510D01*
X126815368Y-69268025D01*
X126683513Y-69399880D01*
X126661502Y-69327320D01*
X126602537Y-69217006D01*
X126523185Y-69120315D01*
X126426494Y-69040963D01*
X126316180Y-68981998D01*
X126196482Y-68945688D01*
X126072000Y-68933428D01*
X124372000Y-68933428D01*
X124247518Y-68945688D01*
X124127820Y-68981998D01*
X124017506Y-69040963D01*
X123920815Y-69120315D01*
X123841463Y-69217006D01*
X123782498Y-69327320D01*
X123746188Y-69447018D01*
X123733928Y-69571500D01*
X123733928Y-71271500D01*
X123746188Y-71395982D01*
X123782498Y-71515680D01*
X123841463Y-71625994D01*
X123920815Y-71722685D01*
X124017506Y-71802037D01*
X124127820Y-71861002D01*
X124200380Y-71883013D01*
X124068525Y-72014868D01*
X123906010Y-72258089D01*
X123794068Y-72528342D01*
X123737000Y-72815240D01*
X123737000Y-73107760D01*
X123794068Y-73394658D01*
X123906010Y-73664911D01*
X124068525Y-73908132D01*
X124275368Y-74114975D01*
X124457534Y-74236695D01*
X124340645Y-74306322D01*
X124124412Y-74501231D01*
X123950359Y-74734580D01*
X123825175Y-74997401D01*
X123780524Y-75144610D01*
X123901845Y-75374500D01*
X125095000Y-75374500D01*
X125095000Y-75354500D01*
X125349000Y-75354500D01*
X125349000Y-75374500D01*
X125369000Y-75374500D01*
X125369000Y-75628500D01*
X125349000Y-75628500D01*
X125349000Y-76822314D01*
X125578891Y-76942981D01*
X125853252Y-76845657D01*
X126103355Y-76696678D01*
X126319588Y-76501769D01*
X126490900Y-76272094D01*
X126608525Y-76448132D01*
X126815368Y-76654975D01*
X127058589Y-76817490D01*
X127328842Y-76929432D01*
X127615740Y-76986500D01*
X127908260Y-76986500D01*
X128195158Y-76929432D01*
X128465411Y-76817490D01*
X128708632Y-76654975D01*
X128753001Y-76610606D01*
X128753001Y-78715000D01*
X112991500Y-78715000D01*
X112991500Y-75858390D01*
X123780524Y-75858390D01*
X123825175Y-76005599D01*
X123950359Y-76268420D01*
X124124412Y-76501769D01*
X124340645Y-76696678D01*
X124590748Y-76845657D01*
X124865109Y-76942981D01*
X125095000Y-76822314D01*
X125095000Y-75628500D01*
X123901845Y-75628500D01*
X123780524Y-75858390D01*
X112991500Y-75858390D01*
X112991500Y-67208000D01*
X128753000Y-67208000D01*
X128753000Y-69312393D01*
%TA.AperFunction,Conductor*%
D14*
G36*
X128753000Y-69312393D02*
G01*
X128708632Y-69268025D01*
X128465411Y-69105510D01*
X128195158Y-68993568D01*
X127908260Y-68936500D01*
X127615740Y-68936500D01*
X127328842Y-68993568D01*
X127058589Y-69105510D01*
X126815368Y-69268025D01*
X126683513Y-69399880D01*
X126661502Y-69327320D01*
X126602537Y-69217006D01*
X126523185Y-69120315D01*
X126426494Y-69040963D01*
X126316180Y-68981998D01*
X126196482Y-68945688D01*
X126072000Y-68933428D01*
X124372000Y-68933428D01*
X124247518Y-68945688D01*
X124127820Y-68981998D01*
X124017506Y-69040963D01*
X123920815Y-69120315D01*
X123841463Y-69217006D01*
X123782498Y-69327320D01*
X123746188Y-69447018D01*
X123733928Y-69571500D01*
X123733928Y-71271500D01*
X123746188Y-71395982D01*
X123782498Y-71515680D01*
X123841463Y-71625994D01*
X123920815Y-71722685D01*
X124017506Y-71802037D01*
X124127820Y-71861002D01*
X124200380Y-71883013D01*
X124068525Y-72014868D01*
X123906010Y-72258089D01*
X123794068Y-72528342D01*
X123737000Y-72815240D01*
X123737000Y-73107760D01*
X123794068Y-73394658D01*
X123906010Y-73664911D01*
X124068525Y-73908132D01*
X124275368Y-74114975D01*
X124457534Y-74236695D01*
X124340645Y-74306322D01*
X124124412Y-74501231D01*
X123950359Y-74734580D01*
X123825175Y-74997401D01*
X123780524Y-75144610D01*
X123901845Y-75374500D01*
X125095000Y-75374500D01*
X125095000Y-75354500D01*
X125349000Y-75354500D01*
X125349000Y-75374500D01*
X125369000Y-75374500D01*
X125369000Y-75628500D01*
X125349000Y-75628500D01*
X125349000Y-76822314D01*
X125578891Y-76942981D01*
X125853252Y-76845657D01*
X126103355Y-76696678D01*
X126319588Y-76501769D01*
X126490900Y-76272094D01*
X126608525Y-76448132D01*
X126815368Y-76654975D01*
X127058589Y-76817490D01*
X127328842Y-76929432D01*
X127615740Y-76986500D01*
X127908260Y-76986500D01*
X128195158Y-76929432D01*
X128465411Y-76817490D01*
X128708632Y-76654975D01*
X128753001Y-76610606D01*
X128753001Y-78715000D01*
X112991500Y-78715000D01*
X112991500Y-75858390D01*
X123780524Y-75858390D01*
X123825175Y-76005599D01*
X123950359Y-76268420D01*
X124124412Y-76501769D01*
X124340645Y-76696678D01*
X124590748Y-76845657D01*
X124865109Y-76942981D01*
X125095000Y-76822314D01*
X125095000Y-75628500D01*
X123901845Y-75628500D01*
X123780524Y-75858390D01*
X112991500Y-75858390D01*
X112991500Y-67208000D01*
X128753000Y-67208000D01*
X128753000Y-69312393D01*
G37*
%TD.AperFunction*%
%TD*%
M02*
