%TF.GenerationSoftware,KiCad,Pcbnew,(5.1.9-0-10_14)*%
%TF.CreationDate,2021-04-03T00:54:56+08:00*%
%TF.ProjectId,ArduinoSWD,41726475-696e-46f5-9357-442e6b696361,rev?*%
%TF.SameCoordinates,Original*%
%TF.FileFunction,Copper,L1,Top*%
%TF.FilePolarity,Positive*%
%FSLAX46Y46*%
G04 Gerber Fmt 4.6, Leading zero omitted, Abs format (unit mm)*
G04 Created by KiCad (PCBNEW (5.1.9-0-10_14)) date 2021-04-03 00:54:56*
%MOMM*%
%LPD*%
G01*
G04 APERTURE LIST*
%TA.AperFunction,SMDPad,CuDef*%
%ADD10R,2.300000X1.020000*%
%TD*%
%TA.AperFunction,ComponentPad*%
%ADD11O,1.700000X1.700000*%
%TD*%
%TA.AperFunction,ComponentPad*%
%ADD12R,1.700000X1.700000*%
%TD*%
%TA.AperFunction,ViaPad*%
%ADD13C,0.800000*%
%TD*%
%TA.AperFunction,Conductor*%
%ADD14C,0.250000*%
%TD*%
%TA.AperFunction,Conductor*%
%ADD15C,0.254000*%
%TD*%
%TA.AperFunction,Conductor*%
%ADD16C,0.100000*%
%TD*%
G04 APERTURE END LIST*
D10*
%TO.P,J2,5*%
%TO.N,/RST*%
X116916200Y-78054200D03*
%TO.P,J2,4*%
%TO.N,/CLK*%
X116916200Y-75514200D03*
%TO.P,J2,3*%
%TO.N,/DIO*%
X116916200Y-72974200D03*
%TO.P,J2,2*%
%TO.N,GND*%
X116916200Y-70434200D03*
%TO.P,J2,1*%
%TO.N,+3V3*%
X116916200Y-67894200D03*
%TD*%
D11*
%TO.P,J1,6*%
%TO.N,/RST*%
X127762000Y-75501500D03*
%TO.P,J1,5*%
%TO.N,GND*%
X125222000Y-75501500D03*
%TO.P,J1,4*%
%TO.N,N/C*%
X127762000Y-72961500D03*
%TO.P,J1,3*%
%TO.N,/CLK*%
X125222000Y-72961500D03*
%TO.P,J1,2*%
%TO.N,/DIO*%
X127762000Y-70421500D03*
D12*
%TO.P,J1,1*%
%TO.N,+3V3*%
X125222000Y-70421500D03*
%TD*%
D13*
%TO.N,GND*%
X120650000Y-69469000D03*
X120650000Y-71120000D03*
X114046000Y-67881500D03*
X114109500Y-70485000D03*
X114109500Y-72961500D03*
X114109500Y-75374500D03*
X114109500Y-77851000D03*
X120650000Y-74168000D03*
X120650000Y-76835000D03*
%TD*%
D14*
%TO.N,/RST*%
X120765710Y-78054200D02*
X116916200Y-78054200D01*
X120778410Y-78041500D02*
X120765710Y-78054200D01*
X127698500Y-75501500D02*
X125158500Y-78041500D01*
X125158500Y-78041500D02*
X120778410Y-78041500D01*
X127762000Y-75501500D02*
X127698500Y-75501500D01*
%TO.N,GND*%
X123888500Y-76835000D02*
X120650000Y-76835000D01*
X125222000Y-75501500D02*
X123888500Y-76835000D01*
%TO.N,/CLK*%
X116928900Y-75501500D02*
X116916200Y-75514200D01*
X122682000Y-75501500D02*
X116928900Y-75501500D01*
X125222000Y-72961500D02*
X122682000Y-75501500D01*
%TO.N,/DIO*%
X116928900Y-72961500D02*
X116916200Y-72974200D01*
X122618500Y-72961500D02*
X116928900Y-72961500D01*
X126492000Y-71691500D02*
X123888500Y-71691500D01*
X123888500Y-71691500D02*
X122618500Y-72961500D01*
X127762000Y-70421500D02*
X126492000Y-71691500D01*
%TO.N,+3V3*%
X122682000Y-67881500D02*
X116928900Y-67881500D01*
X116928900Y-67881500D02*
X116916200Y-67894200D01*
X125222000Y-70421500D02*
X122682000Y-67881500D01*
%TD*%
D15*
%TO.N,GND*%
X115140388Y-67259718D02*
X115128128Y-67384200D01*
X115128128Y-68404200D01*
X115140388Y-68528682D01*
X115176698Y-68648380D01*
X115235663Y-68758694D01*
X115315015Y-68855385D01*
X115411706Y-68934737D01*
X115522020Y-68993702D01*
X115641718Y-69030012D01*
X115766200Y-69042272D01*
X118066200Y-69042272D01*
X118190682Y-69030012D01*
X118310380Y-68993702D01*
X118420694Y-68934737D01*
X118517385Y-68855385D01*
X118596737Y-68758694D01*
X118655702Y-68648380D01*
X118657789Y-68641500D01*
X122367199Y-68641500D01*
X123733928Y-70008230D01*
X123733928Y-70944191D01*
X123596253Y-70985954D01*
X123464224Y-71056526D01*
X123348499Y-71151499D01*
X123324701Y-71180497D01*
X122303699Y-72201500D01*
X118645803Y-72201500D01*
X118596737Y-72109706D01*
X118517385Y-72013015D01*
X118420694Y-71933663D01*
X118310380Y-71874698D01*
X118190682Y-71838388D01*
X118066200Y-71826128D01*
X115766200Y-71826128D01*
X115641718Y-71838388D01*
X115522020Y-71874698D01*
X115411706Y-71933663D01*
X115315015Y-72013015D01*
X115235663Y-72109706D01*
X115176698Y-72220020D01*
X115140388Y-72339718D01*
X115128128Y-72464200D01*
X115128128Y-73484200D01*
X115140388Y-73608682D01*
X115176698Y-73728380D01*
X115235663Y-73838694D01*
X115315015Y-73935385D01*
X115411706Y-74014737D01*
X115522020Y-74073702D01*
X115641718Y-74110012D01*
X115766200Y-74122272D01*
X118066200Y-74122272D01*
X118190682Y-74110012D01*
X118310380Y-74073702D01*
X118420694Y-74014737D01*
X118517385Y-73935385D01*
X118596737Y-73838694D01*
X118655702Y-73728380D01*
X118657789Y-73721500D01*
X122581178Y-73721500D01*
X122618500Y-73725176D01*
X122655822Y-73721500D01*
X122655833Y-73721500D01*
X122767486Y-73710503D01*
X122910747Y-73667046D01*
X123042776Y-73596474D01*
X123158501Y-73501501D01*
X123182304Y-73472497D01*
X123737000Y-72917801D01*
X123737000Y-73107760D01*
X123780790Y-73327907D01*
X122367199Y-74741500D01*
X118645803Y-74741500D01*
X118596737Y-74649706D01*
X118517385Y-74553015D01*
X118420694Y-74473663D01*
X118310380Y-74414698D01*
X118190682Y-74378388D01*
X118066200Y-74366128D01*
X115766200Y-74366128D01*
X115641718Y-74378388D01*
X115522020Y-74414698D01*
X115411706Y-74473663D01*
X115315015Y-74553015D01*
X115235663Y-74649706D01*
X115176698Y-74760020D01*
X115140388Y-74879718D01*
X115128128Y-75004200D01*
X115128128Y-76024200D01*
X115140388Y-76148682D01*
X115176698Y-76268380D01*
X115235663Y-76378694D01*
X115315015Y-76475385D01*
X115411706Y-76554737D01*
X115522020Y-76613702D01*
X115641718Y-76650012D01*
X115766200Y-76662272D01*
X118066200Y-76662272D01*
X118190682Y-76650012D01*
X118310380Y-76613702D01*
X118420694Y-76554737D01*
X118517385Y-76475385D01*
X118596737Y-76378694D01*
X118655702Y-76268380D01*
X118657789Y-76261500D01*
X122644678Y-76261500D01*
X122682000Y-76265176D01*
X122719322Y-76261500D01*
X122719333Y-76261500D01*
X122830986Y-76250503D01*
X122974247Y-76207046D01*
X123106276Y-76136474D01*
X123222001Y-76041501D01*
X123245804Y-76012497D01*
X123737000Y-75521301D01*
X123737000Y-75628502D01*
X123901844Y-75628502D01*
X123780524Y-75858390D01*
X123825175Y-76005599D01*
X123950359Y-76268420D01*
X124124412Y-76501769D01*
X124340645Y-76696678D01*
X124590748Y-76845657D01*
X124865109Y-76942981D01*
X125094998Y-76822315D01*
X125094998Y-76986500D01*
X125138698Y-76986500D01*
X124843699Y-77281500D01*
X120815743Y-77281500D01*
X120778410Y-77277823D01*
X120741077Y-77281500D01*
X120629424Y-77292497D01*
X120623810Y-77294200D01*
X118652591Y-77294200D01*
X118596737Y-77189706D01*
X118517385Y-77093015D01*
X118420694Y-77013663D01*
X118310380Y-76954698D01*
X118190682Y-76918388D01*
X118066200Y-76906128D01*
X115766200Y-76906128D01*
X115641718Y-76918388D01*
X115522020Y-76954698D01*
X115411706Y-77013663D01*
X115315015Y-77093015D01*
X115235663Y-77189706D01*
X115176698Y-77300020D01*
X115140388Y-77419718D01*
X115128128Y-77544200D01*
X115128128Y-78564200D01*
X115140388Y-78688682D01*
X115148371Y-78715000D01*
X112991500Y-78715000D01*
X112991500Y-70944200D01*
X115128128Y-70944200D01*
X115140388Y-71068682D01*
X115176698Y-71188380D01*
X115235663Y-71298694D01*
X115315015Y-71395385D01*
X115411706Y-71474737D01*
X115522020Y-71533702D01*
X115641718Y-71570012D01*
X115766200Y-71582272D01*
X116630450Y-71579200D01*
X116789200Y-71420450D01*
X116789200Y-70561200D01*
X117043200Y-70561200D01*
X117043200Y-71420450D01*
X117201950Y-71579200D01*
X118066200Y-71582272D01*
X118190682Y-71570012D01*
X118310380Y-71533702D01*
X118420694Y-71474737D01*
X118517385Y-71395385D01*
X118596737Y-71298694D01*
X118655702Y-71188380D01*
X118692012Y-71068682D01*
X118704272Y-70944200D01*
X118701200Y-70719950D01*
X118542450Y-70561200D01*
X117043200Y-70561200D01*
X116789200Y-70561200D01*
X115289950Y-70561200D01*
X115131200Y-70719950D01*
X115128128Y-70944200D01*
X112991500Y-70944200D01*
X112991500Y-69924200D01*
X115128128Y-69924200D01*
X115131200Y-70148450D01*
X115289950Y-70307200D01*
X116789200Y-70307200D01*
X116789200Y-69447950D01*
X117043200Y-69447950D01*
X117043200Y-70307200D01*
X118542450Y-70307200D01*
X118701200Y-70148450D01*
X118704272Y-69924200D01*
X118692012Y-69799718D01*
X118655702Y-69680020D01*
X118596737Y-69569706D01*
X118517385Y-69473015D01*
X118420694Y-69393663D01*
X118310380Y-69334698D01*
X118190682Y-69298388D01*
X118066200Y-69286128D01*
X117201950Y-69289200D01*
X117043200Y-69447950D01*
X116789200Y-69447950D01*
X116630450Y-69289200D01*
X115766200Y-69286128D01*
X115641718Y-69298388D01*
X115522020Y-69334698D01*
X115411706Y-69393663D01*
X115315015Y-69473015D01*
X115235663Y-69569706D01*
X115176698Y-69680020D01*
X115140388Y-69799718D01*
X115128128Y-69924200D01*
X112991500Y-69924200D01*
X112991500Y-67208000D01*
X115156076Y-67208000D01*
X115140388Y-67259718D01*
%TA.AperFunction,Conductor*%
D16*
G36*
X115140388Y-67259718D02*
G01*
X115128128Y-67384200D01*
X115128128Y-68404200D01*
X115140388Y-68528682D01*
X115176698Y-68648380D01*
X115235663Y-68758694D01*
X115315015Y-68855385D01*
X115411706Y-68934737D01*
X115522020Y-68993702D01*
X115641718Y-69030012D01*
X115766200Y-69042272D01*
X118066200Y-69042272D01*
X118190682Y-69030012D01*
X118310380Y-68993702D01*
X118420694Y-68934737D01*
X118517385Y-68855385D01*
X118596737Y-68758694D01*
X118655702Y-68648380D01*
X118657789Y-68641500D01*
X122367199Y-68641500D01*
X123733928Y-70008230D01*
X123733928Y-70944191D01*
X123596253Y-70985954D01*
X123464224Y-71056526D01*
X123348499Y-71151499D01*
X123324701Y-71180497D01*
X122303699Y-72201500D01*
X118645803Y-72201500D01*
X118596737Y-72109706D01*
X118517385Y-72013015D01*
X118420694Y-71933663D01*
X118310380Y-71874698D01*
X118190682Y-71838388D01*
X118066200Y-71826128D01*
X115766200Y-71826128D01*
X115641718Y-71838388D01*
X115522020Y-71874698D01*
X115411706Y-71933663D01*
X115315015Y-72013015D01*
X115235663Y-72109706D01*
X115176698Y-72220020D01*
X115140388Y-72339718D01*
X115128128Y-72464200D01*
X115128128Y-73484200D01*
X115140388Y-73608682D01*
X115176698Y-73728380D01*
X115235663Y-73838694D01*
X115315015Y-73935385D01*
X115411706Y-74014737D01*
X115522020Y-74073702D01*
X115641718Y-74110012D01*
X115766200Y-74122272D01*
X118066200Y-74122272D01*
X118190682Y-74110012D01*
X118310380Y-74073702D01*
X118420694Y-74014737D01*
X118517385Y-73935385D01*
X118596737Y-73838694D01*
X118655702Y-73728380D01*
X118657789Y-73721500D01*
X122581178Y-73721500D01*
X122618500Y-73725176D01*
X122655822Y-73721500D01*
X122655833Y-73721500D01*
X122767486Y-73710503D01*
X122910747Y-73667046D01*
X123042776Y-73596474D01*
X123158501Y-73501501D01*
X123182304Y-73472497D01*
X123737000Y-72917801D01*
X123737000Y-73107760D01*
X123780790Y-73327907D01*
X122367199Y-74741500D01*
X118645803Y-74741500D01*
X118596737Y-74649706D01*
X118517385Y-74553015D01*
X118420694Y-74473663D01*
X118310380Y-74414698D01*
X118190682Y-74378388D01*
X118066200Y-74366128D01*
X115766200Y-74366128D01*
X115641718Y-74378388D01*
X115522020Y-74414698D01*
X115411706Y-74473663D01*
X115315015Y-74553015D01*
X115235663Y-74649706D01*
X115176698Y-74760020D01*
X115140388Y-74879718D01*
X115128128Y-75004200D01*
X115128128Y-76024200D01*
X115140388Y-76148682D01*
X115176698Y-76268380D01*
X115235663Y-76378694D01*
X115315015Y-76475385D01*
X115411706Y-76554737D01*
X115522020Y-76613702D01*
X115641718Y-76650012D01*
X115766200Y-76662272D01*
X118066200Y-76662272D01*
X118190682Y-76650012D01*
X118310380Y-76613702D01*
X118420694Y-76554737D01*
X118517385Y-76475385D01*
X118596737Y-76378694D01*
X118655702Y-76268380D01*
X118657789Y-76261500D01*
X122644678Y-76261500D01*
X122682000Y-76265176D01*
X122719322Y-76261500D01*
X122719333Y-76261500D01*
X122830986Y-76250503D01*
X122974247Y-76207046D01*
X123106276Y-76136474D01*
X123222001Y-76041501D01*
X123245804Y-76012497D01*
X123737000Y-75521301D01*
X123737000Y-75628502D01*
X123901844Y-75628502D01*
X123780524Y-75858390D01*
X123825175Y-76005599D01*
X123950359Y-76268420D01*
X124124412Y-76501769D01*
X124340645Y-76696678D01*
X124590748Y-76845657D01*
X124865109Y-76942981D01*
X125094998Y-76822315D01*
X125094998Y-76986500D01*
X125138698Y-76986500D01*
X124843699Y-77281500D01*
X120815743Y-77281500D01*
X120778410Y-77277823D01*
X120741077Y-77281500D01*
X120629424Y-77292497D01*
X120623810Y-77294200D01*
X118652591Y-77294200D01*
X118596737Y-77189706D01*
X118517385Y-77093015D01*
X118420694Y-77013663D01*
X118310380Y-76954698D01*
X118190682Y-76918388D01*
X118066200Y-76906128D01*
X115766200Y-76906128D01*
X115641718Y-76918388D01*
X115522020Y-76954698D01*
X115411706Y-77013663D01*
X115315015Y-77093015D01*
X115235663Y-77189706D01*
X115176698Y-77300020D01*
X115140388Y-77419718D01*
X115128128Y-77544200D01*
X115128128Y-78564200D01*
X115140388Y-78688682D01*
X115148371Y-78715000D01*
X112991500Y-78715000D01*
X112991500Y-70944200D01*
X115128128Y-70944200D01*
X115140388Y-71068682D01*
X115176698Y-71188380D01*
X115235663Y-71298694D01*
X115315015Y-71395385D01*
X115411706Y-71474737D01*
X115522020Y-71533702D01*
X115641718Y-71570012D01*
X115766200Y-71582272D01*
X116630450Y-71579200D01*
X116789200Y-71420450D01*
X116789200Y-70561200D01*
X117043200Y-70561200D01*
X117043200Y-71420450D01*
X117201950Y-71579200D01*
X118066200Y-71582272D01*
X118190682Y-71570012D01*
X118310380Y-71533702D01*
X118420694Y-71474737D01*
X118517385Y-71395385D01*
X118596737Y-71298694D01*
X118655702Y-71188380D01*
X118692012Y-71068682D01*
X118704272Y-70944200D01*
X118701200Y-70719950D01*
X118542450Y-70561200D01*
X117043200Y-70561200D01*
X116789200Y-70561200D01*
X115289950Y-70561200D01*
X115131200Y-70719950D01*
X115128128Y-70944200D01*
X112991500Y-70944200D01*
X112991500Y-69924200D01*
X115128128Y-69924200D01*
X115131200Y-70148450D01*
X115289950Y-70307200D01*
X116789200Y-70307200D01*
X116789200Y-69447950D01*
X117043200Y-69447950D01*
X117043200Y-70307200D01*
X118542450Y-70307200D01*
X118701200Y-70148450D01*
X118704272Y-69924200D01*
X118692012Y-69799718D01*
X118655702Y-69680020D01*
X118596737Y-69569706D01*
X118517385Y-69473015D01*
X118420694Y-69393663D01*
X118310380Y-69334698D01*
X118190682Y-69298388D01*
X118066200Y-69286128D01*
X117201950Y-69289200D01*
X117043200Y-69447950D01*
X116789200Y-69447950D01*
X116630450Y-69289200D01*
X115766200Y-69286128D01*
X115641718Y-69298388D01*
X115522020Y-69334698D01*
X115411706Y-69393663D01*
X115315015Y-69473015D01*
X115235663Y-69569706D01*
X115176698Y-69680020D01*
X115140388Y-69799718D01*
X115128128Y-69924200D01*
X112991500Y-69924200D01*
X112991500Y-67208000D01*
X115156076Y-67208000D01*
X115140388Y-67259718D01*
G37*
%TD.AperFunction*%
D15*
X125349000Y-75374500D02*
X125369000Y-75374500D01*
X125369000Y-75628500D01*
X125349000Y-75628500D01*
X125349000Y-75648500D01*
X125095000Y-75648500D01*
X125095000Y-75628500D01*
X125075000Y-75628500D01*
X125075000Y-75374500D01*
X125095000Y-75374500D01*
X125095000Y-75354500D01*
X125349000Y-75354500D01*
X125349000Y-75374500D01*
%TA.AperFunction,Conductor*%
D16*
G36*
X125349000Y-75374500D02*
G01*
X125369000Y-75374500D01*
X125369000Y-75628500D01*
X125349000Y-75628500D01*
X125349000Y-75648500D01*
X125095000Y-75648500D01*
X125095000Y-75628500D01*
X125075000Y-75628500D01*
X125075000Y-75374500D01*
X125095000Y-75374500D01*
X125095000Y-75354500D01*
X125349000Y-75354500D01*
X125349000Y-75374500D01*
G37*
%TD.AperFunction*%
%TD*%
M02*
